%TF.GenerationSoftware,KiCad,Pcbnew,8.0.4*%
%TF.CreationDate,2024-09-04T22:50:35-05:00*%
%TF.ProjectId,TRS80_Floppy_Adapter,54525338-305f-4466-9c6f-7070795f4164,rev?*%
%TF.SameCoordinates,Original*%
%TF.FileFunction,Legend,Top*%
%TF.FilePolarity,Positive*%
%FSLAX46Y46*%
G04 Gerber Fmt 4.6, Leading zero omitted, Abs format (unit mm)*
G04 Created by KiCad (PCBNEW 8.0.4) date 2024-09-04 22:50:35*
%MOMM*%
%LPD*%
G01*
G04 APERTURE LIST*
%ADD10C,0.100000*%
%ADD11C,0.200000*%
%ADD12C,0.300000*%
%ADD13C,0.150000*%
%ADD14C,0.120000*%
G04 APERTURE END LIST*
D10*
X149225000Y-40894000D02*
X147955000Y-40386000D01*
X147955000Y-40386000D02*
X149225000Y-40894000D01*
X112903000Y-40894000D02*
X102997000Y-40894000D01*
X105029000Y-152146000D02*
X103759000Y-152654000D01*
X149733000Y-151892000D02*
X151003000Y-152400000D01*
X104267000Y-40386000D02*
X102997000Y-40894000D01*
X152400000Y-80010000D02*
X160528000Y-80010000D01*
X160528000Y-83058000D01*
X152400000Y-83058000D01*
X152400000Y-80010000D01*
X151003000Y-152400000D02*
X149733000Y-152908000D01*
X103759000Y-152654000D02*
X105029000Y-153162000D01*
X93472000Y-108966000D02*
X101854000Y-108966000D01*
X101854000Y-113030000D01*
X93472000Y-113030000D01*
X93472000Y-108966000D01*
X149225000Y-40894000D02*
X147955000Y-41402000D01*
X151003000Y-152400000D02*
X149733000Y-151892000D01*
X102997000Y-40894000D02*
X104267000Y-41402000D01*
X102997000Y-40894000D02*
X104267000Y-40386000D01*
X93218000Y-38100000D02*
X101600000Y-38100000D01*
X101600000Y-41910000D01*
X93218000Y-41910000D01*
X93218000Y-38100000D01*
X141097000Y-152400000D02*
X151003000Y-152400000D01*
X152654000Y-151130000D02*
X160782000Y-151130000D01*
X160782000Y-154432000D01*
X152654000Y-154432000D01*
X152654000Y-151130000D01*
X139319000Y-40894000D02*
X149225000Y-40894000D01*
X103759000Y-152654000D02*
X105029000Y-152146000D01*
X113665000Y-152654000D02*
X103759000Y-152654000D01*
X151084646Y-40020419D02*
X151703693Y-40020419D01*
X151703693Y-40020419D02*
X151370360Y-40401371D01*
X151370360Y-40401371D02*
X151513217Y-40401371D01*
X151513217Y-40401371D02*
X151608455Y-40448990D01*
X151608455Y-40448990D02*
X151656074Y-40496609D01*
X151656074Y-40496609D02*
X151703693Y-40591847D01*
X151703693Y-40591847D02*
X151703693Y-40829942D01*
X151703693Y-40829942D02*
X151656074Y-40925180D01*
X151656074Y-40925180D02*
X151608455Y-40972800D01*
X151608455Y-40972800D02*
X151513217Y-41020419D01*
X151513217Y-41020419D02*
X151227503Y-41020419D01*
X151227503Y-41020419D02*
X151132265Y-40972800D01*
X151132265Y-40972800D02*
X151084646Y-40925180D01*
X152560836Y-40353752D02*
X152560836Y-41020419D01*
X152322741Y-39972800D02*
X152084646Y-40687085D01*
X152084646Y-40687085D02*
X152703693Y-40687085D01*
D11*
X116082530Y-152029219D02*
X116082530Y-152267314D01*
X115844435Y-152172076D02*
X116082530Y-152267314D01*
X116082530Y-152267314D02*
X116320625Y-152172076D01*
X115939673Y-152457790D02*
X116082530Y-152267314D01*
X116082530Y-152267314D02*
X116225387Y-152457790D01*
X116844435Y-152029219D02*
X116844435Y-152267314D01*
X116606340Y-152172076D02*
X116844435Y-152267314D01*
X116844435Y-152267314D02*
X117082530Y-152172076D01*
X116701578Y-152457790D02*
X116844435Y-152267314D01*
X116844435Y-152267314D02*
X116987292Y-152457790D01*
X117606340Y-152029219D02*
X117606340Y-152267314D01*
X117368245Y-152172076D02*
X117606340Y-152267314D01*
X117606340Y-152267314D02*
X117844435Y-152172076D01*
X117463483Y-152457790D02*
X117606340Y-152267314D01*
X117606340Y-152267314D02*
X117749197Y-152457790D01*
X118225388Y-153029219D02*
X118225388Y-152029219D01*
X118225388Y-152029219D02*
X118796816Y-153029219D01*
X118796816Y-153029219D02*
X118796816Y-152029219D01*
X119463483Y-152029219D02*
X119653959Y-152029219D01*
X119653959Y-152029219D02*
X119749197Y-152076838D01*
X119749197Y-152076838D02*
X119844435Y-152172076D01*
X119844435Y-152172076D02*
X119892054Y-152362552D01*
X119892054Y-152362552D02*
X119892054Y-152695885D01*
X119892054Y-152695885D02*
X119844435Y-152886361D01*
X119844435Y-152886361D02*
X119749197Y-152981600D01*
X119749197Y-152981600D02*
X119653959Y-153029219D01*
X119653959Y-153029219D02*
X119463483Y-153029219D01*
X119463483Y-153029219D02*
X119368245Y-152981600D01*
X119368245Y-152981600D02*
X119273007Y-152886361D01*
X119273007Y-152886361D02*
X119225388Y-152695885D01*
X119225388Y-152695885D02*
X119225388Y-152362552D01*
X119225388Y-152362552D02*
X119273007Y-152172076D01*
X119273007Y-152172076D02*
X119368245Y-152076838D01*
X119368245Y-152076838D02*
X119463483Y-152029219D01*
X120177769Y-152029219D02*
X120749197Y-152029219D01*
X120463483Y-153029219D02*
X120463483Y-152029219D01*
X121082531Y-152505409D02*
X121415864Y-152505409D01*
X121558721Y-153029219D02*
X121082531Y-153029219D01*
X121082531Y-153029219D02*
X121082531Y-152029219D01*
X121082531Y-152029219D02*
X121558721Y-152029219D01*
X121987293Y-152933980D02*
X122034912Y-152981600D01*
X122034912Y-152981600D02*
X121987293Y-153029219D01*
X121987293Y-153029219D02*
X121939674Y-152981600D01*
X121939674Y-152981600D02*
X121987293Y-152933980D01*
X121987293Y-152933980D02*
X121987293Y-153029219D01*
X121987293Y-152410171D02*
X122034912Y-152457790D01*
X122034912Y-152457790D02*
X121987293Y-152505409D01*
X121987293Y-152505409D02*
X121939674Y-152457790D01*
X121939674Y-152457790D02*
X121987293Y-152410171D01*
X121987293Y-152410171D02*
X121987293Y-152505409D01*
X123415864Y-152029219D02*
X123606340Y-152029219D01*
X123606340Y-152029219D02*
X123701578Y-152076838D01*
X123701578Y-152076838D02*
X123796816Y-152172076D01*
X123796816Y-152172076D02*
X123844435Y-152362552D01*
X123844435Y-152362552D02*
X123844435Y-152695885D01*
X123844435Y-152695885D02*
X123796816Y-152886361D01*
X123796816Y-152886361D02*
X123701578Y-152981600D01*
X123701578Y-152981600D02*
X123606340Y-153029219D01*
X123606340Y-153029219D02*
X123415864Y-153029219D01*
X123415864Y-153029219D02*
X123320626Y-152981600D01*
X123320626Y-152981600D02*
X123225388Y-152886361D01*
X123225388Y-152886361D02*
X123177769Y-152695885D01*
X123177769Y-152695885D02*
X123177769Y-152362552D01*
X123177769Y-152362552D02*
X123225388Y-152172076D01*
X123225388Y-152172076D02*
X123320626Y-152076838D01*
X123320626Y-152076838D02*
X123415864Y-152029219D01*
X124273007Y-152362552D02*
X124273007Y-153362552D01*
X124273007Y-152410171D02*
X124368245Y-152362552D01*
X124368245Y-152362552D02*
X124558721Y-152362552D01*
X124558721Y-152362552D02*
X124653959Y-152410171D01*
X124653959Y-152410171D02*
X124701578Y-152457790D01*
X124701578Y-152457790D02*
X124749197Y-152553028D01*
X124749197Y-152553028D02*
X124749197Y-152838742D01*
X124749197Y-152838742D02*
X124701578Y-152933980D01*
X124701578Y-152933980D02*
X124653959Y-152981600D01*
X124653959Y-152981600D02*
X124558721Y-153029219D01*
X124558721Y-153029219D02*
X124368245Y-153029219D01*
X124368245Y-153029219D02*
X124273007Y-152981600D01*
X125177769Y-152362552D02*
X125177769Y-153362552D01*
X125177769Y-152410171D02*
X125273007Y-152362552D01*
X125273007Y-152362552D02*
X125463483Y-152362552D01*
X125463483Y-152362552D02*
X125558721Y-152410171D01*
X125558721Y-152410171D02*
X125606340Y-152457790D01*
X125606340Y-152457790D02*
X125653959Y-152553028D01*
X125653959Y-152553028D02*
X125653959Y-152838742D01*
X125653959Y-152838742D02*
X125606340Y-152933980D01*
X125606340Y-152933980D02*
X125558721Y-152981600D01*
X125558721Y-152981600D02*
X125463483Y-153029219D01*
X125463483Y-153029219D02*
X125273007Y-153029219D01*
X125273007Y-153029219D02*
X125177769Y-152981600D01*
X126225388Y-153029219D02*
X126130150Y-152981600D01*
X126130150Y-152981600D02*
X126082531Y-152933980D01*
X126082531Y-152933980D02*
X126034912Y-152838742D01*
X126034912Y-152838742D02*
X126034912Y-152553028D01*
X126034912Y-152553028D02*
X126082531Y-152457790D01*
X126082531Y-152457790D02*
X126130150Y-152410171D01*
X126130150Y-152410171D02*
X126225388Y-152362552D01*
X126225388Y-152362552D02*
X126368245Y-152362552D01*
X126368245Y-152362552D02*
X126463483Y-152410171D01*
X126463483Y-152410171D02*
X126511102Y-152457790D01*
X126511102Y-152457790D02*
X126558721Y-152553028D01*
X126558721Y-152553028D02*
X126558721Y-152838742D01*
X126558721Y-152838742D02*
X126511102Y-152933980D01*
X126511102Y-152933980D02*
X126463483Y-152981600D01*
X126463483Y-152981600D02*
X126368245Y-153029219D01*
X126368245Y-153029219D02*
X126225388Y-153029219D01*
X126939674Y-152981600D02*
X127034912Y-153029219D01*
X127034912Y-153029219D02*
X127225388Y-153029219D01*
X127225388Y-153029219D02*
X127320626Y-152981600D01*
X127320626Y-152981600D02*
X127368245Y-152886361D01*
X127368245Y-152886361D02*
X127368245Y-152838742D01*
X127368245Y-152838742D02*
X127320626Y-152743504D01*
X127320626Y-152743504D02*
X127225388Y-152695885D01*
X127225388Y-152695885D02*
X127082531Y-152695885D01*
X127082531Y-152695885D02*
X126987293Y-152648266D01*
X126987293Y-152648266D02*
X126939674Y-152553028D01*
X126939674Y-152553028D02*
X126939674Y-152505409D01*
X126939674Y-152505409D02*
X126987293Y-152410171D01*
X126987293Y-152410171D02*
X127082531Y-152362552D01*
X127082531Y-152362552D02*
X127225388Y-152362552D01*
X127225388Y-152362552D02*
X127320626Y-152410171D01*
X127796817Y-153029219D02*
X127796817Y-152362552D01*
X127796817Y-152029219D02*
X127749198Y-152076838D01*
X127749198Y-152076838D02*
X127796817Y-152124457D01*
X127796817Y-152124457D02*
X127844436Y-152076838D01*
X127844436Y-152076838D02*
X127796817Y-152029219D01*
X127796817Y-152029219D02*
X127796817Y-152124457D01*
X128130150Y-152362552D02*
X128511102Y-152362552D01*
X128273007Y-152029219D02*
X128273007Y-152886361D01*
X128273007Y-152886361D02*
X128320626Y-152981600D01*
X128320626Y-152981600D02*
X128415864Y-153029219D01*
X128415864Y-153029219D02*
X128511102Y-153029219D01*
X129225388Y-152981600D02*
X129130150Y-153029219D01*
X129130150Y-153029219D02*
X128939674Y-153029219D01*
X128939674Y-153029219D02*
X128844436Y-152981600D01*
X128844436Y-152981600D02*
X128796817Y-152886361D01*
X128796817Y-152886361D02*
X128796817Y-152505409D01*
X128796817Y-152505409D02*
X128844436Y-152410171D01*
X128844436Y-152410171D02*
X128939674Y-152362552D01*
X128939674Y-152362552D02*
X129130150Y-152362552D01*
X129130150Y-152362552D02*
X129225388Y-152410171D01*
X129225388Y-152410171D02*
X129273007Y-152505409D01*
X129273007Y-152505409D02*
X129273007Y-152600647D01*
X129273007Y-152600647D02*
X128796817Y-152695885D01*
X130892055Y-153029219D02*
X130892055Y-152029219D01*
X130892055Y-152981600D02*
X130796817Y-153029219D01*
X130796817Y-153029219D02*
X130606341Y-153029219D01*
X130606341Y-153029219D02*
X130511103Y-152981600D01*
X130511103Y-152981600D02*
X130463484Y-152933980D01*
X130463484Y-152933980D02*
X130415865Y-152838742D01*
X130415865Y-152838742D02*
X130415865Y-152553028D01*
X130415865Y-152553028D02*
X130463484Y-152457790D01*
X130463484Y-152457790D02*
X130511103Y-152410171D01*
X130511103Y-152410171D02*
X130606341Y-152362552D01*
X130606341Y-152362552D02*
X130796817Y-152362552D01*
X130796817Y-152362552D02*
X130892055Y-152410171D01*
X131368246Y-153029219D02*
X131368246Y-152362552D01*
X131368246Y-152029219D02*
X131320627Y-152076838D01*
X131320627Y-152076838D02*
X131368246Y-152124457D01*
X131368246Y-152124457D02*
X131415865Y-152076838D01*
X131415865Y-152076838D02*
X131368246Y-152029219D01*
X131368246Y-152029219D02*
X131368246Y-152124457D01*
X131844436Y-153029219D02*
X131844436Y-152362552D01*
X131844436Y-152553028D02*
X131892055Y-152457790D01*
X131892055Y-152457790D02*
X131939674Y-152410171D01*
X131939674Y-152410171D02*
X132034912Y-152362552D01*
X132034912Y-152362552D02*
X132130150Y-152362552D01*
X132844436Y-152981600D02*
X132749198Y-153029219D01*
X132749198Y-153029219D02*
X132558722Y-153029219D01*
X132558722Y-153029219D02*
X132463484Y-152981600D01*
X132463484Y-152981600D02*
X132415865Y-152886361D01*
X132415865Y-152886361D02*
X132415865Y-152505409D01*
X132415865Y-152505409D02*
X132463484Y-152410171D01*
X132463484Y-152410171D02*
X132558722Y-152362552D01*
X132558722Y-152362552D02*
X132749198Y-152362552D01*
X132749198Y-152362552D02*
X132844436Y-152410171D01*
X132844436Y-152410171D02*
X132892055Y-152505409D01*
X132892055Y-152505409D02*
X132892055Y-152600647D01*
X132892055Y-152600647D02*
X132415865Y-152695885D01*
X133749198Y-152981600D02*
X133653960Y-153029219D01*
X133653960Y-153029219D02*
X133463484Y-153029219D01*
X133463484Y-153029219D02*
X133368246Y-152981600D01*
X133368246Y-152981600D02*
X133320627Y-152933980D01*
X133320627Y-152933980D02*
X133273008Y-152838742D01*
X133273008Y-152838742D02*
X133273008Y-152553028D01*
X133273008Y-152553028D02*
X133320627Y-152457790D01*
X133320627Y-152457790D02*
X133368246Y-152410171D01*
X133368246Y-152410171D02*
X133463484Y-152362552D01*
X133463484Y-152362552D02*
X133653960Y-152362552D01*
X133653960Y-152362552D02*
X133749198Y-152410171D01*
X134034913Y-152362552D02*
X134415865Y-152362552D01*
X134177770Y-152029219D02*
X134177770Y-152886361D01*
X134177770Y-152886361D02*
X134225389Y-152981600D01*
X134225389Y-152981600D02*
X134320627Y-153029219D01*
X134320627Y-153029219D02*
X134415865Y-153029219D01*
X134749199Y-153029219D02*
X134749199Y-152362552D01*
X134749199Y-152029219D02*
X134701580Y-152076838D01*
X134701580Y-152076838D02*
X134749199Y-152124457D01*
X134749199Y-152124457D02*
X134796818Y-152076838D01*
X134796818Y-152076838D02*
X134749199Y-152029219D01*
X134749199Y-152029219D02*
X134749199Y-152124457D01*
X135368246Y-153029219D02*
X135273008Y-152981600D01*
X135273008Y-152981600D02*
X135225389Y-152933980D01*
X135225389Y-152933980D02*
X135177770Y-152838742D01*
X135177770Y-152838742D02*
X135177770Y-152553028D01*
X135177770Y-152553028D02*
X135225389Y-152457790D01*
X135225389Y-152457790D02*
X135273008Y-152410171D01*
X135273008Y-152410171D02*
X135368246Y-152362552D01*
X135368246Y-152362552D02*
X135511103Y-152362552D01*
X135511103Y-152362552D02*
X135606341Y-152410171D01*
X135606341Y-152410171D02*
X135653960Y-152457790D01*
X135653960Y-152457790D02*
X135701579Y-152553028D01*
X135701579Y-152553028D02*
X135701579Y-152838742D01*
X135701579Y-152838742D02*
X135653960Y-152933980D01*
X135653960Y-152933980D02*
X135606341Y-152981600D01*
X135606341Y-152981600D02*
X135511103Y-153029219D01*
X135511103Y-153029219D02*
X135368246Y-153029219D01*
X136130151Y-152362552D02*
X136130151Y-153029219D01*
X136130151Y-152457790D02*
X136177770Y-152410171D01*
X136177770Y-152410171D02*
X136273008Y-152362552D01*
X136273008Y-152362552D02*
X136415865Y-152362552D01*
X136415865Y-152362552D02*
X136511103Y-152410171D01*
X136511103Y-152410171D02*
X136558722Y-152505409D01*
X136558722Y-152505409D02*
X136558722Y-153029219D01*
X136987294Y-152981600D02*
X137082532Y-153029219D01*
X137082532Y-153029219D02*
X137273008Y-153029219D01*
X137273008Y-153029219D02*
X137368246Y-152981600D01*
X137368246Y-152981600D02*
X137415865Y-152886361D01*
X137415865Y-152886361D02*
X137415865Y-152838742D01*
X137415865Y-152838742D02*
X137368246Y-152743504D01*
X137368246Y-152743504D02*
X137273008Y-152695885D01*
X137273008Y-152695885D02*
X137130151Y-152695885D01*
X137130151Y-152695885D02*
X137034913Y-152648266D01*
X137034913Y-152648266D02*
X136987294Y-152553028D01*
X136987294Y-152553028D02*
X136987294Y-152505409D01*
X136987294Y-152505409D02*
X137034913Y-152410171D01*
X137034913Y-152410171D02*
X137130151Y-152362552D01*
X137130151Y-152362552D02*
X137273008Y-152362552D01*
X137273008Y-152362552D02*
X137368246Y-152410171D01*
X137844437Y-152933980D02*
X137892056Y-152981600D01*
X137892056Y-152981600D02*
X137844437Y-153029219D01*
X137844437Y-153029219D02*
X137796818Y-152981600D01*
X137796818Y-152981600D02*
X137844437Y-152933980D01*
X137844437Y-152933980D02*
X137844437Y-153029219D01*
X137844437Y-152648266D02*
X137796818Y-152076838D01*
X137796818Y-152076838D02*
X137844437Y-152029219D01*
X137844437Y-152029219D02*
X137892056Y-152076838D01*
X137892056Y-152076838D02*
X137844437Y-152648266D01*
X137844437Y-152648266D02*
X137844437Y-152029219D01*
X138320627Y-152933980D02*
X138368246Y-152981600D01*
X138368246Y-152981600D02*
X138320627Y-153029219D01*
X138320627Y-153029219D02*
X138273008Y-152981600D01*
X138273008Y-152981600D02*
X138320627Y-152933980D01*
X138320627Y-152933980D02*
X138320627Y-153029219D01*
X138320627Y-152648266D02*
X138273008Y-152076838D01*
X138273008Y-152076838D02*
X138320627Y-152029219D01*
X138320627Y-152029219D02*
X138368246Y-152076838D01*
X138368246Y-152076838D02*
X138320627Y-152648266D01*
X138320627Y-152648266D02*
X138320627Y-152029219D01*
X138796817Y-152933980D02*
X138844436Y-152981600D01*
X138844436Y-152981600D02*
X138796817Y-153029219D01*
X138796817Y-153029219D02*
X138749198Y-152981600D01*
X138749198Y-152981600D02*
X138796817Y-152933980D01*
X138796817Y-152933980D02*
X138796817Y-153029219D01*
X138796817Y-152648266D02*
X138749198Y-152076838D01*
X138749198Y-152076838D02*
X138796817Y-152029219D01*
X138796817Y-152029219D02*
X138844436Y-152076838D01*
X138844436Y-152076838D02*
X138796817Y-152648266D01*
X138796817Y-152648266D02*
X138796817Y-152029219D01*
D10*
X107491884Y-44826587D02*
X107491884Y-43826587D01*
X107491884Y-43826587D02*
X107825217Y-44540872D01*
X107825217Y-44540872D02*
X108158550Y-43826587D01*
X108158550Y-43826587D02*
X108158550Y-44826587D01*
X108587122Y-43921825D02*
X108634741Y-43874206D01*
X108634741Y-43874206D02*
X108729979Y-43826587D01*
X108729979Y-43826587D02*
X108968074Y-43826587D01*
X108968074Y-43826587D02*
X109063312Y-43874206D01*
X109063312Y-43874206D02*
X109110931Y-43921825D01*
X109110931Y-43921825D02*
X109158550Y-44017063D01*
X109158550Y-44017063D02*
X109158550Y-44112301D01*
X109158550Y-44112301D02*
X109110931Y-44255158D01*
X109110931Y-44255158D02*
X108539503Y-44826587D01*
X108539503Y-44826587D02*
X109158550Y-44826587D01*
X110349027Y-44302777D02*
X111110932Y-44302777D01*
X111110932Y-44588491D02*
X110349027Y-44588491D01*
X112539503Y-43826587D02*
X112729979Y-43826587D01*
X112729979Y-43826587D02*
X112825217Y-43874206D01*
X112825217Y-43874206D02*
X112920455Y-43969444D01*
X112920455Y-43969444D02*
X112968074Y-44159920D01*
X112968074Y-44159920D02*
X112968074Y-44493253D01*
X112968074Y-44493253D02*
X112920455Y-44683729D01*
X112920455Y-44683729D02*
X112825217Y-44778968D01*
X112825217Y-44778968D02*
X112729979Y-44826587D01*
X112729979Y-44826587D02*
X112539503Y-44826587D01*
X112539503Y-44826587D02*
X112444265Y-44778968D01*
X112444265Y-44778968D02*
X112349027Y-44683729D01*
X112349027Y-44683729D02*
X112301408Y-44493253D01*
X112301408Y-44493253D02*
X112301408Y-44159920D01*
X112301408Y-44159920D02*
X112349027Y-43969444D01*
X112349027Y-43969444D02*
X112444265Y-43874206D01*
X112444265Y-43874206D02*
X112539503Y-43826587D01*
X113396646Y-44826587D02*
X113396646Y-43826587D01*
X113396646Y-43826587D02*
X113777598Y-43826587D01*
X113777598Y-43826587D02*
X113872836Y-43874206D01*
X113872836Y-43874206D02*
X113920455Y-43921825D01*
X113920455Y-43921825D02*
X113968074Y-44017063D01*
X113968074Y-44017063D02*
X113968074Y-44159920D01*
X113968074Y-44159920D02*
X113920455Y-44255158D01*
X113920455Y-44255158D02*
X113872836Y-44302777D01*
X113872836Y-44302777D02*
X113777598Y-44350396D01*
X113777598Y-44350396D02*
X113396646Y-44350396D01*
X114396646Y-44302777D02*
X114729979Y-44302777D01*
X114872836Y-44826587D02*
X114396646Y-44826587D01*
X114396646Y-44826587D02*
X114396646Y-43826587D01*
X114396646Y-43826587D02*
X114872836Y-43826587D01*
X115301408Y-44826587D02*
X115301408Y-43826587D01*
X115301408Y-43826587D02*
X115872836Y-44826587D01*
X115872836Y-44826587D02*
X115872836Y-43826587D01*
X107491884Y-46436531D02*
X107491884Y-45436531D01*
X107491884Y-45436531D02*
X107825217Y-46150816D01*
X107825217Y-46150816D02*
X108158550Y-45436531D01*
X108158550Y-45436531D02*
X108158550Y-46436531D01*
X109158550Y-46436531D02*
X108587122Y-46436531D01*
X108872836Y-46436531D02*
X108872836Y-45436531D01*
X108872836Y-45436531D02*
X108777598Y-45579388D01*
X108777598Y-45579388D02*
X108682360Y-45674626D01*
X108682360Y-45674626D02*
X108587122Y-45722245D01*
X109539503Y-45531769D02*
X109587122Y-45484150D01*
X109587122Y-45484150D02*
X109682360Y-45436531D01*
X109682360Y-45436531D02*
X109920455Y-45436531D01*
X109920455Y-45436531D02*
X110015693Y-45484150D01*
X110015693Y-45484150D02*
X110063312Y-45531769D01*
X110063312Y-45531769D02*
X110110931Y-45627007D01*
X110110931Y-45627007D02*
X110110931Y-45722245D01*
X110110931Y-45722245D02*
X110063312Y-45865102D01*
X110063312Y-45865102D02*
X109491884Y-46436531D01*
X109491884Y-46436531D02*
X110110931Y-46436531D01*
X112110932Y-46436531D02*
X112063313Y-46436531D01*
X112063313Y-46436531D02*
X111968074Y-46388912D01*
X111968074Y-46388912D02*
X111825217Y-46246054D01*
X111825217Y-46246054D02*
X111587122Y-45960340D01*
X111587122Y-45960340D02*
X111491884Y-45817483D01*
X111491884Y-45817483D02*
X111444265Y-45674626D01*
X111444265Y-45674626D02*
X111444265Y-45579388D01*
X111444265Y-45579388D02*
X111491884Y-45484150D01*
X111491884Y-45484150D02*
X111587122Y-45436531D01*
X111587122Y-45436531D02*
X111634741Y-45436531D01*
X111634741Y-45436531D02*
X111729979Y-45484150D01*
X111729979Y-45484150D02*
X111777598Y-45579388D01*
X111777598Y-45579388D02*
X111777598Y-45627007D01*
X111777598Y-45627007D02*
X111729979Y-45722245D01*
X111729979Y-45722245D02*
X111682360Y-45769864D01*
X111682360Y-45769864D02*
X111396646Y-45960340D01*
X111396646Y-45960340D02*
X111349027Y-46007959D01*
X111349027Y-46007959D02*
X111301408Y-46103197D01*
X111301408Y-46103197D02*
X111301408Y-46246054D01*
X111301408Y-46246054D02*
X111349027Y-46341292D01*
X111349027Y-46341292D02*
X111396646Y-46388912D01*
X111396646Y-46388912D02*
X111491884Y-46436531D01*
X111491884Y-46436531D02*
X111634741Y-46436531D01*
X111634741Y-46436531D02*
X111729979Y-46388912D01*
X111729979Y-46388912D02*
X111777598Y-46341292D01*
X111777598Y-46341292D02*
X111920455Y-46150816D01*
X111920455Y-46150816D02*
X111968074Y-46007959D01*
X111968074Y-46007959D02*
X111968074Y-45912721D01*
X113825217Y-46436531D02*
X113253789Y-46436531D01*
X113539503Y-46436531D02*
X113539503Y-45436531D01*
X113539503Y-45436531D02*
X113444265Y-45579388D01*
X113444265Y-45579388D02*
X113349027Y-45674626D01*
X113349027Y-45674626D02*
X113253789Y-45722245D01*
X114682360Y-45436531D02*
X114491884Y-45436531D01*
X114491884Y-45436531D02*
X114396646Y-45484150D01*
X114396646Y-45484150D02*
X114349027Y-45531769D01*
X114349027Y-45531769D02*
X114253789Y-45674626D01*
X114253789Y-45674626D02*
X114206170Y-45865102D01*
X114206170Y-45865102D02*
X114206170Y-46246054D01*
X114206170Y-46246054D02*
X114253789Y-46341292D01*
X114253789Y-46341292D02*
X114301408Y-46388912D01*
X114301408Y-46388912D02*
X114396646Y-46436531D01*
X114396646Y-46436531D02*
X114587122Y-46436531D01*
X114587122Y-46436531D02*
X114682360Y-46388912D01*
X114682360Y-46388912D02*
X114729979Y-46341292D01*
X114729979Y-46341292D02*
X114777598Y-46246054D01*
X114777598Y-46246054D02*
X114777598Y-46007959D01*
X114777598Y-46007959D02*
X114729979Y-45912721D01*
X114729979Y-45912721D02*
X114682360Y-45865102D01*
X114682360Y-45865102D02*
X114587122Y-45817483D01*
X114587122Y-45817483D02*
X114396646Y-45817483D01*
X114396646Y-45817483D02*
X114301408Y-45865102D01*
X114301408Y-45865102D02*
X114253789Y-45912721D01*
X114253789Y-45912721D02*
X114206170Y-46007959D01*
X115968075Y-45912721D02*
X116729980Y-45912721D01*
X116729980Y-46198435D02*
X115968075Y-46198435D01*
X118539503Y-46341292D02*
X118491884Y-46388912D01*
X118491884Y-46388912D02*
X118349027Y-46436531D01*
X118349027Y-46436531D02*
X118253789Y-46436531D01*
X118253789Y-46436531D02*
X118110932Y-46388912D01*
X118110932Y-46388912D02*
X118015694Y-46293673D01*
X118015694Y-46293673D02*
X117968075Y-46198435D01*
X117968075Y-46198435D02*
X117920456Y-46007959D01*
X117920456Y-46007959D02*
X117920456Y-45865102D01*
X117920456Y-45865102D02*
X117968075Y-45674626D01*
X117968075Y-45674626D02*
X118015694Y-45579388D01*
X118015694Y-45579388D02*
X118110932Y-45484150D01*
X118110932Y-45484150D02*
X118253789Y-45436531D01*
X118253789Y-45436531D02*
X118349027Y-45436531D01*
X118349027Y-45436531D02*
X118491884Y-45484150D01*
X118491884Y-45484150D02*
X118539503Y-45531769D01*
X119444265Y-46436531D02*
X118968075Y-46436531D01*
X118968075Y-46436531D02*
X118968075Y-45436531D01*
X119968075Y-45436531D02*
X120158551Y-45436531D01*
X120158551Y-45436531D02*
X120253789Y-45484150D01*
X120253789Y-45484150D02*
X120349027Y-45579388D01*
X120349027Y-45579388D02*
X120396646Y-45769864D01*
X120396646Y-45769864D02*
X120396646Y-46103197D01*
X120396646Y-46103197D02*
X120349027Y-46293673D01*
X120349027Y-46293673D02*
X120253789Y-46388912D01*
X120253789Y-46388912D02*
X120158551Y-46436531D01*
X120158551Y-46436531D02*
X119968075Y-46436531D01*
X119968075Y-46436531D02*
X119872837Y-46388912D01*
X119872837Y-46388912D02*
X119777599Y-46293673D01*
X119777599Y-46293673D02*
X119729980Y-46103197D01*
X119729980Y-46103197D02*
X119729980Y-45769864D01*
X119729980Y-45769864D02*
X119777599Y-45579388D01*
X119777599Y-45579388D02*
X119872837Y-45484150D01*
X119872837Y-45484150D02*
X119968075Y-45436531D01*
X120777599Y-46388912D02*
X120920456Y-46436531D01*
X120920456Y-46436531D02*
X121158551Y-46436531D01*
X121158551Y-46436531D02*
X121253789Y-46388912D01*
X121253789Y-46388912D02*
X121301408Y-46341292D01*
X121301408Y-46341292D02*
X121349027Y-46246054D01*
X121349027Y-46246054D02*
X121349027Y-46150816D01*
X121349027Y-46150816D02*
X121301408Y-46055578D01*
X121301408Y-46055578D02*
X121253789Y-46007959D01*
X121253789Y-46007959D02*
X121158551Y-45960340D01*
X121158551Y-45960340D02*
X120968075Y-45912721D01*
X120968075Y-45912721D02*
X120872837Y-45865102D01*
X120872837Y-45865102D02*
X120825218Y-45817483D01*
X120825218Y-45817483D02*
X120777599Y-45722245D01*
X120777599Y-45722245D02*
X120777599Y-45627007D01*
X120777599Y-45627007D02*
X120825218Y-45531769D01*
X120825218Y-45531769D02*
X120872837Y-45484150D01*
X120872837Y-45484150D02*
X120968075Y-45436531D01*
X120968075Y-45436531D02*
X121206170Y-45436531D01*
X121206170Y-45436531D02*
X121349027Y-45484150D01*
X121777599Y-45912721D02*
X122110932Y-45912721D01*
X122253789Y-46436531D02*
X121777599Y-46436531D01*
X121777599Y-46436531D02*
X121777599Y-45436531D01*
X121777599Y-45436531D02*
X122253789Y-45436531D01*
X122682361Y-46436531D02*
X122682361Y-45436531D01*
X122682361Y-45436531D02*
X122920456Y-45436531D01*
X122920456Y-45436531D02*
X123063313Y-45484150D01*
X123063313Y-45484150D02*
X123158551Y-45579388D01*
X123158551Y-45579388D02*
X123206170Y-45674626D01*
X123206170Y-45674626D02*
X123253789Y-45865102D01*
X123253789Y-45865102D02*
X123253789Y-46007959D01*
X123253789Y-46007959D02*
X123206170Y-46198435D01*
X123206170Y-46198435D02*
X123158551Y-46293673D01*
X123158551Y-46293673D02*
X123063313Y-46388912D01*
X123063313Y-46388912D02*
X122920456Y-46436531D01*
X122920456Y-46436531D02*
X122682361Y-46436531D01*
X107491884Y-48046475D02*
X107491884Y-47046475D01*
X107491884Y-47046475D02*
X107825217Y-47760760D01*
X107825217Y-47760760D02*
X108158550Y-47046475D01*
X108158550Y-47046475D02*
X108158550Y-48046475D01*
X109158550Y-48046475D02*
X108587122Y-48046475D01*
X108872836Y-48046475D02*
X108872836Y-47046475D01*
X108872836Y-47046475D02*
X108777598Y-47189332D01*
X108777598Y-47189332D02*
X108682360Y-47284570D01*
X108682360Y-47284570D02*
X108587122Y-47332189D01*
X109634741Y-47998856D02*
X109634741Y-48046475D01*
X109634741Y-48046475D02*
X109587122Y-48141713D01*
X109587122Y-48141713D02*
X109539503Y-48189332D01*
X109968074Y-47046475D02*
X110587121Y-47046475D01*
X110587121Y-47046475D02*
X110253788Y-47427427D01*
X110253788Y-47427427D02*
X110396645Y-47427427D01*
X110396645Y-47427427D02*
X110491883Y-47475046D01*
X110491883Y-47475046D02*
X110539502Y-47522665D01*
X110539502Y-47522665D02*
X110587121Y-47617903D01*
X110587121Y-47617903D02*
X110587121Y-47855998D01*
X110587121Y-47855998D02*
X110539502Y-47951236D01*
X110539502Y-47951236D02*
X110491883Y-47998856D01*
X110491883Y-47998856D02*
X110396645Y-48046475D01*
X110396645Y-48046475D02*
X110110931Y-48046475D01*
X110110931Y-48046475D02*
X110015693Y-47998856D01*
X110015693Y-47998856D02*
X109968074Y-47951236D01*
X111063312Y-47998856D02*
X111063312Y-48046475D01*
X111063312Y-48046475D02*
X111015693Y-48141713D01*
X111015693Y-48141713D02*
X110968074Y-48189332D01*
X113063312Y-48046475D02*
X113015693Y-48046475D01*
X113015693Y-48046475D02*
X112920454Y-47998856D01*
X112920454Y-47998856D02*
X112777597Y-47855998D01*
X112777597Y-47855998D02*
X112539502Y-47570284D01*
X112539502Y-47570284D02*
X112444264Y-47427427D01*
X112444264Y-47427427D02*
X112396645Y-47284570D01*
X112396645Y-47284570D02*
X112396645Y-47189332D01*
X112396645Y-47189332D02*
X112444264Y-47094094D01*
X112444264Y-47094094D02*
X112539502Y-47046475D01*
X112539502Y-47046475D02*
X112587121Y-47046475D01*
X112587121Y-47046475D02*
X112682359Y-47094094D01*
X112682359Y-47094094D02*
X112729978Y-47189332D01*
X112729978Y-47189332D02*
X112729978Y-47236951D01*
X112729978Y-47236951D02*
X112682359Y-47332189D01*
X112682359Y-47332189D02*
X112634740Y-47379808D01*
X112634740Y-47379808D02*
X112349026Y-47570284D01*
X112349026Y-47570284D02*
X112301407Y-47617903D01*
X112301407Y-47617903D02*
X112253788Y-47713141D01*
X112253788Y-47713141D02*
X112253788Y-47855998D01*
X112253788Y-47855998D02*
X112301407Y-47951236D01*
X112301407Y-47951236D02*
X112349026Y-47998856D01*
X112349026Y-47998856D02*
X112444264Y-48046475D01*
X112444264Y-48046475D02*
X112587121Y-48046475D01*
X112587121Y-48046475D02*
X112682359Y-47998856D01*
X112682359Y-47998856D02*
X112729978Y-47951236D01*
X112729978Y-47951236D02*
X112872835Y-47760760D01*
X112872835Y-47760760D02*
X112920454Y-47617903D01*
X112920454Y-47617903D02*
X112920454Y-47522665D01*
X114682359Y-47379808D02*
X114682359Y-48046475D01*
X114444264Y-46998856D02*
X114206169Y-47713141D01*
X114206169Y-47713141D02*
X114825216Y-47713141D01*
X115968074Y-47522665D02*
X116729979Y-47522665D01*
X116729979Y-47808379D02*
X115968074Y-47808379D01*
X117968074Y-48046475D02*
X117968074Y-47046475D01*
X117968074Y-47046475D02*
X118206169Y-47046475D01*
X118206169Y-47046475D02*
X118349026Y-47094094D01*
X118349026Y-47094094D02*
X118444264Y-47189332D01*
X118444264Y-47189332D02*
X118491883Y-47284570D01*
X118491883Y-47284570D02*
X118539502Y-47475046D01*
X118539502Y-47475046D02*
X118539502Y-47617903D01*
X118539502Y-47617903D02*
X118491883Y-47808379D01*
X118491883Y-47808379D02*
X118444264Y-47903617D01*
X118444264Y-47903617D02*
X118349026Y-47998856D01*
X118349026Y-47998856D02*
X118206169Y-48046475D01*
X118206169Y-48046475D02*
X117968074Y-48046475D01*
X119110931Y-48046475D02*
X119015693Y-47998856D01*
X119015693Y-47998856D02*
X118968074Y-47951236D01*
X118968074Y-47951236D02*
X118920455Y-47855998D01*
X118920455Y-47855998D02*
X118920455Y-47570284D01*
X118920455Y-47570284D02*
X118968074Y-47475046D01*
X118968074Y-47475046D02*
X119015693Y-47427427D01*
X119015693Y-47427427D02*
X119110931Y-47379808D01*
X119110931Y-47379808D02*
X119253788Y-47379808D01*
X119253788Y-47379808D02*
X119349026Y-47427427D01*
X119349026Y-47427427D02*
X119396645Y-47475046D01*
X119396645Y-47475046D02*
X119444264Y-47570284D01*
X119444264Y-47570284D02*
X119444264Y-47855998D01*
X119444264Y-47855998D02*
X119396645Y-47951236D01*
X119396645Y-47951236D02*
X119349026Y-47998856D01*
X119349026Y-47998856D02*
X119253788Y-48046475D01*
X119253788Y-48046475D02*
X119110931Y-48046475D01*
X120253788Y-47998856D02*
X120158550Y-48046475D01*
X120158550Y-48046475D02*
X119968074Y-48046475D01*
X119968074Y-48046475D02*
X119872836Y-47998856D01*
X119872836Y-47998856D02*
X119825217Y-47903617D01*
X119825217Y-47903617D02*
X119825217Y-47522665D01*
X119825217Y-47522665D02*
X119872836Y-47427427D01*
X119872836Y-47427427D02*
X119968074Y-47379808D01*
X119968074Y-47379808D02*
X120158550Y-47379808D01*
X120158550Y-47379808D02*
X120253788Y-47427427D01*
X120253788Y-47427427D02*
X120301407Y-47522665D01*
X120301407Y-47522665D02*
X120301407Y-47617903D01*
X120301407Y-47617903D02*
X119825217Y-47713141D01*
X120682360Y-47998856D02*
X120777598Y-48046475D01*
X120777598Y-48046475D02*
X120968074Y-48046475D01*
X120968074Y-48046475D02*
X121063312Y-47998856D01*
X121063312Y-47998856D02*
X121110931Y-47903617D01*
X121110931Y-47903617D02*
X121110931Y-47855998D01*
X121110931Y-47855998D02*
X121063312Y-47760760D01*
X121063312Y-47760760D02*
X120968074Y-47713141D01*
X120968074Y-47713141D02*
X120825217Y-47713141D01*
X120825217Y-47713141D02*
X120729979Y-47665522D01*
X120729979Y-47665522D02*
X120682360Y-47570284D01*
X120682360Y-47570284D02*
X120682360Y-47522665D01*
X120682360Y-47522665D02*
X120729979Y-47427427D01*
X120729979Y-47427427D02*
X120825217Y-47379808D01*
X120825217Y-47379808D02*
X120968074Y-47379808D01*
X120968074Y-47379808D02*
X121063312Y-47427427D01*
X121539503Y-47379808D02*
X121539503Y-48046475D01*
X121539503Y-47475046D02*
X121587122Y-47427427D01*
X121587122Y-47427427D02*
X121682360Y-47379808D01*
X121682360Y-47379808D02*
X121825217Y-47379808D01*
X121825217Y-47379808D02*
X121920455Y-47427427D01*
X121920455Y-47427427D02*
X121968074Y-47522665D01*
X121968074Y-47522665D02*
X121968074Y-48046475D01*
X122491884Y-47046475D02*
X122396646Y-47236951D01*
X122777598Y-47379808D02*
X123158550Y-47379808D01*
X122920455Y-47046475D02*
X122920455Y-47903617D01*
X122920455Y-47903617D02*
X122968074Y-47998856D01*
X122968074Y-47998856D02*
X123063312Y-48046475D01*
X123063312Y-48046475D02*
X123158550Y-48046475D01*
X124253789Y-48046475D02*
X124253789Y-47379808D01*
X124253789Y-47475046D02*
X124301408Y-47427427D01*
X124301408Y-47427427D02*
X124396646Y-47379808D01*
X124396646Y-47379808D02*
X124539503Y-47379808D01*
X124539503Y-47379808D02*
X124634741Y-47427427D01*
X124634741Y-47427427D02*
X124682360Y-47522665D01*
X124682360Y-47522665D02*
X124682360Y-48046475D01*
X124682360Y-47522665D02*
X124729979Y-47427427D01*
X124729979Y-47427427D02*
X124825217Y-47379808D01*
X124825217Y-47379808D02*
X124968074Y-47379808D01*
X124968074Y-47379808D02*
X125063313Y-47427427D01*
X125063313Y-47427427D02*
X125110932Y-47522665D01*
X125110932Y-47522665D02*
X125110932Y-48046475D01*
X126015693Y-48046475D02*
X126015693Y-47522665D01*
X126015693Y-47522665D02*
X125968074Y-47427427D01*
X125968074Y-47427427D02*
X125872836Y-47379808D01*
X125872836Y-47379808D02*
X125682360Y-47379808D01*
X125682360Y-47379808D02*
X125587122Y-47427427D01*
X126015693Y-47998856D02*
X125920455Y-48046475D01*
X125920455Y-48046475D02*
X125682360Y-48046475D01*
X125682360Y-48046475D02*
X125587122Y-47998856D01*
X125587122Y-47998856D02*
X125539503Y-47903617D01*
X125539503Y-47903617D02*
X125539503Y-47808379D01*
X125539503Y-47808379D02*
X125587122Y-47713141D01*
X125587122Y-47713141D02*
X125682360Y-47665522D01*
X125682360Y-47665522D02*
X125920455Y-47665522D01*
X125920455Y-47665522D02*
X126015693Y-47617903D01*
X126349027Y-47379808D02*
X126729979Y-47379808D01*
X126491884Y-47046475D02*
X126491884Y-47903617D01*
X126491884Y-47903617D02*
X126539503Y-47998856D01*
X126539503Y-47998856D02*
X126634741Y-48046475D01*
X126634741Y-48046475D02*
X126729979Y-48046475D01*
X126920456Y-47379808D02*
X127301408Y-47379808D01*
X127063313Y-47046475D02*
X127063313Y-47903617D01*
X127063313Y-47903617D02*
X127110932Y-47998856D01*
X127110932Y-47998856D02*
X127206170Y-48046475D01*
X127206170Y-48046475D02*
X127301408Y-48046475D01*
X128015694Y-47998856D02*
X127920456Y-48046475D01*
X127920456Y-48046475D02*
X127729980Y-48046475D01*
X127729980Y-48046475D02*
X127634742Y-47998856D01*
X127634742Y-47998856D02*
X127587123Y-47903617D01*
X127587123Y-47903617D02*
X127587123Y-47522665D01*
X127587123Y-47522665D02*
X127634742Y-47427427D01*
X127634742Y-47427427D02*
X127729980Y-47379808D01*
X127729980Y-47379808D02*
X127920456Y-47379808D01*
X127920456Y-47379808D02*
X128015694Y-47427427D01*
X128015694Y-47427427D02*
X128063313Y-47522665D01*
X128063313Y-47522665D02*
X128063313Y-47617903D01*
X128063313Y-47617903D02*
X127587123Y-47713141D01*
X128491885Y-48046475D02*
X128491885Y-47379808D01*
X128491885Y-47570284D02*
X128539504Y-47475046D01*
X128539504Y-47475046D02*
X128587123Y-47427427D01*
X128587123Y-47427427D02*
X128682361Y-47379808D01*
X128682361Y-47379808D02*
X128777599Y-47379808D01*
X129158552Y-47998856D02*
X129158552Y-48046475D01*
X129158552Y-48046475D02*
X129110933Y-48141713D01*
X129110933Y-48141713D02*
X129063314Y-48189332D01*
X118158554Y-48989752D02*
X118158554Y-49656419D01*
X118158554Y-49084990D02*
X118206173Y-49037371D01*
X118206173Y-49037371D02*
X118301411Y-48989752D01*
X118301411Y-48989752D02*
X118444268Y-48989752D01*
X118444268Y-48989752D02*
X118539506Y-49037371D01*
X118539506Y-49037371D02*
X118587125Y-49132609D01*
X118587125Y-49132609D02*
X118587125Y-49656419D01*
X119206173Y-49656419D02*
X119110935Y-49608800D01*
X119110935Y-49608800D02*
X119063316Y-49561180D01*
X119063316Y-49561180D02*
X119015697Y-49465942D01*
X119015697Y-49465942D02*
X119015697Y-49180228D01*
X119015697Y-49180228D02*
X119063316Y-49084990D01*
X119063316Y-49084990D02*
X119110935Y-49037371D01*
X119110935Y-49037371D02*
X119206173Y-48989752D01*
X119206173Y-48989752D02*
X119349030Y-48989752D01*
X119349030Y-48989752D02*
X119444268Y-49037371D01*
X119444268Y-49037371D02*
X119491887Y-49084990D01*
X119491887Y-49084990D02*
X119539506Y-49180228D01*
X119539506Y-49180228D02*
X119539506Y-49465942D01*
X119539506Y-49465942D02*
X119491887Y-49561180D01*
X119491887Y-49561180D02*
X119444268Y-49608800D01*
X119444268Y-49608800D02*
X119349030Y-49656419D01*
X119349030Y-49656419D02*
X119206173Y-49656419D01*
X119825221Y-48989752D02*
X120206173Y-48989752D01*
X119968078Y-48656419D02*
X119968078Y-49513561D01*
X119968078Y-49513561D02*
X120015697Y-49608800D01*
X120015697Y-49608800D02*
X120110935Y-49656419D01*
X120110935Y-49656419D02*
X120206173Y-49656419D01*
X121729983Y-48989752D02*
X121729983Y-49656419D01*
X121301412Y-48989752D02*
X121301412Y-49513561D01*
X121301412Y-49513561D02*
X121349031Y-49608800D01*
X121349031Y-49608800D02*
X121444269Y-49656419D01*
X121444269Y-49656419D02*
X121587126Y-49656419D01*
X121587126Y-49656419D02*
X121682364Y-49608800D01*
X121682364Y-49608800D02*
X121729983Y-49561180D01*
X122158555Y-49608800D02*
X122253793Y-49656419D01*
X122253793Y-49656419D02*
X122444269Y-49656419D01*
X122444269Y-49656419D02*
X122539507Y-49608800D01*
X122539507Y-49608800D02*
X122587126Y-49513561D01*
X122587126Y-49513561D02*
X122587126Y-49465942D01*
X122587126Y-49465942D02*
X122539507Y-49370704D01*
X122539507Y-49370704D02*
X122444269Y-49323085D01*
X122444269Y-49323085D02*
X122301412Y-49323085D01*
X122301412Y-49323085D02*
X122206174Y-49275466D01*
X122206174Y-49275466D02*
X122158555Y-49180228D01*
X122158555Y-49180228D02*
X122158555Y-49132609D01*
X122158555Y-49132609D02*
X122206174Y-49037371D01*
X122206174Y-49037371D02*
X122301412Y-48989752D01*
X122301412Y-48989752D02*
X122444269Y-48989752D01*
X122444269Y-48989752D02*
X122539507Y-49037371D01*
X123396650Y-49608800D02*
X123301412Y-49656419D01*
X123301412Y-49656419D02*
X123110936Y-49656419D01*
X123110936Y-49656419D02*
X123015698Y-49608800D01*
X123015698Y-49608800D02*
X122968079Y-49513561D01*
X122968079Y-49513561D02*
X122968079Y-49132609D01*
X122968079Y-49132609D02*
X123015698Y-49037371D01*
X123015698Y-49037371D02*
X123110936Y-48989752D01*
X123110936Y-48989752D02*
X123301412Y-48989752D01*
X123301412Y-48989752D02*
X123396650Y-49037371D01*
X123396650Y-49037371D02*
X123444269Y-49132609D01*
X123444269Y-49132609D02*
X123444269Y-49227847D01*
X123444269Y-49227847D02*
X122968079Y-49323085D01*
X124301412Y-49656419D02*
X124301412Y-48656419D01*
X124301412Y-49608800D02*
X124206174Y-49656419D01*
X124206174Y-49656419D02*
X124015698Y-49656419D01*
X124015698Y-49656419D02*
X123920460Y-49608800D01*
X123920460Y-49608800D02*
X123872841Y-49561180D01*
X123872841Y-49561180D02*
X123825222Y-49465942D01*
X123825222Y-49465942D02*
X123825222Y-49180228D01*
X123825222Y-49180228D02*
X123872841Y-49084990D01*
X123872841Y-49084990D02*
X123920460Y-49037371D01*
X123920460Y-49037371D02*
X124015698Y-48989752D01*
X124015698Y-48989752D02*
X124206174Y-48989752D01*
X124206174Y-48989752D02*
X124301412Y-49037371D01*
X124777603Y-49561180D02*
X124825222Y-49608800D01*
X124825222Y-49608800D02*
X124777603Y-49656419D01*
X124777603Y-49656419D02*
X124729984Y-49608800D01*
X124729984Y-49608800D02*
X124777603Y-49561180D01*
X124777603Y-49561180D02*
X124777603Y-49656419D01*
X94299693Y-41274419D02*
X93728265Y-41274419D01*
X94013979Y-41274419D02*
X94013979Y-40274419D01*
X94013979Y-40274419D02*
X93918741Y-40417276D01*
X93918741Y-40417276D02*
X93823503Y-40512514D01*
X93823503Y-40512514D02*
X93728265Y-40560133D01*
X101300646Y-152034419D02*
X101919693Y-152034419D01*
X101919693Y-152034419D02*
X101586360Y-152415371D01*
X101586360Y-152415371D02*
X101729217Y-152415371D01*
X101729217Y-152415371D02*
X101824455Y-152462990D01*
X101824455Y-152462990D02*
X101872074Y-152510609D01*
X101872074Y-152510609D02*
X101919693Y-152605847D01*
X101919693Y-152605847D02*
X101919693Y-152843942D01*
X101919693Y-152843942D02*
X101872074Y-152939180D01*
X101872074Y-152939180D02*
X101824455Y-152986800D01*
X101824455Y-152986800D02*
X101729217Y-153034419D01*
X101729217Y-153034419D02*
X101443503Y-153034419D01*
X101443503Y-153034419D02*
X101348265Y-152986800D01*
X101348265Y-152986800D02*
X101300646Y-152939180D01*
X102776836Y-152367752D02*
X102776836Y-153034419D01*
X102538741Y-151986800D02*
X102300646Y-152701085D01*
X102300646Y-152701085D02*
X102919693Y-152701085D01*
X161654609Y-109852782D02*
X161654609Y-110186115D01*
X162178419Y-110186115D02*
X161178419Y-110186115D01*
X161178419Y-110186115D02*
X161178419Y-109709925D01*
X162178419Y-108852782D02*
X162178419Y-109328972D01*
X162178419Y-109328972D02*
X161178419Y-109328972D01*
X161178419Y-108328972D02*
X161178419Y-108138496D01*
X161178419Y-108138496D02*
X161226038Y-108043258D01*
X161226038Y-108043258D02*
X161321276Y-107948020D01*
X161321276Y-107948020D02*
X161511752Y-107900401D01*
X161511752Y-107900401D02*
X161845085Y-107900401D01*
X161845085Y-107900401D02*
X162035561Y-107948020D01*
X162035561Y-107948020D02*
X162130800Y-108043258D01*
X162130800Y-108043258D02*
X162178419Y-108138496D01*
X162178419Y-108138496D02*
X162178419Y-108328972D01*
X162178419Y-108328972D02*
X162130800Y-108424210D01*
X162130800Y-108424210D02*
X162035561Y-108519448D01*
X162035561Y-108519448D02*
X161845085Y-108567067D01*
X161845085Y-108567067D02*
X161511752Y-108567067D01*
X161511752Y-108567067D02*
X161321276Y-108519448D01*
X161321276Y-108519448D02*
X161226038Y-108424210D01*
X161226038Y-108424210D02*
X161178419Y-108328972D01*
X162178419Y-107471829D02*
X161178419Y-107471829D01*
X161178419Y-107471829D02*
X161178419Y-107090877D01*
X161178419Y-107090877D02*
X161226038Y-106995639D01*
X161226038Y-106995639D02*
X161273657Y-106948020D01*
X161273657Y-106948020D02*
X161368895Y-106900401D01*
X161368895Y-106900401D02*
X161511752Y-106900401D01*
X161511752Y-106900401D02*
X161606990Y-106948020D01*
X161606990Y-106948020D02*
X161654609Y-106995639D01*
X161654609Y-106995639D02*
X161702228Y-107090877D01*
X161702228Y-107090877D02*
X161702228Y-107471829D01*
X162178419Y-106471829D02*
X161178419Y-106471829D01*
X161178419Y-106471829D02*
X161178419Y-106090877D01*
X161178419Y-106090877D02*
X161226038Y-105995639D01*
X161226038Y-105995639D02*
X161273657Y-105948020D01*
X161273657Y-105948020D02*
X161368895Y-105900401D01*
X161368895Y-105900401D02*
X161511752Y-105900401D01*
X161511752Y-105900401D02*
X161606990Y-105948020D01*
X161606990Y-105948020D02*
X161654609Y-105995639D01*
X161654609Y-105995639D02*
X161702228Y-106090877D01*
X161702228Y-106090877D02*
X161702228Y-106471829D01*
X161702228Y-105281353D02*
X162178419Y-105281353D01*
X161178419Y-105614686D02*
X161702228Y-105281353D01*
X161702228Y-105281353D02*
X161178419Y-104948020D01*
X162178419Y-103852781D02*
X161178419Y-103852781D01*
X161178419Y-103852781D02*
X161178419Y-103614686D01*
X161178419Y-103614686D02*
X161226038Y-103471829D01*
X161226038Y-103471829D02*
X161321276Y-103376591D01*
X161321276Y-103376591D02*
X161416514Y-103328972D01*
X161416514Y-103328972D02*
X161606990Y-103281353D01*
X161606990Y-103281353D02*
X161749847Y-103281353D01*
X161749847Y-103281353D02*
X161940323Y-103328972D01*
X161940323Y-103328972D02*
X162035561Y-103376591D01*
X162035561Y-103376591D02*
X162130800Y-103471829D01*
X162130800Y-103471829D02*
X162178419Y-103614686D01*
X162178419Y-103614686D02*
X162178419Y-103852781D01*
X162178419Y-102281353D02*
X161702228Y-102614686D01*
X162178419Y-102852781D02*
X161178419Y-102852781D01*
X161178419Y-102852781D02*
X161178419Y-102471829D01*
X161178419Y-102471829D02*
X161226038Y-102376591D01*
X161226038Y-102376591D02*
X161273657Y-102328972D01*
X161273657Y-102328972D02*
X161368895Y-102281353D01*
X161368895Y-102281353D02*
X161511752Y-102281353D01*
X161511752Y-102281353D02*
X161606990Y-102328972D01*
X161606990Y-102328972D02*
X161654609Y-102376591D01*
X161654609Y-102376591D02*
X161702228Y-102471829D01*
X161702228Y-102471829D02*
X161702228Y-102852781D01*
X162178419Y-101852781D02*
X161178419Y-101852781D01*
X161178419Y-101519448D02*
X162178419Y-101186115D01*
X162178419Y-101186115D02*
X161178419Y-100852782D01*
X161654609Y-100519448D02*
X161654609Y-100186115D01*
X162178419Y-100043258D02*
X162178419Y-100519448D01*
X162178419Y-100519448D02*
X161178419Y-100519448D01*
X161178419Y-100519448D02*
X161178419Y-100043258D01*
X162130800Y-99662305D02*
X162178419Y-99519448D01*
X162178419Y-99519448D02*
X162178419Y-99281353D01*
X162178419Y-99281353D02*
X162130800Y-99186115D01*
X162130800Y-99186115D02*
X162083180Y-99138496D01*
X162083180Y-99138496D02*
X161987942Y-99090877D01*
X161987942Y-99090877D02*
X161892704Y-99090877D01*
X161892704Y-99090877D02*
X161797466Y-99138496D01*
X161797466Y-99138496D02*
X161749847Y-99186115D01*
X161749847Y-99186115D02*
X161702228Y-99281353D01*
X161702228Y-99281353D02*
X161654609Y-99471829D01*
X161654609Y-99471829D02*
X161606990Y-99567067D01*
X161606990Y-99567067D02*
X161559371Y-99614686D01*
X161559371Y-99614686D02*
X161464133Y-99662305D01*
X161464133Y-99662305D02*
X161368895Y-99662305D01*
X161368895Y-99662305D02*
X161273657Y-99614686D01*
X161273657Y-99614686D02*
X161226038Y-99567067D01*
X161226038Y-99567067D02*
X161178419Y-99471829D01*
X161178419Y-99471829D02*
X161178419Y-99233734D01*
X161178419Y-99233734D02*
X161226038Y-99090877D01*
X161178419Y-97709924D02*
X161178419Y-97519448D01*
X161178419Y-97519448D02*
X161226038Y-97424210D01*
X161226038Y-97424210D02*
X161321276Y-97328972D01*
X161321276Y-97328972D02*
X161511752Y-97281353D01*
X161511752Y-97281353D02*
X161845085Y-97281353D01*
X161845085Y-97281353D02*
X162035561Y-97328972D01*
X162035561Y-97328972D02*
X162130800Y-97424210D01*
X162130800Y-97424210D02*
X162178419Y-97519448D01*
X162178419Y-97519448D02*
X162178419Y-97709924D01*
X162178419Y-97709924D02*
X162130800Y-97805162D01*
X162130800Y-97805162D02*
X162035561Y-97900400D01*
X162035561Y-97900400D02*
X161845085Y-97948019D01*
X161845085Y-97948019D02*
X161511752Y-97948019D01*
X161511752Y-97948019D02*
X161321276Y-97900400D01*
X161321276Y-97900400D02*
X161226038Y-97805162D01*
X161226038Y-97805162D02*
X161178419Y-97709924D01*
X162178419Y-96852781D02*
X161178419Y-96852781D01*
X161178419Y-96852781D02*
X162178419Y-96281353D01*
X162178419Y-96281353D02*
X161178419Y-96281353D01*
X162178419Y-95328972D02*
X162178419Y-95805162D01*
X162178419Y-95805162D02*
X161178419Y-95805162D01*
X161702228Y-94805162D02*
X162178419Y-94805162D01*
X161178419Y-95138495D02*
X161702228Y-94805162D01*
X161702228Y-94805162D02*
X161178419Y-94471829D01*
X162559371Y-93090876D02*
X162511752Y-93138495D01*
X162511752Y-93138495D02*
X162368895Y-93233733D01*
X162368895Y-93233733D02*
X162273657Y-93281352D01*
X162273657Y-93281352D02*
X162130800Y-93328971D01*
X162130800Y-93328971D02*
X161892704Y-93376590D01*
X161892704Y-93376590D02*
X161702228Y-93376590D01*
X161702228Y-93376590D02*
X161464133Y-93328971D01*
X161464133Y-93328971D02*
X161321276Y-93281352D01*
X161321276Y-93281352D02*
X161226038Y-93233733D01*
X161226038Y-93233733D02*
X161083180Y-93138495D01*
X161083180Y-93138495D02*
X161035561Y-93090876D01*
X162178419Y-92709923D02*
X161178419Y-92709923D01*
X161178419Y-92709923D02*
X162178419Y-92138495D01*
X162178419Y-92138495D02*
X161178419Y-92138495D01*
X162178419Y-91519447D02*
X162130800Y-91614685D01*
X162130800Y-91614685D02*
X162083180Y-91662304D01*
X162083180Y-91662304D02*
X161987942Y-91709923D01*
X161987942Y-91709923D02*
X161702228Y-91709923D01*
X161702228Y-91709923D02*
X161606990Y-91662304D01*
X161606990Y-91662304D02*
X161559371Y-91614685D01*
X161559371Y-91614685D02*
X161511752Y-91519447D01*
X161511752Y-91519447D02*
X161511752Y-91376590D01*
X161511752Y-91376590D02*
X161559371Y-91281352D01*
X161559371Y-91281352D02*
X161606990Y-91233733D01*
X161606990Y-91233733D02*
X161702228Y-91186114D01*
X161702228Y-91186114D02*
X161987942Y-91186114D01*
X161987942Y-91186114D02*
X162083180Y-91233733D01*
X162083180Y-91233733D02*
X162130800Y-91281352D01*
X162130800Y-91281352D02*
X162178419Y-91376590D01*
X162178419Y-91376590D02*
X162178419Y-91519447D01*
X162178419Y-89995637D02*
X161178419Y-89995637D01*
X161178419Y-89995637D02*
X161178419Y-89614685D01*
X161178419Y-89614685D02*
X161226038Y-89519447D01*
X161226038Y-89519447D02*
X161273657Y-89471828D01*
X161273657Y-89471828D02*
X161368895Y-89424209D01*
X161368895Y-89424209D02*
X161511752Y-89424209D01*
X161511752Y-89424209D02*
X161606990Y-89471828D01*
X161606990Y-89471828D02*
X161654609Y-89519447D01*
X161654609Y-89519447D02*
X161702228Y-89614685D01*
X161702228Y-89614685D02*
X161702228Y-89995637D01*
X162083180Y-88424209D02*
X162130800Y-88471828D01*
X162130800Y-88471828D02*
X162178419Y-88614685D01*
X162178419Y-88614685D02*
X162178419Y-88709923D01*
X162178419Y-88709923D02*
X162130800Y-88852780D01*
X162130800Y-88852780D02*
X162035561Y-88948018D01*
X162035561Y-88948018D02*
X161940323Y-88995637D01*
X161940323Y-88995637D02*
X161749847Y-89043256D01*
X161749847Y-89043256D02*
X161606990Y-89043256D01*
X161606990Y-89043256D02*
X161416514Y-88995637D01*
X161416514Y-88995637D02*
X161321276Y-88948018D01*
X161321276Y-88948018D02*
X161226038Y-88852780D01*
X161226038Y-88852780D02*
X161178419Y-88709923D01*
X161178419Y-88709923D02*
X161178419Y-88614685D01*
X161178419Y-88614685D02*
X161226038Y-88471828D01*
X161226038Y-88471828D02*
X161273657Y-88424209D01*
X162130800Y-88043256D02*
X162178419Y-87948018D01*
X162178419Y-87948018D02*
X162178419Y-87757542D01*
X162178419Y-87757542D02*
X162130800Y-87662304D01*
X162130800Y-87662304D02*
X162035561Y-87614685D01*
X162035561Y-87614685D02*
X161987942Y-87614685D01*
X161987942Y-87614685D02*
X161892704Y-87662304D01*
X161892704Y-87662304D02*
X161845085Y-87757542D01*
X161845085Y-87757542D02*
X161845085Y-87900399D01*
X161845085Y-87900399D02*
X161797466Y-87995637D01*
X161797466Y-87995637D02*
X161702228Y-88043256D01*
X161702228Y-88043256D02*
X161654609Y-88043256D01*
X161654609Y-88043256D02*
X161559371Y-87995637D01*
X161559371Y-87995637D02*
X161511752Y-87900399D01*
X161511752Y-87900399D02*
X161511752Y-87757542D01*
X161511752Y-87757542D02*
X161559371Y-87662304D01*
X161511752Y-86567065D02*
X161511752Y-86186113D01*
X161178419Y-86424208D02*
X162035561Y-86424208D01*
X162035561Y-86424208D02*
X162130800Y-86376589D01*
X162130800Y-86376589D02*
X162178419Y-86281351D01*
X162178419Y-86281351D02*
X162178419Y-86186113D01*
X162178419Y-85852779D02*
X161178419Y-85852779D01*
X162178419Y-85424208D02*
X161654609Y-85424208D01*
X161654609Y-85424208D02*
X161559371Y-85471827D01*
X161559371Y-85471827D02*
X161511752Y-85567065D01*
X161511752Y-85567065D02*
X161511752Y-85709922D01*
X161511752Y-85709922D02*
X161559371Y-85805160D01*
X161559371Y-85805160D02*
X161606990Y-85852779D01*
X162178419Y-84948017D02*
X161511752Y-84948017D01*
X161178419Y-84948017D02*
X161226038Y-84995636D01*
X161226038Y-84995636D02*
X161273657Y-84948017D01*
X161273657Y-84948017D02*
X161226038Y-84900398D01*
X161226038Y-84900398D02*
X161178419Y-84948017D01*
X161178419Y-84948017D02*
X161273657Y-84948017D01*
X162130800Y-84519446D02*
X162178419Y-84424208D01*
X162178419Y-84424208D02*
X162178419Y-84233732D01*
X162178419Y-84233732D02*
X162130800Y-84138494D01*
X162130800Y-84138494D02*
X162035561Y-84090875D01*
X162035561Y-84090875D02*
X161987942Y-84090875D01*
X161987942Y-84090875D02*
X161892704Y-84138494D01*
X161892704Y-84138494D02*
X161845085Y-84233732D01*
X161845085Y-84233732D02*
X161845085Y-84376589D01*
X161845085Y-84376589D02*
X161797466Y-84471827D01*
X161797466Y-84471827D02*
X161702228Y-84519446D01*
X161702228Y-84519446D02*
X161654609Y-84519446D01*
X161654609Y-84519446D02*
X161559371Y-84471827D01*
X161559371Y-84471827D02*
X161511752Y-84376589D01*
X161511752Y-84376589D02*
X161511752Y-84233732D01*
X161511752Y-84233732D02*
X161559371Y-84138494D01*
X162130800Y-82948017D02*
X162178419Y-82852779D01*
X162178419Y-82852779D02*
X162178419Y-82662303D01*
X162178419Y-82662303D02*
X162130800Y-82567065D01*
X162130800Y-82567065D02*
X162035561Y-82519446D01*
X162035561Y-82519446D02*
X161987942Y-82519446D01*
X161987942Y-82519446D02*
X161892704Y-82567065D01*
X161892704Y-82567065D02*
X161845085Y-82662303D01*
X161845085Y-82662303D02*
X161845085Y-82805160D01*
X161845085Y-82805160D02*
X161797466Y-82900398D01*
X161797466Y-82900398D02*
X161702228Y-82948017D01*
X161702228Y-82948017D02*
X161654609Y-82948017D01*
X161654609Y-82948017D02*
X161559371Y-82900398D01*
X161559371Y-82900398D02*
X161511752Y-82805160D01*
X161511752Y-82805160D02*
X161511752Y-82662303D01*
X161511752Y-82662303D02*
X161559371Y-82567065D01*
X162178419Y-82090874D02*
X161511752Y-82090874D01*
X161178419Y-82090874D02*
X161226038Y-82138493D01*
X161226038Y-82138493D02*
X161273657Y-82090874D01*
X161273657Y-82090874D02*
X161226038Y-82043255D01*
X161226038Y-82043255D02*
X161178419Y-82090874D01*
X161178419Y-82090874D02*
X161273657Y-82090874D01*
X162178419Y-81186113D02*
X161178419Y-81186113D01*
X162130800Y-81186113D02*
X162178419Y-81281351D01*
X162178419Y-81281351D02*
X162178419Y-81471827D01*
X162178419Y-81471827D02*
X162130800Y-81567065D01*
X162130800Y-81567065D02*
X162083180Y-81614684D01*
X162083180Y-81614684D02*
X161987942Y-81662303D01*
X161987942Y-81662303D02*
X161702228Y-81662303D01*
X161702228Y-81662303D02*
X161606990Y-81614684D01*
X161606990Y-81614684D02*
X161559371Y-81567065D01*
X161559371Y-81567065D02*
X161511752Y-81471827D01*
X161511752Y-81471827D02*
X161511752Y-81281351D01*
X161511752Y-81281351D02*
X161559371Y-81186113D01*
X162130800Y-80328970D02*
X162178419Y-80424208D01*
X162178419Y-80424208D02*
X162178419Y-80614684D01*
X162178419Y-80614684D02*
X162130800Y-80709922D01*
X162130800Y-80709922D02*
X162035561Y-80757541D01*
X162035561Y-80757541D02*
X161654609Y-80757541D01*
X161654609Y-80757541D02*
X161559371Y-80709922D01*
X161559371Y-80709922D02*
X161511752Y-80614684D01*
X161511752Y-80614684D02*
X161511752Y-80424208D01*
X161511752Y-80424208D02*
X161559371Y-80328970D01*
X161559371Y-80328970D02*
X161654609Y-80281351D01*
X161654609Y-80281351D02*
X161749847Y-80281351D01*
X161749847Y-80281351D02*
X161845085Y-80757541D01*
X162559371Y-79948017D02*
X162511752Y-79900398D01*
X162511752Y-79900398D02*
X162368895Y-79805160D01*
X162368895Y-79805160D02*
X162273657Y-79757541D01*
X162273657Y-79757541D02*
X162130800Y-79709922D01*
X162130800Y-79709922D02*
X161892704Y-79662303D01*
X161892704Y-79662303D02*
X161702228Y-79662303D01*
X161702228Y-79662303D02*
X161464133Y-79709922D01*
X161464133Y-79709922D02*
X161321276Y-79757541D01*
X161321276Y-79757541D02*
X161226038Y-79805160D01*
X161226038Y-79805160D02*
X161083180Y-79900398D01*
X161083180Y-79900398D02*
X161035561Y-79948017D01*
X92233180Y-110122687D02*
X92280800Y-110170306D01*
X92280800Y-110170306D02*
X92328419Y-110313163D01*
X92328419Y-110313163D02*
X92328419Y-110408401D01*
X92328419Y-110408401D02*
X92280800Y-110551258D01*
X92280800Y-110551258D02*
X92185561Y-110646496D01*
X92185561Y-110646496D02*
X92090323Y-110694115D01*
X92090323Y-110694115D02*
X91899847Y-110741734D01*
X91899847Y-110741734D02*
X91756990Y-110741734D01*
X91756990Y-110741734D02*
X91566514Y-110694115D01*
X91566514Y-110694115D02*
X91471276Y-110646496D01*
X91471276Y-110646496D02*
X91376038Y-110551258D01*
X91376038Y-110551258D02*
X91328419Y-110408401D01*
X91328419Y-110408401D02*
X91328419Y-110313163D01*
X91328419Y-110313163D02*
X91376038Y-110170306D01*
X91376038Y-110170306D02*
X91423657Y-110122687D01*
X91328419Y-109503639D02*
X91328419Y-109313163D01*
X91328419Y-109313163D02*
X91376038Y-109217925D01*
X91376038Y-109217925D02*
X91471276Y-109122687D01*
X91471276Y-109122687D02*
X91661752Y-109075068D01*
X91661752Y-109075068D02*
X91995085Y-109075068D01*
X91995085Y-109075068D02*
X92185561Y-109122687D01*
X92185561Y-109122687D02*
X92280800Y-109217925D01*
X92280800Y-109217925D02*
X92328419Y-109313163D01*
X92328419Y-109313163D02*
X92328419Y-109503639D01*
X92328419Y-109503639D02*
X92280800Y-109598877D01*
X92280800Y-109598877D02*
X92185561Y-109694115D01*
X92185561Y-109694115D02*
X91995085Y-109741734D01*
X91995085Y-109741734D02*
X91661752Y-109741734D01*
X91661752Y-109741734D02*
X91471276Y-109694115D01*
X91471276Y-109694115D02*
X91376038Y-109598877D01*
X91376038Y-109598877D02*
X91328419Y-109503639D01*
X92328419Y-108646496D02*
X91328419Y-108646496D01*
X91328419Y-108646496D02*
X92042704Y-108313163D01*
X92042704Y-108313163D02*
X91328419Y-107979830D01*
X91328419Y-107979830D02*
X92328419Y-107979830D01*
X92328419Y-107503639D02*
X91328419Y-107503639D01*
X91328419Y-107503639D02*
X91328419Y-107122687D01*
X91328419Y-107122687D02*
X91376038Y-107027449D01*
X91376038Y-107027449D02*
X91423657Y-106979830D01*
X91423657Y-106979830D02*
X91518895Y-106932211D01*
X91518895Y-106932211D02*
X91661752Y-106932211D01*
X91661752Y-106932211D02*
X91756990Y-106979830D01*
X91756990Y-106979830D02*
X91804609Y-107027449D01*
X91804609Y-107027449D02*
X91852228Y-107122687D01*
X91852228Y-107122687D02*
X91852228Y-107503639D01*
X91328419Y-106503639D02*
X92137942Y-106503639D01*
X92137942Y-106503639D02*
X92233180Y-106456020D01*
X92233180Y-106456020D02*
X92280800Y-106408401D01*
X92280800Y-106408401D02*
X92328419Y-106313163D01*
X92328419Y-106313163D02*
X92328419Y-106122687D01*
X92328419Y-106122687D02*
X92280800Y-106027449D01*
X92280800Y-106027449D02*
X92233180Y-105979830D01*
X92233180Y-105979830D02*
X92137942Y-105932211D01*
X92137942Y-105932211D02*
X91328419Y-105932211D01*
X91328419Y-105598877D02*
X91328419Y-105027449D01*
X92328419Y-105313163D02*
X91328419Y-105313163D01*
X91804609Y-104694115D02*
X91804609Y-104360782D01*
X92328419Y-104217925D02*
X92328419Y-104694115D01*
X92328419Y-104694115D02*
X91328419Y-104694115D01*
X91328419Y-104694115D02*
X91328419Y-104217925D01*
X92328419Y-103217925D02*
X91852228Y-103551258D01*
X92328419Y-103789353D02*
X91328419Y-103789353D01*
X91328419Y-103789353D02*
X91328419Y-103408401D01*
X91328419Y-103408401D02*
X91376038Y-103313163D01*
X91376038Y-103313163D02*
X91423657Y-103265544D01*
X91423657Y-103265544D02*
X91518895Y-103217925D01*
X91518895Y-103217925D02*
X91661752Y-103217925D01*
X91661752Y-103217925D02*
X91756990Y-103265544D01*
X91756990Y-103265544D02*
X91804609Y-103313163D01*
X91804609Y-103313163D02*
X91852228Y-103408401D01*
X91852228Y-103408401D02*
X91852228Y-103789353D01*
X91328419Y-101836972D02*
X91328419Y-101646496D01*
X91328419Y-101646496D02*
X91376038Y-101551258D01*
X91376038Y-101551258D02*
X91471276Y-101456020D01*
X91471276Y-101456020D02*
X91661752Y-101408401D01*
X91661752Y-101408401D02*
X91995085Y-101408401D01*
X91995085Y-101408401D02*
X92185561Y-101456020D01*
X92185561Y-101456020D02*
X92280800Y-101551258D01*
X92280800Y-101551258D02*
X92328419Y-101646496D01*
X92328419Y-101646496D02*
X92328419Y-101836972D01*
X92328419Y-101836972D02*
X92280800Y-101932210D01*
X92280800Y-101932210D02*
X92185561Y-102027448D01*
X92185561Y-102027448D02*
X91995085Y-102075067D01*
X91995085Y-102075067D02*
X91661752Y-102075067D01*
X91661752Y-102075067D02*
X91471276Y-102027448D01*
X91471276Y-102027448D02*
X91376038Y-101932210D01*
X91376038Y-101932210D02*
X91328419Y-101836972D01*
X92328419Y-100979829D02*
X91328419Y-100979829D01*
X91328419Y-100979829D02*
X92328419Y-100408401D01*
X92328419Y-100408401D02*
X91328419Y-100408401D01*
X92328419Y-99456020D02*
X92328419Y-99932210D01*
X92328419Y-99932210D02*
X91328419Y-99932210D01*
X91852228Y-98932210D02*
X92328419Y-98932210D01*
X91328419Y-99265543D02*
X91852228Y-98932210D01*
X91852228Y-98932210D02*
X91328419Y-98598877D01*
X92709371Y-96456019D02*
X92661752Y-96503638D01*
X92661752Y-96503638D02*
X92518895Y-96598876D01*
X92518895Y-96598876D02*
X92423657Y-96646495D01*
X92423657Y-96646495D02*
X92280800Y-96694114D01*
X92280800Y-96694114D02*
X92042704Y-96741733D01*
X92042704Y-96741733D02*
X91852228Y-96741733D01*
X91852228Y-96741733D02*
X91614133Y-96694114D01*
X91614133Y-96694114D02*
X91471276Y-96646495D01*
X91471276Y-96646495D02*
X91376038Y-96598876D01*
X91376038Y-96598876D02*
X91233180Y-96503638D01*
X91233180Y-96503638D02*
X91185561Y-96456019D01*
X91661752Y-96075066D02*
X92328419Y-96075066D01*
X91756990Y-96075066D02*
X91709371Y-96027447D01*
X91709371Y-96027447D02*
X91661752Y-95932209D01*
X91661752Y-95932209D02*
X91661752Y-95789352D01*
X91661752Y-95789352D02*
X91709371Y-95694114D01*
X91709371Y-95694114D02*
X91804609Y-95646495D01*
X91804609Y-95646495D02*
X92328419Y-95646495D01*
X92328419Y-95027447D02*
X92280800Y-95122685D01*
X92280800Y-95122685D02*
X92233180Y-95170304D01*
X92233180Y-95170304D02*
X92137942Y-95217923D01*
X92137942Y-95217923D02*
X91852228Y-95217923D01*
X91852228Y-95217923D02*
X91756990Y-95170304D01*
X91756990Y-95170304D02*
X91709371Y-95122685D01*
X91709371Y-95122685D02*
X91661752Y-95027447D01*
X91661752Y-95027447D02*
X91661752Y-94884590D01*
X91661752Y-94884590D02*
X91709371Y-94789352D01*
X91709371Y-94789352D02*
X91756990Y-94741733D01*
X91756990Y-94741733D02*
X91852228Y-94694114D01*
X91852228Y-94694114D02*
X92137942Y-94694114D01*
X92137942Y-94694114D02*
X92233180Y-94741733D01*
X92233180Y-94741733D02*
X92280800Y-94789352D01*
X92280800Y-94789352D02*
X92328419Y-94884590D01*
X92328419Y-94884590D02*
X92328419Y-95027447D01*
X92328419Y-93075066D02*
X91328419Y-93075066D01*
X92280800Y-93075066D02*
X92328419Y-93170304D01*
X92328419Y-93170304D02*
X92328419Y-93360780D01*
X92328419Y-93360780D02*
X92280800Y-93456018D01*
X92280800Y-93456018D02*
X92233180Y-93503637D01*
X92233180Y-93503637D02*
X92137942Y-93551256D01*
X92137942Y-93551256D02*
X91852228Y-93551256D01*
X91852228Y-93551256D02*
X91756990Y-93503637D01*
X91756990Y-93503637D02*
X91709371Y-93456018D01*
X91709371Y-93456018D02*
X91661752Y-93360780D01*
X91661752Y-93360780D02*
X91661752Y-93170304D01*
X91661752Y-93170304D02*
X91709371Y-93075066D01*
X92328419Y-92598875D02*
X91661752Y-92598875D01*
X91852228Y-92598875D02*
X91756990Y-92551256D01*
X91756990Y-92551256D02*
X91709371Y-92503637D01*
X91709371Y-92503637D02*
X91661752Y-92408399D01*
X91661752Y-92408399D02*
X91661752Y-92313161D01*
X92328419Y-91979827D02*
X91661752Y-91979827D01*
X91328419Y-91979827D02*
X91376038Y-92027446D01*
X91376038Y-92027446D02*
X91423657Y-91979827D01*
X91423657Y-91979827D02*
X91376038Y-91932208D01*
X91376038Y-91932208D02*
X91328419Y-91979827D01*
X91328419Y-91979827D02*
X91423657Y-91979827D01*
X91661752Y-91598875D02*
X92328419Y-91360780D01*
X92328419Y-91360780D02*
X91661752Y-91122685D01*
X92280800Y-90360780D02*
X92328419Y-90456018D01*
X92328419Y-90456018D02*
X92328419Y-90646494D01*
X92328419Y-90646494D02*
X92280800Y-90741732D01*
X92280800Y-90741732D02*
X92185561Y-90789351D01*
X92185561Y-90789351D02*
X91804609Y-90789351D01*
X91804609Y-90789351D02*
X91709371Y-90741732D01*
X91709371Y-90741732D02*
X91661752Y-90646494D01*
X91661752Y-90646494D02*
X91661752Y-90456018D01*
X91661752Y-90456018D02*
X91709371Y-90360780D01*
X91709371Y-90360780D02*
X91804609Y-90313161D01*
X91804609Y-90313161D02*
X91899847Y-90313161D01*
X91899847Y-90313161D02*
X91995085Y-90789351D01*
X92280800Y-89932208D02*
X92328419Y-89836970D01*
X92328419Y-89836970D02*
X92328419Y-89646494D01*
X92328419Y-89646494D02*
X92280800Y-89551256D01*
X92280800Y-89551256D02*
X92185561Y-89503637D01*
X92185561Y-89503637D02*
X92137942Y-89503637D01*
X92137942Y-89503637D02*
X92042704Y-89551256D01*
X92042704Y-89551256D02*
X91995085Y-89646494D01*
X91995085Y-89646494D02*
X91995085Y-89789351D01*
X91995085Y-89789351D02*
X91947466Y-89884589D01*
X91947466Y-89884589D02*
X91852228Y-89932208D01*
X91852228Y-89932208D02*
X91804609Y-89932208D01*
X91804609Y-89932208D02*
X91709371Y-89884589D01*
X91709371Y-89884589D02*
X91661752Y-89789351D01*
X91661752Y-89789351D02*
X91661752Y-89646494D01*
X91661752Y-89646494D02*
X91709371Y-89551256D01*
X91661752Y-88456017D02*
X91661752Y-88075065D01*
X91328419Y-88313160D02*
X92185561Y-88313160D01*
X92185561Y-88313160D02*
X92280800Y-88265541D01*
X92280800Y-88265541D02*
X92328419Y-88170303D01*
X92328419Y-88170303D02*
X92328419Y-88075065D01*
X92328419Y-87741731D02*
X91328419Y-87741731D01*
X92328419Y-87313160D02*
X91804609Y-87313160D01*
X91804609Y-87313160D02*
X91709371Y-87360779D01*
X91709371Y-87360779D02*
X91661752Y-87456017D01*
X91661752Y-87456017D02*
X91661752Y-87598874D01*
X91661752Y-87598874D02*
X91709371Y-87694112D01*
X91709371Y-87694112D02*
X91756990Y-87741731D01*
X92328419Y-86836969D02*
X91661752Y-86836969D01*
X91328419Y-86836969D02*
X91376038Y-86884588D01*
X91376038Y-86884588D02*
X91423657Y-86836969D01*
X91423657Y-86836969D02*
X91376038Y-86789350D01*
X91376038Y-86789350D02*
X91328419Y-86836969D01*
X91328419Y-86836969D02*
X91423657Y-86836969D01*
X92280800Y-86408398D02*
X92328419Y-86313160D01*
X92328419Y-86313160D02*
X92328419Y-86122684D01*
X92328419Y-86122684D02*
X92280800Y-86027446D01*
X92280800Y-86027446D02*
X92185561Y-85979827D01*
X92185561Y-85979827D02*
X92137942Y-85979827D01*
X92137942Y-85979827D02*
X92042704Y-86027446D01*
X92042704Y-86027446D02*
X91995085Y-86122684D01*
X91995085Y-86122684D02*
X91995085Y-86265541D01*
X91995085Y-86265541D02*
X91947466Y-86360779D01*
X91947466Y-86360779D02*
X91852228Y-86408398D01*
X91852228Y-86408398D02*
X91804609Y-86408398D01*
X91804609Y-86408398D02*
X91709371Y-86360779D01*
X91709371Y-86360779D02*
X91661752Y-86265541D01*
X91661752Y-86265541D02*
X91661752Y-86122684D01*
X91661752Y-86122684D02*
X91709371Y-86027446D01*
X92280800Y-84836969D02*
X92328419Y-84741731D01*
X92328419Y-84741731D02*
X92328419Y-84551255D01*
X92328419Y-84551255D02*
X92280800Y-84456017D01*
X92280800Y-84456017D02*
X92185561Y-84408398D01*
X92185561Y-84408398D02*
X92137942Y-84408398D01*
X92137942Y-84408398D02*
X92042704Y-84456017D01*
X92042704Y-84456017D02*
X91995085Y-84551255D01*
X91995085Y-84551255D02*
X91995085Y-84694112D01*
X91995085Y-84694112D02*
X91947466Y-84789350D01*
X91947466Y-84789350D02*
X91852228Y-84836969D01*
X91852228Y-84836969D02*
X91804609Y-84836969D01*
X91804609Y-84836969D02*
X91709371Y-84789350D01*
X91709371Y-84789350D02*
X91661752Y-84694112D01*
X91661752Y-84694112D02*
X91661752Y-84551255D01*
X91661752Y-84551255D02*
X91709371Y-84456017D01*
X92328419Y-83979826D02*
X91661752Y-83979826D01*
X91328419Y-83979826D02*
X91376038Y-84027445D01*
X91376038Y-84027445D02*
X91423657Y-83979826D01*
X91423657Y-83979826D02*
X91376038Y-83932207D01*
X91376038Y-83932207D02*
X91328419Y-83979826D01*
X91328419Y-83979826D02*
X91423657Y-83979826D01*
X92328419Y-83075065D02*
X91328419Y-83075065D01*
X92280800Y-83075065D02*
X92328419Y-83170303D01*
X92328419Y-83170303D02*
X92328419Y-83360779D01*
X92328419Y-83360779D02*
X92280800Y-83456017D01*
X92280800Y-83456017D02*
X92233180Y-83503636D01*
X92233180Y-83503636D02*
X92137942Y-83551255D01*
X92137942Y-83551255D02*
X91852228Y-83551255D01*
X91852228Y-83551255D02*
X91756990Y-83503636D01*
X91756990Y-83503636D02*
X91709371Y-83456017D01*
X91709371Y-83456017D02*
X91661752Y-83360779D01*
X91661752Y-83360779D02*
X91661752Y-83170303D01*
X91661752Y-83170303D02*
X91709371Y-83075065D01*
X92280800Y-82217922D02*
X92328419Y-82313160D01*
X92328419Y-82313160D02*
X92328419Y-82503636D01*
X92328419Y-82503636D02*
X92280800Y-82598874D01*
X92280800Y-82598874D02*
X92185561Y-82646493D01*
X92185561Y-82646493D02*
X91804609Y-82646493D01*
X91804609Y-82646493D02*
X91709371Y-82598874D01*
X91709371Y-82598874D02*
X91661752Y-82503636D01*
X91661752Y-82503636D02*
X91661752Y-82313160D01*
X91661752Y-82313160D02*
X91709371Y-82217922D01*
X91709371Y-82217922D02*
X91804609Y-82170303D01*
X91804609Y-82170303D02*
X91899847Y-82170303D01*
X91899847Y-82170303D02*
X91995085Y-82646493D01*
X92709371Y-81836969D02*
X92661752Y-81789350D01*
X92661752Y-81789350D02*
X92518895Y-81694112D01*
X92518895Y-81694112D02*
X92423657Y-81646493D01*
X92423657Y-81646493D02*
X92280800Y-81598874D01*
X92280800Y-81598874D02*
X92042704Y-81551255D01*
X92042704Y-81551255D02*
X91852228Y-81551255D01*
X91852228Y-81551255D02*
X91614133Y-81598874D01*
X91614133Y-81598874D02*
X91471276Y-81646493D01*
X91471276Y-81646493D02*
X91376038Y-81694112D01*
X91376038Y-81694112D02*
X91233180Y-81789350D01*
X91233180Y-81789350D02*
X91185561Y-81836969D01*
X126380419Y-107995353D02*
X126380419Y-107328687D01*
X126380419Y-107328687D02*
X127380419Y-107757258D01*
X126713752Y-106519163D02*
X127380419Y-106519163D01*
X126332800Y-106757258D02*
X127047085Y-106995353D01*
X127047085Y-106995353D02*
X127047085Y-106376306D01*
X127380419Y-105519163D02*
X127380419Y-105995353D01*
X127380419Y-105995353D02*
X126380419Y-105995353D01*
X127332800Y-105233448D02*
X127380419Y-105090591D01*
X127380419Y-105090591D02*
X127380419Y-104852496D01*
X127380419Y-104852496D02*
X127332800Y-104757258D01*
X127332800Y-104757258D02*
X127285180Y-104709639D01*
X127285180Y-104709639D02*
X127189942Y-104662020D01*
X127189942Y-104662020D02*
X127094704Y-104662020D01*
X127094704Y-104662020D02*
X126999466Y-104709639D01*
X126999466Y-104709639D02*
X126951847Y-104757258D01*
X126951847Y-104757258D02*
X126904228Y-104852496D01*
X126904228Y-104852496D02*
X126856609Y-105042972D01*
X126856609Y-105042972D02*
X126808990Y-105138210D01*
X126808990Y-105138210D02*
X126761371Y-105185829D01*
X126761371Y-105185829D02*
X126666133Y-105233448D01*
X126666133Y-105233448D02*
X126570895Y-105233448D01*
X126570895Y-105233448D02*
X126475657Y-105185829D01*
X126475657Y-105185829D02*
X126428038Y-105138210D01*
X126428038Y-105138210D02*
X126380419Y-105042972D01*
X126380419Y-105042972D02*
X126380419Y-104804877D01*
X126380419Y-104804877D02*
X126428038Y-104662020D01*
X126380419Y-104328686D02*
X126380419Y-103709639D01*
X126380419Y-103709639D02*
X126761371Y-104042972D01*
X126761371Y-104042972D02*
X126761371Y-103900115D01*
X126761371Y-103900115D02*
X126808990Y-103804877D01*
X126808990Y-103804877D02*
X126856609Y-103757258D01*
X126856609Y-103757258D02*
X126951847Y-103709639D01*
X126951847Y-103709639D02*
X127189942Y-103709639D01*
X127189942Y-103709639D02*
X127285180Y-103757258D01*
X127285180Y-103757258D02*
X127332800Y-103804877D01*
X127332800Y-103804877D02*
X127380419Y-103900115D01*
X127380419Y-103900115D02*
X127380419Y-104185829D01*
X127380419Y-104185829D02*
X127332800Y-104281067D01*
X127332800Y-104281067D02*
X127285180Y-104328686D01*
X126475657Y-103328686D02*
X126428038Y-103281067D01*
X126428038Y-103281067D02*
X126380419Y-103185829D01*
X126380419Y-103185829D02*
X126380419Y-102947734D01*
X126380419Y-102947734D02*
X126428038Y-102852496D01*
X126428038Y-102852496D02*
X126475657Y-102804877D01*
X126475657Y-102804877D02*
X126570895Y-102757258D01*
X126570895Y-102757258D02*
X126666133Y-102757258D01*
X126666133Y-102757258D02*
X126808990Y-102804877D01*
X126808990Y-102804877D02*
X127380419Y-103376305D01*
X127380419Y-103376305D02*
X127380419Y-102757258D01*
D11*
X114812530Y-41031219D02*
X114812530Y-41269314D01*
X114574435Y-41174076D02*
X114812530Y-41269314D01*
X114812530Y-41269314D02*
X115050625Y-41174076D01*
X114669673Y-41459790D02*
X114812530Y-41269314D01*
X114812530Y-41269314D02*
X114955387Y-41459790D01*
X115574435Y-41031219D02*
X115574435Y-41269314D01*
X115336340Y-41174076D02*
X115574435Y-41269314D01*
X115574435Y-41269314D02*
X115812530Y-41174076D01*
X115431578Y-41459790D02*
X115574435Y-41269314D01*
X115574435Y-41269314D02*
X115717292Y-41459790D01*
X116336340Y-41031219D02*
X116336340Y-41269314D01*
X116098245Y-41174076D02*
X116336340Y-41269314D01*
X116336340Y-41269314D02*
X116574435Y-41174076D01*
X116193483Y-41459790D02*
X116336340Y-41269314D01*
X116336340Y-41269314D02*
X116479197Y-41459790D01*
X116955388Y-42031219D02*
X116955388Y-41031219D01*
X116955388Y-41031219D02*
X117526816Y-42031219D01*
X117526816Y-42031219D02*
X117526816Y-41031219D01*
X118193483Y-41031219D02*
X118383959Y-41031219D01*
X118383959Y-41031219D02*
X118479197Y-41078838D01*
X118479197Y-41078838D02*
X118574435Y-41174076D01*
X118574435Y-41174076D02*
X118622054Y-41364552D01*
X118622054Y-41364552D02*
X118622054Y-41697885D01*
X118622054Y-41697885D02*
X118574435Y-41888361D01*
X118574435Y-41888361D02*
X118479197Y-41983600D01*
X118479197Y-41983600D02*
X118383959Y-42031219D01*
X118383959Y-42031219D02*
X118193483Y-42031219D01*
X118193483Y-42031219D02*
X118098245Y-41983600D01*
X118098245Y-41983600D02*
X118003007Y-41888361D01*
X118003007Y-41888361D02*
X117955388Y-41697885D01*
X117955388Y-41697885D02*
X117955388Y-41364552D01*
X117955388Y-41364552D02*
X118003007Y-41174076D01*
X118003007Y-41174076D02*
X118098245Y-41078838D01*
X118098245Y-41078838D02*
X118193483Y-41031219D01*
X118907769Y-41031219D02*
X119479197Y-41031219D01*
X119193483Y-42031219D02*
X119193483Y-41031219D01*
X119812531Y-41507409D02*
X120145864Y-41507409D01*
X120288721Y-42031219D02*
X119812531Y-42031219D01*
X119812531Y-42031219D02*
X119812531Y-41031219D01*
X119812531Y-41031219D02*
X120288721Y-41031219D01*
X120717293Y-41935980D02*
X120764912Y-41983600D01*
X120764912Y-41983600D02*
X120717293Y-42031219D01*
X120717293Y-42031219D02*
X120669674Y-41983600D01*
X120669674Y-41983600D02*
X120717293Y-41935980D01*
X120717293Y-41935980D02*
X120717293Y-42031219D01*
X120717293Y-41412171D02*
X120764912Y-41459790D01*
X120764912Y-41459790D02*
X120717293Y-41507409D01*
X120717293Y-41507409D02*
X120669674Y-41459790D01*
X120669674Y-41459790D02*
X120717293Y-41412171D01*
X120717293Y-41412171D02*
X120717293Y-41507409D01*
X122145864Y-41031219D02*
X122336340Y-41031219D01*
X122336340Y-41031219D02*
X122431578Y-41078838D01*
X122431578Y-41078838D02*
X122526816Y-41174076D01*
X122526816Y-41174076D02*
X122574435Y-41364552D01*
X122574435Y-41364552D02*
X122574435Y-41697885D01*
X122574435Y-41697885D02*
X122526816Y-41888361D01*
X122526816Y-41888361D02*
X122431578Y-41983600D01*
X122431578Y-41983600D02*
X122336340Y-42031219D01*
X122336340Y-42031219D02*
X122145864Y-42031219D01*
X122145864Y-42031219D02*
X122050626Y-41983600D01*
X122050626Y-41983600D02*
X121955388Y-41888361D01*
X121955388Y-41888361D02*
X121907769Y-41697885D01*
X121907769Y-41697885D02*
X121907769Y-41364552D01*
X121907769Y-41364552D02*
X121955388Y-41174076D01*
X121955388Y-41174076D02*
X122050626Y-41078838D01*
X122050626Y-41078838D02*
X122145864Y-41031219D01*
X123003007Y-41364552D02*
X123003007Y-42364552D01*
X123003007Y-41412171D02*
X123098245Y-41364552D01*
X123098245Y-41364552D02*
X123288721Y-41364552D01*
X123288721Y-41364552D02*
X123383959Y-41412171D01*
X123383959Y-41412171D02*
X123431578Y-41459790D01*
X123431578Y-41459790D02*
X123479197Y-41555028D01*
X123479197Y-41555028D02*
X123479197Y-41840742D01*
X123479197Y-41840742D02*
X123431578Y-41935980D01*
X123431578Y-41935980D02*
X123383959Y-41983600D01*
X123383959Y-41983600D02*
X123288721Y-42031219D01*
X123288721Y-42031219D02*
X123098245Y-42031219D01*
X123098245Y-42031219D02*
X123003007Y-41983600D01*
X123907769Y-41364552D02*
X123907769Y-42364552D01*
X123907769Y-41412171D02*
X124003007Y-41364552D01*
X124003007Y-41364552D02*
X124193483Y-41364552D01*
X124193483Y-41364552D02*
X124288721Y-41412171D01*
X124288721Y-41412171D02*
X124336340Y-41459790D01*
X124336340Y-41459790D02*
X124383959Y-41555028D01*
X124383959Y-41555028D02*
X124383959Y-41840742D01*
X124383959Y-41840742D02*
X124336340Y-41935980D01*
X124336340Y-41935980D02*
X124288721Y-41983600D01*
X124288721Y-41983600D02*
X124193483Y-42031219D01*
X124193483Y-42031219D02*
X124003007Y-42031219D01*
X124003007Y-42031219D02*
X123907769Y-41983600D01*
X124955388Y-42031219D02*
X124860150Y-41983600D01*
X124860150Y-41983600D02*
X124812531Y-41935980D01*
X124812531Y-41935980D02*
X124764912Y-41840742D01*
X124764912Y-41840742D02*
X124764912Y-41555028D01*
X124764912Y-41555028D02*
X124812531Y-41459790D01*
X124812531Y-41459790D02*
X124860150Y-41412171D01*
X124860150Y-41412171D02*
X124955388Y-41364552D01*
X124955388Y-41364552D02*
X125098245Y-41364552D01*
X125098245Y-41364552D02*
X125193483Y-41412171D01*
X125193483Y-41412171D02*
X125241102Y-41459790D01*
X125241102Y-41459790D02*
X125288721Y-41555028D01*
X125288721Y-41555028D02*
X125288721Y-41840742D01*
X125288721Y-41840742D02*
X125241102Y-41935980D01*
X125241102Y-41935980D02*
X125193483Y-41983600D01*
X125193483Y-41983600D02*
X125098245Y-42031219D01*
X125098245Y-42031219D02*
X124955388Y-42031219D01*
X125669674Y-41983600D02*
X125764912Y-42031219D01*
X125764912Y-42031219D02*
X125955388Y-42031219D01*
X125955388Y-42031219D02*
X126050626Y-41983600D01*
X126050626Y-41983600D02*
X126098245Y-41888361D01*
X126098245Y-41888361D02*
X126098245Y-41840742D01*
X126098245Y-41840742D02*
X126050626Y-41745504D01*
X126050626Y-41745504D02*
X125955388Y-41697885D01*
X125955388Y-41697885D02*
X125812531Y-41697885D01*
X125812531Y-41697885D02*
X125717293Y-41650266D01*
X125717293Y-41650266D02*
X125669674Y-41555028D01*
X125669674Y-41555028D02*
X125669674Y-41507409D01*
X125669674Y-41507409D02*
X125717293Y-41412171D01*
X125717293Y-41412171D02*
X125812531Y-41364552D01*
X125812531Y-41364552D02*
X125955388Y-41364552D01*
X125955388Y-41364552D02*
X126050626Y-41412171D01*
X126526817Y-42031219D02*
X126526817Y-41364552D01*
X126526817Y-41031219D02*
X126479198Y-41078838D01*
X126479198Y-41078838D02*
X126526817Y-41126457D01*
X126526817Y-41126457D02*
X126574436Y-41078838D01*
X126574436Y-41078838D02*
X126526817Y-41031219D01*
X126526817Y-41031219D02*
X126526817Y-41126457D01*
X126860150Y-41364552D02*
X127241102Y-41364552D01*
X127003007Y-41031219D02*
X127003007Y-41888361D01*
X127003007Y-41888361D02*
X127050626Y-41983600D01*
X127050626Y-41983600D02*
X127145864Y-42031219D01*
X127145864Y-42031219D02*
X127241102Y-42031219D01*
X127955388Y-41983600D02*
X127860150Y-42031219D01*
X127860150Y-42031219D02*
X127669674Y-42031219D01*
X127669674Y-42031219D02*
X127574436Y-41983600D01*
X127574436Y-41983600D02*
X127526817Y-41888361D01*
X127526817Y-41888361D02*
X127526817Y-41507409D01*
X127526817Y-41507409D02*
X127574436Y-41412171D01*
X127574436Y-41412171D02*
X127669674Y-41364552D01*
X127669674Y-41364552D02*
X127860150Y-41364552D01*
X127860150Y-41364552D02*
X127955388Y-41412171D01*
X127955388Y-41412171D02*
X128003007Y-41507409D01*
X128003007Y-41507409D02*
X128003007Y-41602647D01*
X128003007Y-41602647D02*
X127526817Y-41697885D01*
X129622055Y-42031219D02*
X129622055Y-41031219D01*
X129622055Y-41983600D02*
X129526817Y-42031219D01*
X129526817Y-42031219D02*
X129336341Y-42031219D01*
X129336341Y-42031219D02*
X129241103Y-41983600D01*
X129241103Y-41983600D02*
X129193484Y-41935980D01*
X129193484Y-41935980D02*
X129145865Y-41840742D01*
X129145865Y-41840742D02*
X129145865Y-41555028D01*
X129145865Y-41555028D02*
X129193484Y-41459790D01*
X129193484Y-41459790D02*
X129241103Y-41412171D01*
X129241103Y-41412171D02*
X129336341Y-41364552D01*
X129336341Y-41364552D02*
X129526817Y-41364552D01*
X129526817Y-41364552D02*
X129622055Y-41412171D01*
X130098246Y-42031219D02*
X130098246Y-41364552D01*
X130098246Y-41031219D02*
X130050627Y-41078838D01*
X130050627Y-41078838D02*
X130098246Y-41126457D01*
X130098246Y-41126457D02*
X130145865Y-41078838D01*
X130145865Y-41078838D02*
X130098246Y-41031219D01*
X130098246Y-41031219D02*
X130098246Y-41126457D01*
X130574436Y-42031219D02*
X130574436Y-41364552D01*
X130574436Y-41555028D02*
X130622055Y-41459790D01*
X130622055Y-41459790D02*
X130669674Y-41412171D01*
X130669674Y-41412171D02*
X130764912Y-41364552D01*
X130764912Y-41364552D02*
X130860150Y-41364552D01*
X131574436Y-41983600D02*
X131479198Y-42031219D01*
X131479198Y-42031219D02*
X131288722Y-42031219D01*
X131288722Y-42031219D02*
X131193484Y-41983600D01*
X131193484Y-41983600D02*
X131145865Y-41888361D01*
X131145865Y-41888361D02*
X131145865Y-41507409D01*
X131145865Y-41507409D02*
X131193484Y-41412171D01*
X131193484Y-41412171D02*
X131288722Y-41364552D01*
X131288722Y-41364552D02*
X131479198Y-41364552D01*
X131479198Y-41364552D02*
X131574436Y-41412171D01*
X131574436Y-41412171D02*
X131622055Y-41507409D01*
X131622055Y-41507409D02*
X131622055Y-41602647D01*
X131622055Y-41602647D02*
X131145865Y-41697885D01*
X132479198Y-41983600D02*
X132383960Y-42031219D01*
X132383960Y-42031219D02*
X132193484Y-42031219D01*
X132193484Y-42031219D02*
X132098246Y-41983600D01*
X132098246Y-41983600D02*
X132050627Y-41935980D01*
X132050627Y-41935980D02*
X132003008Y-41840742D01*
X132003008Y-41840742D02*
X132003008Y-41555028D01*
X132003008Y-41555028D02*
X132050627Y-41459790D01*
X132050627Y-41459790D02*
X132098246Y-41412171D01*
X132098246Y-41412171D02*
X132193484Y-41364552D01*
X132193484Y-41364552D02*
X132383960Y-41364552D01*
X132383960Y-41364552D02*
X132479198Y-41412171D01*
X132764913Y-41364552D02*
X133145865Y-41364552D01*
X132907770Y-41031219D02*
X132907770Y-41888361D01*
X132907770Y-41888361D02*
X132955389Y-41983600D01*
X132955389Y-41983600D02*
X133050627Y-42031219D01*
X133050627Y-42031219D02*
X133145865Y-42031219D01*
X133479199Y-42031219D02*
X133479199Y-41364552D01*
X133479199Y-41031219D02*
X133431580Y-41078838D01*
X133431580Y-41078838D02*
X133479199Y-41126457D01*
X133479199Y-41126457D02*
X133526818Y-41078838D01*
X133526818Y-41078838D02*
X133479199Y-41031219D01*
X133479199Y-41031219D02*
X133479199Y-41126457D01*
X134098246Y-42031219D02*
X134003008Y-41983600D01*
X134003008Y-41983600D02*
X133955389Y-41935980D01*
X133955389Y-41935980D02*
X133907770Y-41840742D01*
X133907770Y-41840742D02*
X133907770Y-41555028D01*
X133907770Y-41555028D02*
X133955389Y-41459790D01*
X133955389Y-41459790D02*
X134003008Y-41412171D01*
X134003008Y-41412171D02*
X134098246Y-41364552D01*
X134098246Y-41364552D02*
X134241103Y-41364552D01*
X134241103Y-41364552D02*
X134336341Y-41412171D01*
X134336341Y-41412171D02*
X134383960Y-41459790D01*
X134383960Y-41459790D02*
X134431579Y-41555028D01*
X134431579Y-41555028D02*
X134431579Y-41840742D01*
X134431579Y-41840742D02*
X134383960Y-41935980D01*
X134383960Y-41935980D02*
X134336341Y-41983600D01*
X134336341Y-41983600D02*
X134241103Y-42031219D01*
X134241103Y-42031219D02*
X134098246Y-42031219D01*
X134860151Y-41364552D02*
X134860151Y-42031219D01*
X134860151Y-41459790D02*
X134907770Y-41412171D01*
X134907770Y-41412171D02*
X135003008Y-41364552D01*
X135003008Y-41364552D02*
X135145865Y-41364552D01*
X135145865Y-41364552D02*
X135241103Y-41412171D01*
X135241103Y-41412171D02*
X135288722Y-41507409D01*
X135288722Y-41507409D02*
X135288722Y-42031219D01*
X135717294Y-41983600D02*
X135812532Y-42031219D01*
X135812532Y-42031219D02*
X136003008Y-42031219D01*
X136003008Y-42031219D02*
X136098246Y-41983600D01*
X136098246Y-41983600D02*
X136145865Y-41888361D01*
X136145865Y-41888361D02*
X136145865Y-41840742D01*
X136145865Y-41840742D02*
X136098246Y-41745504D01*
X136098246Y-41745504D02*
X136003008Y-41697885D01*
X136003008Y-41697885D02*
X135860151Y-41697885D01*
X135860151Y-41697885D02*
X135764913Y-41650266D01*
X135764913Y-41650266D02*
X135717294Y-41555028D01*
X135717294Y-41555028D02*
X135717294Y-41507409D01*
X135717294Y-41507409D02*
X135764913Y-41412171D01*
X135764913Y-41412171D02*
X135860151Y-41364552D01*
X135860151Y-41364552D02*
X136003008Y-41364552D01*
X136003008Y-41364552D02*
X136098246Y-41412171D01*
X136574437Y-41935980D02*
X136622056Y-41983600D01*
X136622056Y-41983600D02*
X136574437Y-42031219D01*
X136574437Y-42031219D02*
X136526818Y-41983600D01*
X136526818Y-41983600D02*
X136574437Y-41935980D01*
X136574437Y-41935980D02*
X136574437Y-42031219D01*
X136574437Y-41650266D02*
X136526818Y-41078838D01*
X136526818Y-41078838D02*
X136574437Y-41031219D01*
X136574437Y-41031219D02*
X136622056Y-41078838D01*
X136622056Y-41078838D02*
X136574437Y-41650266D01*
X136574437Y-41650266D02*
X136574437Y-41031219D01*
X137050627Y-41935980D02*
X137098246Y-41983600D01*
X137098246Y-41983600D02*
X137050627Y-42031219D01*
X137050627Y-42031219D02*
X137003008Y-41983600D01*
X137003008Y-41983600D02*
X137050627Y-41935980D01*
X137050627Y-41935980D02*
X137050627Y-42031219D01*
X137050627Y-41650266D02*
X137003008Y-41078838D01*
X137003008Y-41078838D02*
X137050627Y-41031219D01*
X137050627Y-41031219D02*
X137098246Y-41078838D01*
X137098246Y-41078838D02*
X137050627Y-41650266D01*
X137050627Y-41650266D02*
X137050627Y-41031219D01*
X137526817Y-41935980D02*
X137574436Y-41983600D01*
X137574436Y-41983600D02*
X137526817Y-42031219D01*
X137526817Y-42031219D02*
X137479198Y-41983600D01*
X137479198Y-41983600D02*
X137526817Y-41935980D01*
X137526817Y-41935980D02*
X137526817Y-42031219D01*
X137526817Y-41650266D02*
X137479198Y-41078838D01*
X137479198Y-41078838D02*
X137526817Y-41031219D01*
X137526817Y-41031219D02*
X137574436Y-41078838D01*
X137574436Y-41078838D02*
X137526817Y-41650266D01*
X137526817Y-41650266D02*
X137526817Y-41031219D01*
D10*
X101618074Y-101234419D02*
X101141884Y-101234419D01*
X101141884Y-101234419D02*
X101094265Y-101710609D01*
X101094265Y-101710609D02*
X101141884Y-101662990D01*
X101141884Y-101662990D02*
X101237122Y-101615371D01*
X101237122Y-101615371D02*
X101475217Y-101615371D01*
X101475217Y-101615371D02*
X101570455Y-101662990D01*
X101570455Y-101662990D02*
X101618074Y-101710609D01*
X101618074Y-101710609D02*
X101665693Y-101805847D01*
X101665693Y-101805847D02*
X101665693Y-102043942D01*
X101665693Y-102043942D02*
X101618074Y-102139180D01*
X101618074Y-102139180D02*
X101570455Y-102186800D01*
X101570455Y-102186800D02*
X101475217Y-102234419D01*
X101475217Y-102234419D02*
X101237122Y-102234419D01*
X101237122Y-102234419D02*
X101141884Y-102186800D01*
X101141884Y-102186800D02*
X101094265Y-102139180D01*
X102284741Y-101234419D02*
X102379979Y-101234419D01*
X102379979Y-101234419D02*
X102475217Y-101282038D01*
X102475217Y-101282038D02*
X102522836Y-101329657D01*
X102522836Y-101329657D02*
X102570455Y-101424895D01*
X102570455Y-101424895D02*
X102618074Y-101615371D01*
X102618074Y-101615371D02*
X102618074Y-101853466D01*
X102618074Y-101853466D02*
X102570455Y-102043942D01*
X102570455Y-102043942D02*
X102522836Y-102139180D01*
X102522836Y-102139180D02*
X102475217Y-102186800D01*
X102475217Y-102186800D02*
X102379979Y-102234419D01*
X102379979Y-102234419D02*
X102284741Y-102234419D01*
X102284741Y-102234419D02*
X102189503Y-102186800D01*
X102189503Y-102186800D02*
X102141884Y-102139180D01*
X102141884Y-102139180D02*
X102094265Y-102043942D01*
X102094265Y-102043942D02*
X102046646Y-101853466D01*
X102046646Y-101853466D02*
X102046646Y-101615371D01*
X102046646Y-101615371D02*
X102094265Y-101424895D01*
X102094265Y-101424895D02*
X102141884Y-101329657D01*
X102141884Y-101329657D02*
X102189503Y-101282038D01*
X102189503Y-101282038D02*
X102284741Y-101234419D01*
X94553693Y-112394419D02*
X93982265Y-112394419D01*
X94267979Y-112394419D02*
X94267979Y-111394419D01*
X94267979Y-111394419D02*
X94172741Y-111537276D01*
X94172741Y-111537276D02*
X94077503Y-111632514D01*
X94077503Y-111632514D02*
X93982265Y-111680133D01*
X146360475Y-103883734D02*
X146550951Y-103883734D01*
X146360475Y-103502782D02*
X146550951Y-103502782D01*
X146360475Y-103169448D02*
X147360475Y-102931353D01*
X147360475Y-102931353D02*
X146646189Y-102740877D01*
X146646189Y-102740877D02*
X147360475Y-102550401D01*
X147360475Y-102550401D02*
X146360475Y-102312306D01*
X147360475Y-101931353D02*
X146693808Y-101931353D01*
X146884284Y-101931353D02*
X146789046Y-101883734D01*
X146789046Y-101883734D02*
X146741427Y-101836115D01*
X146741427Y-101836115D02*
X146693808Y-101740877D01*
X146693808Y-101740877D02*
X146693808Y-101645639D01*
X147360475Y-101169448D02*
X147312856Y-101264686D01*
X147312856Y-101264686D02*
X147265236Y-101312305D01*
X147265236Y-101312305D02*
X147169998Y-101359924D01*
X147169998Y-101359924D02*
X146884284Y-101359924D01*
X146884284Y-101359924D02*
X146789046Y-101312305D01*
X146789046Y-101312305D02*
X146741427Y-101264686D01*
X146741427Y-101264686D02*
X146693808Y-101169448D01*
X146693808Y-101169448D02*
X146693808Y-101026591D01*
X146693808Y-101026591D02*
X146741427Y-100931353D01*
X146741427Y-100931353D02*
X146789046Y-100883734D01*
X146789046Y-100883734D02*
X146884284Y-100836115D01*
X146884284Y-100836115D02*
X147169998Y-100836115D01*
X147169998Y-100836115D02*
X147265236Y-100883734D01*
X147265236Y-100883734D02*
X147312856Y-100931353D01*
X147312856Y-100931353D02*
X147360475Y-101026591D01*
X147360475Y-101026591D02*
X147360475Y-101169448D01*
X146693808Y-100407543D02*
X147360475Y-100407543D01*
X146789046Y-100407543D02*
X146741427Y-100359924D01*
X146741427Y-100359924D02*
X146693808Y-100264686D01*
X146693808Y-100264686D02*
X146693808Y-100121829D01*
X146693808Y-100121829D02*
X146741427Y-100026591D01*
X146741427Y-100026591D02*
X146836665Y-99978972D01*
X146836665Y-99978972D02*
X147360475Y-99978972D01*
X146693808Y-99074210D02*
X147503332Y-99074210D01*
X147503332Y-99074210D02*
X147598570Y-99121829D01*
X147598570Y-99121829D02*
X147646189Y-99169448D01*
X147646189Y-99169448D02*
X147693808Y-99264686D01*
X147693808Y-99264686D02*
X147693808Y-99407543D01*
X147693808Y-99407543D02*
X147646189Y-99502781D01*
X147312856Y-99074210D02*
X147360475Y-99169448D01*
X147360475Y-99169448D02*
X147360475Y-99359924D01*
X147360475Y-99359924D02*
X147312856Y-99455162D01*
X147312856Y-99455162D02*
X147265236Y-99502781D01*
X147265236Y-99502781D02*
X147169998Y-99550400D01*
X147169998Y-99550400D02*
X146884284Y-99550400D01*
X146884284Y-99550400D02*
X146789046Y-99502781D01*
X146789046Y-99502781D02*
X146741427Y-99455162D01*
X146741427Y-99455162D02*
X146693808Y-99359924D01*
X146693808Y-99359924D02*
X146693808Y-99169448D01*
X146693808Y-99169448D02*
X146741427Y-99074210D01*
X147360475Y-97836114D02*
X146360475Y-97836114D01*
X146360475Y-97836114D02*
X146360475Y-97598019D01*
X146360475Y-97598019D02*
X146408094Y-97455162D01*
X146408094Y-97455162D02*
X146503332Y-97359924D01*
X146503332Y-97359924D02*
X146598570Y-97312305D01*
X146598570Y-97312305D02*
X146789046Y-97264686D01*
X146789046Y-97264686D02*
X146931903Y-97264686D01*
X146931903Y-97264686D02*
X147122379Y-97312305D01*
X147122379Y-97312305D02*
X147217617Y-97359924D01*
X147217617Y-97359924D02*
X147312856Y-97455162D01*
X147312856Y-97455162D02*
X147360475Y-97598019D01*
X147360475Y-97598019D02*
X147360475Y-97836114D01*
X147312856Y-96455162D02*
X147360475Y-96550400D01*
X147360475Y-96550400D02*
X147360475Y-96740876D01*
X147360475Y-96740876D02*
X147312856Y-96836114D01*
X147312856Y-96836114D02*
X147217617Y-96883733D01*
X147217617Y-96883733D02*
X146836665Y-96883733D01*
X146836665Y-96883733D02*
X146741427Y-96836114D01*
X146741427Y-96836114D02*
X146693808Y-96740876D01*
X146693808Y-96740876D02*
X146693808Y-96550400D01*
X146693808Y-96550400D02*
X146741427Y-96455162D01*
X146741427Y-96455162D02*
X146836665Y-96407543D01*
X146836665Y-96407543D02*
X146931903Y-96407543D01*
X146931903Y-96407543D02*
X147027141Y-96883733D01*
X146693808Y-95978971D02*
X147360475Y-95978971D01*
X146789046Y-95978971D02*
X146741427Y-95931352D01*
X146741427Y-95931352D02*
X146693808Y-95836114D01*
X146693808Y-95836114D02*
X146693808Y-95693257D01*
X146693808Y-95693257D02*
X146741427Y-95598019D01*
X146741427Y-95598019D02*
X146836665Y-95550400D01*
X146836665Y-95550400D02*
X147360475Y-95550400D01*
X147312856Y-95121828D02*
X147360475Y-95026590D01*
X147360475Y-95026590D02*
X147360475Y-94836114D01*
X147360475Y-94836114D02*
X147312856Y-94740876D01*
X147312856Y-94740876D02*
X147217617Y-94693257D01*
X147217617Y-94693257D02*
X147169998Y-94693257D01*
X147169998Y-94693257D02*
X147074760Y-94740876D01*
X147074760Y-94740876D02*
X147027141Y-94836114D01*
X147027141Y-94836114D02*
X147027141Y-94978971D01*
X147027141Y-94978971D02*
X146979522Y-95074209D01*
X146979522Y-95074209D02*
X146884284Y-95121828D01*
X146884284Y-95121828D02*
X146836665Y-95121828D01*
X146836665Y-95121828D02*
X146741427Y-95074209D01*
X146741427Y-95074209D02*
X146693808Y-94978971D01*
X146693808Y-94978971D02*
X146693808Y-94836114D01*
X146693808Y-94836114D02*
X146741427Y-94740876D01*
X147360475Y-94264685D02*
X146693808Y-94264685D01*
X146360475Y-94264685D02*
X146408094Y-94312304D01*
X146408094Y-94312304D02*
X146455713Y-94264685D01*
X146455713Y-94264685D02*
X146408094Y-94217066D01*
X146408094Y-94217066D02*
X146360475Y-94264685D01*
X146360475Y-94264685D02*
X146455713Y-94264685D01*
X146693808Y-93931352D02*
X146693808Y-93550400D01*
X146360475Y-93788495D02*
X147217617Y-93788495D01*
X147217617Y-93788495D02*
X147312856Y-93740876D01*
X147312856Y-93740876D02*
X147360475Y-93645638D01*
X147360475Y-93645638D02*
X147360475Y-93550400D01*
X146693808Y-93312304D02*
X147360475Y-93074209D01*
X146693808Y-92836114D02*
X147360475Y-93074209D01*
X147360475Y-93074209D02*
X147598570Y-93169447D01*
X147598570Y-93169447D02*
X147646189Y-93217066D01*
X147646189Y-93217066D02*
X147693808Y-93312304D01*
X147360475Y-91693256D02*
X146360475Y-91693256D01*
X146360475Y-91693256D02*
X146360475Y-91455161D01*
X146360475Y-91455161D02*
X146408094Y-91312304D01*
X146408094Y-91312304D02*
X146503332Y-91217066D01*
X146503332Y-91217066D02*
X146598570Y-91169447D01*
X146598570Y-91169447D02*
X146789046Y-91121828D01*
X146789046Y-91121828D02*
X146931903Y-91121828D01*
X146931903Y-91121828D02*
X147122379Y-91169447D01*
X147122379Y-91169447D02*
X147217617Y-91217066D01*
X147217617Y-91217066D02*
X147312856Y-91312304D01*
X147312856Y-91312304D02*
X147360475Y-91455161D01*
X147360475Y-91455161D02*
X147360475Y-91693256D01*
X147360475Y-90693256D02*
X146693808Y-90693256D01*
X146360475Y-90693256D02*
X146408094Y-90740875D01*
X146408094Y-90740875D02*
X146455713Y-90693256D01*
X146455713Y-90693256D02*
X146408094Y-90645637D01*
X146408094Y-90645637D02*
X146360475Y-90693256D01*
X146360475Y-90693256D02*
X146455713Y-90693256D01*
X147312856Y-90264685D02*
X147360475Y-90169447D01*
X147360475Y-90169447D02*
X147360475Y-89978971D01*
X147360475Y-89978971D02*
X147312856Y-89883733D01*
X147312856Y-89883733D02*
X147217617Y-89836114D01*
X147217617Y-89836114D02*
X147169998Y-89836114D01*
X147169998Y-89836114D02*
X147074760Y-89883733D01*
X147074760Y-89883733D02*
X147027141Y-89978971D01*
X147027141Y-89978971D02*
X147027141Y-90121828D01*
X147027141Y-90121828D02*
X146979522Y-90217066D01*
X146979522Y-90217066D02*
X146884284Y-90264685D01*
X146884284Y-90264685D02*
X146836665Y-90264685D01*
X146836665Y-90264685D02*
X146741427Y-90217066D01*
X146741427Y-90217066D02*
X146693808Y-90121828D01*
X146693808Y-90121828D02*
X146693808Y-89978971D01*
X146693808Y-89978971D02*
X146741427Y-89883733D01*
X147360475Y-89407542D02*
X146360475Y-89407542D01*
X146979522Y-89312304D02*
X147360475Y-89026590D01*
X146693808Y-89026590D02*
X147074760Y-89407542D01*
X146360475Y-88645637D02*
X146550951Y-88645637D01*
X146360475Y-88264685D02*
X146550951Y-88264685D01*
X148970419Y-100026590D02*
X147970419Y-100026590D01*
X148303752Y-99550400D02*
X148970419Y-99550400D01*
X148398990Y-99550400D02*
X148351371Y-99502781D01*
X148351371Y-99502781D02*
X148303752Y-99407543D01*
X148303752Y-99407543D02*
X148303752Y-99264686D01*
X148303752Y-99264686D02*
X148351371Y-99169448D01*
X148351371Y-99169448D02*
X148446609Y-99121829D01*
X148446609Y-99121829D02*
X148970419Y-99121829D01*
X148970419Y-98217067D02*
X147970419Y-98217067D01*
X148922800Y-98217067D02*
X148970419Y-98312305D01*
X148970419Y-98312305D02*
X148970419Y-98502781D01*
X148970419Y-98502781D02*
X148922800Y-98598019D01*
X148922800Y-98598019D02*
X148875180Y-98645638D01*
X148875180Y-98645638D02*
X148779942Y-98693257D01*
X148779942Y-98693257D02*
X148494228Y-98693257D01*
X148494228Y-98693257D02*
X148398990Y-98645638D01*
X148398990Y-98645638D02*
X148351371Y-98598019D01*
X148351371Y-98598019D02*
X148303752Y-98502781D01*
X148303752Y-98502781D02*
X148303752Y-98312305D01*
X148303752Y-98312305D02*
X148351371Y-98217067D01*
X148970419Y-97740876D02*
X148303752Y-97740876D01*
X147970419Y-97740876D02*
X148018038Y-97788495D01*
X148018038Y-97788495D02*
X148065657Y-97740876D01*
X148065657Y-97740876D02*
X148018038Y-97693257D01*
X148018038Y-97693257D02*
X147970419Y-97740876D01*
X147970419Y-97740876D02*
X148065657Y-97740876D01*
X148922800Y-96836115D02*
X148970419Y-96931353D01*
X148970419Y-96931353D02*
X148970419Y-97121829D01*
X148970419Y-97121829D02*
X148922800Y-97217067D01*
X148922800Y-97217067D02*
X148875180Y-97264686D01*
X148875180Y-97264686D02*
X148779942Y-97312305D01*
X148779942Y-97312305D02*
X148494228Y-97312305D01*
X148494228Y-97312305D02*
X148398990Y-97264686D01*
X148398990Y-97264686D02*
X148351371Y-97217067D01*
X148351371Y-97217067D02*
X148303752Y-97121829D01*
X148303752Y-97121829D02*
X148303752Y-96931353D01*
X148303752Y-96931353D02*
X148351371Y-96836115D01*
X148970419Y-95978972D02*
X148446609Y-95978972D01*
X148446609Y-95978972D02*
X148351371Y-96026591D01*
X148351371Y-96026591D02*
X148303752Y-96121829D01*
X148303752Y-96121829D02*
X148303752Y-96312305D01*
X148303752Y-96312305D02*
X148351371Y-96407543D01*
X148922800Y-95978972D02*
X148970419Y-96074210D01*
X148970419Y-96074210D02*
X148970419Y-96312305D01*
X148970419Y-96312305D02*
X148922800Y-96407543D01*
X148922800Y-96407543D02*
X148827561Y-96455162D01*
X148827561Y-96455162D02*
X148732323Y-96455162D01*
X148732323Y-96455162D02*
X148637085Y-96407543D01*
X148637085Y-96407543D02*
X148589466Y-96312305D01*
X148589466Y-96312305D02*
X148589466Y-96074210D01*
X148589466Y-96074210D02*
X148541847Y-95978972D01*
X148303752Y-95645638D02*
X148303752Y-95264686D01*
X147970419Y-95502781D02*
X148827561Y-95502781D01*
X148827561Y-95502781D02*
X148922800Y-95455162D01*
X148922800Y-95455162D02*
X148970419Y-95359924D01*
X148970419Y-95359924D02*
X148970419Y-95264686D01*
X148970419Y-94788495D02*
X148922800Y-94883733D01*
X148922800Y-94883733D02*
X148875180Y-94931352D01*
X148875180Y-94931352D02*
X148779942Y-94978971D01*
X148779942Y-94978971D02*
X148494228Y-94978971D01*
X148494228Y-94978971D02*
X148398990Y-94931352D01*
X148398990Y-94931352D02*
X148351371Y-94883733D01*
X148351371Y-94883733D02*
X148303752Y-94788495D01*
X148303752Y-94788495D02*
X148303752Y-94645638D01*
X148303752Y-94645638D02*
X148351371Y-94550400D01*
X148351371Y-94550400D02*
X148398990Y-94502781D01*
X148398990Y-94502781D02*
X148494228Y-94455162D01*
X148494228Y-94455162D02*
X148779942Y-94455162D01*
X148779942Y-94455162D02*
X148875180Y-94502781D01*
X148875180Y-94502781D02*
X148922800Y-94550400D01*
X148922800Y-94550400D02*
X148970419Y-94645638D01*
X148970419Y-94645638D02*
X148970419Y-94788495D01*
X148970419Y-94026590D02*
X148303752Y-94026590D01*
X148494228Y-94026590D02*
X148398990Y-93978971D01*
X148398990Y-93978971D02*
X148351371Y-93931352D01*
X148351371Y-93931352D02*
X148303752Y-93836114D01*
X148303752Y-93836114D02*
X148303752Y-93740876D01*
X148922800Y-93455161D02*
X148970419Y-93359923D01*
X148970419Y-93359923D02*
X148970419Y-93169447D01*
X148970419Y-93169447D02*
X148922800Y-93074209D01*
X148922800Y-93074209D02*
X148827561Y-93026590D01*
X148827561Y-93026590D02*
X148779942Y-93026590D01*
X148779942Y-93026590D02*
X148684704Y-93074209D01*
X148684704Y-93074209D02*
X148637085Y-93169447D01*
X148637085Y-93169447D02*
X148637085Y-93312304D01*
X148637085Y-93312304D02*
X148589466Y-93407542D01*
X148589466Y-93407542D02*
X148494228Y-93455161D01*
X148494228Y-93455161D02*
X148446609Y-93455161D01*
X148446609Y-93455161D02*
X148351371Y-93407542D01*
X148351371Y-93407542D02*
X148303752Y-93312304D01*
X148303752Y-93312304D02*
X148303752Y-93169447D01*
X148303752Y-93169447D02*
X148351371Y-93074209D01*
D11*
X160659482Y-31680838D02*
X160564244Y-31633219D01*
X160564244Y-31633219D02*
X160421387Y-31633219D01*
X160421387Y-31633219D02*
X160278530Y-31680838D01*
X160278530Y-31680838D02*
X160183292Y-31776076D01*
X160183292Y-31776076D02*
X160135673Y-31871314D01*
X160135673Y-31871314D02*
X160088054Y-32061790D01*
X160088054Y-32061790D02*
X160088054Y-32204647D01*
X160088054Y-32204647D02*
X160135673Y-32395123D01*
X160135673Y-32395123D02*
X160183292Y-32490361D01*
X160183292Y-32490361D02*
X160278530Y-32585600D01*
X160278530Y-32585600D02*
X160421387Y-32633219D01*
X160421387Y-32633219D02*
X160516625Y-32633219D01*
X160516625Y-32633219D02*
X160659482Y-32585600D01*
X160659482Y-32585600D02*
X160707101Y-32537980D01*
X160707101Y-32537980D02*
X160707101Y-32204647D01*
X160707101Y-32204647D02*
X160516625Y-32204647D01*
X161135673Y-32633219D02*
X161135673Y-31633219D01*
X161135673Y-31633219D02*
X161707101Y-32633219D01*
X161707101Y-32633219D02*
X161707101Y-31633219D01*
X162183292Y-32633219D02*
X162183292Y-31633219D01*
X162183292Y-31633219D02*
X162421387Y-31633219D01*
X162421387Y-31633219D02*
X162564244Y-31680838D01*
X162564244Y-31680838D02*
X162659482Y-31776076D01*
X162659482Y-31776076D02*
X162707101Y-31871314D01*
X162707101Y-31871314D02*
X162754720Y-32061790D01*
X162754720Y-32061790D02*
X162754720Y-32204647D01*
X162754720Y-32204647D02*
X162707101Y-32395123D01*
X162707101Y-32395123D02*
X162659482Y-32490361D01*
X162659482Y-32490361D02*
X162564244Y-32585600D01*
X162564244Y-32585600D02*
X162421387Y-32633219D01*
X162421387Y-32633219D02*
X162183292Y-32633219D01*
D10*
X151592646Y-111140419D02*
X152211693Y-111140419D01*
X152211693Y-111140419D02*
X151878360Y-111521371D01*
X151878360Y-111521371D02*
X152021217Y-111521371D01*
X152021217Y-111521371D02*
X152116455Y-111568990D01*
X152116455Y-111568990D02*
X152164074Y-111616609D01*
X152164074Y-111616609D02*
X152211693Y-111711847D01*
X152211693Y-111711847D02*
X152211693Y-111949942D01*
X152211693Y-111949942D02*
X152164074Y-112045180D01*
X152164074Y-112045180D02*
X152116455Y-112092800D01*
X152116455Y-112092800D02*
X152021217Y-112140419D01*
X152021217Y-112140419D02*
X151735503Y-112140419D01*
X151735503Y-112140419D02*
X151640265Y-112092800D01*
X151640265Y-112092800D02*
X151592646Y-112045180D01*
X153068836Y-111473752D02*
X153068836Y-112140419D01*
X152830741Y-111092800D02*
X152592646Y-111807085D01*
X152592646Y-111807085D02*
X153211693Y-111807085D01*
X160085693Y-81660419D02*
X159514265Y-81660419D01*
X159799979Y-81660419D02*
X159799979Y-80660419D01*
X159799979Y-80660419D02*
X159704741Y-80803276D01*
X159704741Y-80803276D02*
X159609503Y-80898514D01*
X159609503Y-80898514D02*
X159514265Y-80946133D01*
X160339693Y-152780419D02*
X159768265Y-152780419D01*
X160053979Y-152780419D02*
X160053979Y-151780419D01*
X160053979Y-151780419D02*
X159958741Y-151923276D01*
X159958741Y-151923276D02*
X159863503Y-152018514D01*
X159863503Y-152018514D02*
X159768265Y-152066133D01*
D11*
X159881673Y-29204266D02*
X160643578Y-29204266D01*
X160262625Y-29585219D02*
X160262625Y-28823314D01*
X161595958Y-28585219D02*
X161119768Y-28585219D01*
X161119768Y-28585219D02*
X161072149Y-29061409D01*
X161072149Y-29061409D02*
X161119768Y-29013790D01*
X161119768Y-29013790D02*
X161215006Y-28966171D01*
X161215006Y-28966171D02*
X161453101Y-28966171D01*
X161453101Y-28966171D02*
X161548339Y-29013790D01*
X161548339Y-29013790D02*
X161595958Y-29061409D01*
X161595958Y-29061409D02*
X161643577Y-29156647D01*
X161643577Y-29156647D02*
X161643577Y-29394742D01*
X161643577Y-29394742D02*
X161595958Y-29489980D01*
X161595958Y-29489980D02*
X161548339Y-29537600D01*
X161548339Y-29537600D02*
X161453101Y-29585219D01*
X161453101Y-29585219D02*
X161215006Y-29585219D01*
X161215006Y-29585219D02*
X161119768Y-29537600D01*
X161119768Y-29537600D02*
X161072149Y-29489980D01*
X161929292Y-28585219D02*
X162262625Y-29585219D01*
X162262625Y-29585219D02*
X162595958Y-28585219D01*
D12*
X107578891Y-30500315D02*
X108740034Y-30500315D01*
X108159463Y-32532315D02*
X108159463Y-30500315D01*
X110578510Y-32532315D02*
X109901177Y-31564696D01*
X109417367Y-32532315D02*
X109417367Y-30500315D01*
X109417367Y-30500315D02*
X110191462Y-30500315D01*
X110191462Y-30500315D02*
X110384986Y-30597077D01*
X110384986Y-30597077D02*
X110481748Y-30693839D01*
X110481748Y-30693839D02*
X110578510Y-30887363D01*
X110578510Y-30887363D02*
X110578510Y-31177649D01*
X110578510Y-31177649D02*
X110481748Y-31371173D01*
X110481748Y-31371173D02*
X110384986Y-31467934D01*
X110384986Y-31467934D02*
X110191462Y-31564696D01*
X110191462Y-31564696D02*
X109417367Y-31564696D01*
X111352605Y-32435554D02*
X111642891Y-32532315D01*
X111642891Y-32532315D02*
X112126700Y-32532315D01*
X112126700Y-32532315D02*
X112320224Y-32435554D01*
X112320224Y-32435554D02*
X112416986Y-32338792D01*
X112416986Y-32338792D02*
X112513748Y-32145268D01*
X112513748Y-32145268D02*
X112513748Y-31951744D01*
X112513748Y-31951744D02*
X112416986Y-31758220D01*
X112416986Y-31758220D02*
X112320224Y-31661458D01*
X112320224Y-31661458D02*
X112126700Y-31564696D01*
X112126700Y-31564696D02*
X111739653Y-31467934D01*
X111739653Y-31467934D02*
X111546129Y-31371173D01*
X111546129Y-31371173D02*
X111449367Y-31274411D01*
X111449367Y-31274411D02*
X111352605Y-31080887D01*
X111352605Y-31080887D02*
X111352605Y-30887363D01*
X111352605Y-30887363D02*
X111449367Y-30693839D01*
X111449367Y-30693839D02*
X111546129Y-30597077D01*
X111546129Y-30597077D02*
X111739653Y-30500315D01*
X111739653Y-30500315D02*
X112223462Y-30500315D01*
X112223462Y-30500315D02*
X112513748Y-30597077D01*
X113384605Y-31758220D02*
X114932796Y-31758220D01*
X116190701Y-31371173D02*
X115997177Y-31274411D01*
X115997177Y-31274411D02*
X115900415Y-31177649D01*
X115900415Y-31177649D02*
X115803653Y-30984125D01*
X115803653Y-30984125D02*
X115803653Y-30887363D01*
X115803653Y-30887363D02*
X115900415Y-30693839D01*
X115900415Y-30693839D02*
X115997177Y-30597077D01*
X115997177Y-30597077D02*
X116190701Y-30500315D01*
X116190701Y-30500315D02*
X116577748Y-30500315D01*
X116577748Y-30500315D02*
X116771272Y-30597077D01*
X116771272Y-30597077D02*
X116868034Y-30693839D01*
X116868034Y-30693839D02*
X116964796Y-30887363D01*
X116964796Y-30887363D02*
X116964796Y-30984125D01*
X116964796Y-30984125D02*
X116868034Y-31177649D01*
X116868034Y-31177649D02*
X116771272Y-31274411D01*
X116771272Y-31274411D02*
X116577748Y-31371173D01*
X116577748Y-31371173D02*
X116190701Y-31371173D01*
X116190701Y-31371173D02*
X115997177Y-31467934D01*
X115997177Y-31467934D02*
X115900415Y-31564696D01*
X115900415Y-31564696D02*
X115803653Y-31758220D01*
X115803653Y-31758220D02*
X115803653Y-32145268D01*
X115803653Y-32145268D02*
X115900415Y-32338792D01*
X115900415Y-32338792D02*
X115997177Y-32435554D01*
X115997177Y-32435554D02*
X116190701Y-32532315D01*
X116190701Y-32532315D02*
X116577748Y-32532315D01*
X116577748Y-32532315D02*
X116771272Y-32435554D01*
X116771272Y-32435554D02*
X116868034Y-32338792D01*
X116868034Y-32338792D02*
X116964796Y-32145268D01*
X116964796Y-32145268D02*
X116964796Y-31758220D01*
X116964796Y-31758220D02*
X116868034Y-31564696D01*
X116868034Y-31564696D02*
X116771272Y-31467934D01*
X116771272Y-31467934D02*
X116577748Y-31371173D01*
X118222701Y-30500315D02*
X118416224Y-30500315D01*
X118416224Y-30500315D02*
X118609748Y-30597077D01*
X118609748Y-30597077D02*
X118706510Y-30693839D01*
X118706510Y-30693839D02*
X118803272Y-30887363D01*
X118803272Y-30887363D02*
X118900034Y-31274411D01*
X118900034Y-31274411D02*
X118900034Y-31758220D01*
X118900034Y-31758220D02*
X118803272Y-32145268D01*
X118803272Y-32145268D02*
X118706510Y-32338792D01*
X118706510Y-32338792D02*
X118609748Y-32435554D01*
X118609748Y-32435554D02*
X118416224Y-32532315D01*
X118416224Y-32532315D02*
X118222701Y-32532315D01*
X118222701Y-32532315D02*
X118029177Y-32435554D01*
X118029177Y-32435554D02*
X117932415Y-32338792D01*
X117932415Y-32338792D02*
X117835653Y-32145268D01*
X117835653Y-32145268D02*
X117738891Y-31758220D01*
X117738891Y-31758220D02*
X117738891Y-31274411D01*
X117738891Y-31274411D02*
X117835653Y-30887363D01*
X117835653Y-30887363D02*
X117932415Y-30693839D01*
X117932415Y-30693839D02*
X118029177Y-30597077D01*
X118029177Y-30597077D02*
X118222701Y-30500315D01*
X121028795Y-31177649D02*
X121802891Y-31177649D01*
X121319081Y-30500315D02*
X121319081Y-32242030D01*
X121319081Y-32242030D02*
X121415843Y-32435554D01*
X121415843Y-32435554D02*
X121609367Y-32532315D01*
X121609367Y-32532315D02*
X121802891Y-32532315D01*
X122770510Y-32532315D02*
X122576986Y-32435554D01*
X122576986Y-32435554D02*
X122480224Y-32338792D01*
X122480224Y-32338792D02*
X122383462Y-32145268D01*
X122383462Y-32145268D02*
X122383462Y-31564696D01*
X122383462Y-31564696D02*
X122480224Y-31371173D01*
X122480224Y-31371173D02*
X122576986Y-31274411D01*
X122576986Y-31274411D02*
X122770510Y-31177649D01*
X122770510Y-31177649D02*
X123060795Y-31177649D01*
X123060795Y-31177649D02*
X123254319Y-31274411D01*
X123254319Y-31274411D02*
X123351081Y-31371173D01*
X123351081Y-31371173D02*
X123447843Y-31564696D01*
X123447843Y-31564696D02*
X123447843Y-32145268D01*
X123447843Y-32145268D02*
X123351081Y-32338792D01*
X123351081Y-32338792D02*
X123254319Y-32435554D01*
X123254319Y-32435554D02*
X123060795Y-32532315D01*
X123060795Y-32532315D02*
X122770510Y-32532315D01*
X125866890Y-32532315D02*
X125866890Y-30500315D01*
X125866890Y-30500315D02*
X126544223Y-31951744D01*
X126544223Y-31951744D02*
X127221557Y-30500315D01*
X127221557Y-30500315D02*
X127221557Y-32532315D01*
X128479462Y-32532315D02*
X128285938Y-32435554D01*
X128285938Y-32435554D02*
X128189176Y-32338792D01*
X128189176Y-32338792D02*
X128092414Y-32145268D01*
X128092414Y-32145268D02*
X128092414Y-31564696D01*
X128092414Y-31564696D02*
X128189176Y-31371173D01*
X128189176Y-31371173D02*
X128285938Y-31274411D01*
X128285938Y-31274411D02*
X128479462Y-31177649D01*
X128479462Y-31177649D02*
X128769747Y-31177649D01*
X128769747Y-31177649D02*
X128963271Y-31274411D01*
X128963271Y-31274411D02*
X129060033Y-31371173D01*
X129060033Y-31371173D02*
X129156795Y-31564696D01*
X129156795Y-31564696D02*
X129156795Y-32145268D01*
X129156795Y-32145268D02*
X129060033Y-32338792D01*
X129060033Y-32338792D02*
X128963271Y-32435554D01*
X128963271Y-32435554D02*
X128769747Y-32532315D01*
X128769747Y-32532315D02*
X128479462Y-32532315D01*
X130898509Y-32532315D02*
X130898509Y-30500315D01*
X130898509Y-32435554D02*
X130704985Y-32532315D01*
X130704985Y-32532315D02*
X130317938Y-32532315D01*
X130317938Y-32532315D02*
X130124414Y-32435554D01*
X130124414Y-32435554D02*
X130027652Y-32338792D01*
X130027652Y-32338792D02*
X129930890Y-32145268D01*
X129930890Y-32145268D02*
X129930890Y-31564696D01*
X129930890Y-31564696D02*
X130027652Y-31371173D01*
X130027652Y-31371173D02*
X130124414Y-31274411D01*
X130124414Y-31274411D02*
X130317938Y-31177649D01*
X130317938Y-31177649D02*
X130704985Y-31177649D01*
X130704985Y-31177649D02*
X130898509Y-31274411D01*
X132640223Y-32435554D02*
X132446699Y-32532315D01*
X132446699Y-32532315D02*
X132059652Y-32532315D01*
X132059652Y-32532315D02*
X131866128Y-32435554D01*
X131866128Y-32435554D02*
X131769366Y-32242030D01*
X131769366Y-32242030D02*
X131769366Y-31467934D01*
X131769366Y-31467934D02*
X131866128Y-31274411D01*
X131866128Y-31274411D02*
X132059652Y-31177649D01*
X132059652Y-31177649D02*
X132446699Y-31177649D01*
X132446699Y-31177649D02*
X132640223Y-31274411D01*
X132640223Y-31274411D02*
X132736985Y-31467934D01*
X132736985Y-31467934D02*
X132736985Y-31661458D01*
X132736985Y-31661458D02*
X131769366Y-31854982D01*
X133607842Y-32532315D02*
X133607842Y-31177649D01*
X133607842Y-31564696D02*
X133704604Y-31371173D01*
X133704604Y-31371173D02*
X133801366Y-31274411D01*
X133801366Y-31274411D02*
X133994890Y-31177649D01*
X133994890Y-31177649D02*
X134188413Y-31177649D01*
X134865747Y-31177649D02*
X134865747Y-32532315D01*
X134865747Y-31371173D02*
X134962509Y-31274411D01*
X134962509Y-31274411D02*
X135156033Y-31177649D01*
X135156033Y-31177649D02*
X135446318Y-31177649D01*
X135446318Y-31177649D02*
X135639842Y-31274411D01*
X135639842Y-31274411D02*
X135736604Y-31467934D01*
X135736604Y-31467934D02*
X135736604Y-32532315D01*
X110094700Y-34739340D02*
X109417367Y-34739340D01*
X109417367Y-35803721D02*
X109417367Y-33771721D01*
X109417367Y-33771721D02*
X110384986Y-33771721D01*
X111449367Y-35803721D02*
X111255843Y-35706960D01*
X111255843Y-35706960D02*
X111159081Y-35513436D01*
X111159081Y-35513436D02*
X111159081Y-33771721D01*
X112513748Y-35803721D02*
X112320224Y-35706960D01*
X112320224Y-35706960D02*
X112223462Y-35610198D01*
X112223462Y-35610198D02*
X112126700Y-35416674D01*
X112126700Y-35416674D02*
X112126700Y-34836102D01*
X112126700Y-34836102D02*
X112223462Y-34642579D01*
X112223462Y-34642579D02*
X112320224Y-34545817D01*
X112320224Y-34545817D02*
X112513748Y-34449055D01*
X112513748Y-34449055D02*
X112804033Y-34449055D01*
X112804033Y-34449055D02*
X112997557Y-34545817D01*
X112997557Y-34545817D02*
X113094319Y-34642579D01*
X113094319Y-34642579D02*
X113191081Y-34836102D01*
X113191081Y-34836102D02*
X113191081Y-35416674D01*
X113191081Y-35416674D02*
X113094319Y-35610198D01*
X113094319Y-35610198D02*
X112997557Y-35706960D01*
X112997557Y-35706960D02*
X112804033Y-35803721D01*
X112804033Y-35803721D02*
X112513748Y-35803721D01*
X114061938Y-34449055D02*
X114061938Y-36481055D01*
X114061938Y-34545817D02*
X114255462Y-34449055D01*
X114255462Y-34449055D02*
X114642509Y-34449055D01*
X114642509Y-34449055D02*
X114836033Y-34545817D01*
X114836033Y-34545817D02*
X114932795Y-34642579D01*
X114932795Y-34642579D02*
X115029557Y-34836102D01*
X115029557Y-34836102D02*
X115029557Y-35416674D01*
X115029557Y-35416674D02*
X114932795Y-35610198D01*
X114932795Y-35610198D02*
X114836033Y-35706960D01*
X114836033Y-35706960D02*
X114642509Y-35803721D01*
X114642509Y-35803721D02*
X114255462Y-35803721D01*
X114255462Y-35803721D02*
X114061938Y-35706960D01*
X115900414Y-34449055D02*
X115900414Y-36481055D01*
X115900414Y-34545817D02*
X116093938Y-34449055D01*
X116093938Y-34449055D02*
X116480985Y-34449055D01*
X116480985Y-34449055D02*
X116674509Y-34545817D01*
X116674509Y-34545817D02*
X116771271Y-34642579D01*
X116771271Y-34642579D02*
X116868033Y-34836102D01*
X116868033Y-34836102D02*
X116868033Y-35416674D01*
X116868033Y-35416674D02*
X116771271Y-35610198D01*
X116771271Y-35610198D02*
X116674509Y-35706960D01*
X116674509Y-35706960D02*
X116480985Y-35803721D01*
X116480985Y-35803721D02*
X116093938Y-35803721D01*
X116093938Y-35803721D02*
X115900414Y-35706960D01*
X117545366Y-34449055D02*
X118029176Y-35803721D01*
X118512985Y-34449055D02*
X118029176Y-35803721D01*
X118029176Y-35803721D02*
X117835652Y-36287531D01*
X117835652Y-36287531D02*
X117738890Y-36384293D01*
X117738890Y-36384293D02*
X117545366Y-36481055D01*
X120738508Y-35223150D02*
X121706127Y-35223150D01*
X120544984Y-35803721D02*
X121222318Y-33771721D01*
X121222318Y-33771721D02*
X121899651Y-35803721D01*
X123447841Y-35803721D02*
X123447841Y-33771721D01*
X123447841Y-35706960D02*
X123254317Y-35803721D01*
X123254317Y-35803721D02*
X122867270Y-35803721D01*
X122867270Y-35803721D02*
X122673746Y-35706960D01*
X122673746Y-35706960D02*
X122576984Y-35610198D01*
X122576984Y-35610198D02*
X122480222Y-35416674D01*
X122480222Y-35416674D02*
X122480222Y-34836102D01*
X122480222Y-34836102D02*
X122576984Y-34642579D01*
X122576984Y-34642579D02*
X122673746Y-34545817D01*
X122673746Y-34545817D02*
X122867270Y-34449055D01*
X122867270Y-34449055D02*
X123254317Y-34449055D01*
X123254317Y-34449055D02*
X123447841Y-34545817D01*
X125286317Y-35803721D02*
X125286317Y-34739340D01*
X125286317Y-34739340D02*
X125189555Y-34545817D01*
X125189555Y-34545817D02*
X124996031Y-34449055D01*
X124996031Y-34449055D02*
X124608984Y-34449055D01*
X124608984Y-34449055D02*
X124415460Y-34545817D01*
X125286317Y-35706960D02*
X125092793Y-35803721D01*
X125092793Y-35803721D02*
X124608984Y-35803721D01*
X124608984Y-35803721D02*
X124415460Y-35706960D01*
X124415460Y-35706960D02*
X124318698Y-35513436D01*
X124318698Y-35513436D02*
X124318698Y-35319912D01*
X124318698Y-35319912D02*
X124415460Y-35126388D01*
X124415460Y-35126388D02*
X124608984Y-35029626D01*
X124608984Y-35029626D02*
X125092793Y-35029626D01*
X125092793Y-35029626D02*
X125286317Y-34932864D01*
X126253936Y-34449055D02*
X126253936Y-36481055D01*
X126253936Y-34545817D02*
X126447460Y-34449055D01*
X126447460Y-34449055D02*
X126834507Y-34449055D01*
X126834507Y-34449055D02*
X127028031Y-34545817D01*
X127028031Y-34545817D02*
X127124793Y-34642579D01*
X127124793Y-34642579D02*
X127221555Y-34836102D01*
X127221555Y-34836102D02*
X127221555Y-35416674D01*
X127221555Y-35416674D02*
X127124793Y-35610198D01*
X127124793Y-35610198D02*
X127028031Y-35706960D01*
X127028031Y-35706960D02*
X126834507Y-35803721D01*
X126834507Y-35803721D02*
X126447460Y-35803721D01*
X126447460Y-35803721D02*
X126253936Y-35706960D01*
X127802126Y-34449055D02*
X128576222Y-34449055D01*
X128092412Y-33771721D02*
X128092412Y-35513436D01*
X128092412Y-35513436D02*
X128189174Y-35706960D01*
X128189174Y-35706960D02*
X128382698Y-35803721D01*
X128382698Y-35803721D02*
X128576222Y-35803721D01*
X130027650Y-35706960D02*
X129834126Y-35803721D01*
X129834126Y-35803721D02*
X129447079Y-35803721D01*
X129447079Y-35803721D02*
X129253555Y-35706960D01*
X129253555Y-35706960D02*
X129156793Y-35513436D01*
X129156793Y-35513436D02*
X129156793Y-34739340D01*
X129156793Y-34739340D02*
X129253555Y-34545817D01*
X129253555Y-34545817D02*
X129447079Y-34449055D01*
X129447079Y-34449055D02*
X129834126Y-34449055D01*
X129834126Y-34449055D02*
X130027650Y-34545817D01*
X130027650Y-34545817D02*
X130124412Y-34739340D01*
X130124412Y-34739340D02*
X130124412Y-34932864D01*
X130124412Y-34932864D02*
X129156793Y-35126388D01*
X130995269Y-35803721D02*
X130995269Y-34449055D01*
X130995269Y-34836102D02*
X131092031Y-34642579D01*
X131092031Y-34642579D02*
X131188793Y-34545817D01*
X131188793Y-34545817D02*
X131382317Y-34449055D01*
X131382317Y-34449055D02*
X131575840Y-34449055D01*
D13*
X159474819Y-85423333D02*
X160189104Y-85423333D01*
X160189104Y-85423333D02*
X160331961Y-85470952D01*
X160331961Y-85470952D02*
X160427200Y-85566190D01*
X160427200Y-85566190D02*
X160474819Y-85709047D01*
X160474819Y-85709047D02*
X160474819Y-85804285D01*
X159474819Y-85042380D02*
X159474819Y-84423333D01*
X159474819Y-84423333D02*
X159855771Y-84756666D01*
X159855771Y-84756666D02*
X159855771Y-84613809D01*
X159855771Y-84613809D02*
X159903390Y-84518571D01*
X159903390Y-84518571D02*
X159951009Y-84470952D01*
X159951009Y-84470952D02*
X160046247Y-84423333D01*
X160046247Y-84423333D02*
X160284342Y-84423333D01*
X160284342Y-84423333D02*
X160379580Y-84470952D01*
X160379580Y-84470952D02*
X160427200Y-84518571D01*
X160427200Y-84518571D02*
X160474819Y-84613809D01*
X160474819Y-84613809D02*
X160474819Y-84899523D01*
X160474819Y-84899523D02*
X160427200Y-84994761D01*
X160427200Y-84994761D02*
X160379580Y-85042380D01*
X105880819Y-106171904D02*
X106690342Y-106171904D01*
X106690342Y-106171904D02*
X106785580Y-106124285D01*
X106785580Y-106124285D02*
X106833200Y-106076666D01*
X106833200Y-106076666D02*
X106880819Y-105981428D01*
X106880819Y-105981428D02*
X106880819Y-105790952D01*
X106880819Y-105790952D02*
X106833200Y-105695714D01*
X106833200Y-105695714D02*
X106785580Y-105648095D01*
X106785580Y-105648095D02*
X106690342Y-105600476D01*
X106690342Y-105600476D02*
X105880819Y-105600476D01*
X106880819Y-104600476D02*
X106880819Y-105171904D01*
X106880819Y-104886190D02*
X105880819Y-104886190D01*
X105880819Y-104886190D02*
X106023676Y-104981428D01*
X106023676Y-104981428D02*
X106118914Y-105076666D01*
X106118914Y-105076666D02*
X106166533Y-105171904D01*
X160982819Y-138873714D02*
X159982819Y-138873714D01*
X159982819Y-138873714D02*
X159982819Y-138492762D01*
X159982819Y-138492762D02*
X160030438Y-138397524D01*
X160030438Y-138397524D02*
X160078057Y-138349905D01*
X160078057Y-138349905D02*
X160173295Y-138302286D01*
X160173295Y-138302286D02*
X160316152Y-138302286D01*
X160316152Y-138302286D02*
X160411390Y-138349905D01*
X160411390Y-138349905D02*
X160459009Y-138397524D01*
X160459009Y-138397524D02*
X160506628Y-138492762D01*
X160506628Y-138492762D02*
X160506628Y-138873714D01*
X160887580Y-137302286D02*
X160935200Y-137349905D01*
X160935200Y-137349905D02*
X160982819Y-137492762D01*
X160982819Y-137492762D02*
X160982819Y-137588000D01*
X160982819Y-137588000D02*
X160935200Y-137730857D01*
X160935200Y-137730857D02*
X160839961Y-137826095D01*
X160839961Y-137826095D02*
X160744723Y-137873714D01*
X160744723Y-137873714D02*
X160554247Y-137921333D01*
X160554247Y-137921333D02*
X160411390Y-137921333D01*
X160411390Y-137921333D02*
X160220914Y-137873714D01*
X160220914Y-137873714D02*
X160125676Y-137826095D01*
X160125676Y-137826095D02*
X160030438Y-137730857D01*
X160030438Y-137730857D02*
X159982819Y-137588000D01*
X159982819Y-137588000D02*
X159982819Y-137492762D01*
X159982819Y-137492762D02*
X160030438Y-137349905D01*
X160030438Y-137349905D02*
X160078057Y-137302286D01*
X160459009Y-135778476D02*
X160459009Y-136111809D01*
X160982819Y-136111809D02*
X159982819Y-136111809D01*
X159982819Y-136111809D02*
X159982819Y-135635619D01*
X160982819Y-135111809D02*
X160935200Y-135207047D01*
X160935200Y-135207047D02*
X160839961Y-135254666D01*
X160839961Y-135254666D02*
X159982819Y-135254666D01*
X160982819Y-134587999D02*
X160935200Y-134683237D01*
X160935200Y-134683237D02*
X160887580Y-134730856D01*
X160887580Y-134730856D02*
X160792342Y-134778475D01*
X160792342Y-134778475D02*
X160506628Y-134778475D01*
X160506628Y-134778475D02*
X160411390Y-134730856D01*
X160411390Y-134730856D02*
X160363771Y-134683237D01*
X160363771Y-134683237D02*
X160316152Y-134587999D01*
X160316152Y-134587999D02*
X160316152Y-134445142D01*
X160316152Y-134445142D02*
X160363771Y-134349904D01*
X160363771Y-134349904D02*
X160411390Y-134302285D01*
X160411390Y-134302285D02*
X160506628Y-134254666D01*
X160506628Y-134254666D02*
X160792342Y-134254666D01*
X160792342Y-134254666D02*
X160887580Y-134302285D01*
X160887580Y-134302285D02*
X160935200Y-134349904D01*
X160935200Y-134349904D02*
X160982819Y-134445142D01*
X160982819Y-134445142D02*
X160982819Y-134587999D01*
X160316152Y-133826094D02*
X161316152Y-133826094D01*
X160363771Y-133826094D02*
X160316152Y-133730856D01*
X160316152Y-133730856D02*
X160316152Y-133540380D01*
X160316152Y-133540380D02*
X160363771Y-133445142D01*
X160363771Y-133445142D02*
X160411390Y-133397523D01*
X160411390Y-133397523D02*
X160506628Y-133349904D01*
X160506628Y-133349904D02*
X160792342Y-133349904D01*
X160792342Y-133349904D02*
X160887580Y-133397523D01*
X160887580Y-133397523D02*
X160935200Y-133445142D01*
X160935200Y-133445142D02*
X160982819Y-133540380D01*
X160982819Y-133540380D02*
X160982819Y-133730856D01*
X160982819Y-133730856D02*
X160935200Y-133826094D01*
X160316152Y-132921332D02*
X161316152Y-132921332D01*
X160363771Y-132921332D02*
X160316152Y-132826094D01*
X160316152Y-132826094D02*
X160316152Y-132635618D01*
X160316152Y-132635618D02*
X160363771Y-132540380D01*
X160363771Y-132540380D02*
X160411390Y-132492761D01*
X160411390Y-132492761D02*
X160506628Y-132445142D01*
X160506628Y-132445142D02*
X160792342Y-132445142D01*
X160792342Y-132445142D02*
X160887580Y-132492761D01*
X160887580Y-132492761D02*
X160935200Y-132540380D01*
X160935200Y-132540380D02*
X160982819Y-132635618D01*
X160982819Y-132635618D02*
X160982819Y-132826094D01*
X160982819Y-132826094D02*
X160935200Y-132921332D01*
X160316152Y-132111808D02*
X160982819Y-131873713D01*
X160316152Y-131635618D02*
X160982819Y-131873713D01*
X160982819Y-131873713D02*
X161220914Y-131968951D01*
X161220914Y-131968951D02*
X161268533Y-132016570D01*
X161268533Y-132016570D02*
X161316152Y-132111808D01*
X160982819Y-129968951D02*
X160982819Y-130540379D01*
X160982819Y-130254665D02*
X159982819Y-130254665D01*
X159982819Y-130254665D02*
X160125676Y-130349903D01*
X160125676Y-130349903D02*
X160220914Y-130445141D01*
X160220914Y-130445141D02*
X160268533Y-130540379D01*
X160982819Y-127968950D02*
X160982819Y-128016570D01*
X160982819Y-128016570D02*
X160935200Y-128111808D01*
X160935200Y-128111808D02*
X160792342Y-128254665D01*
X160792342Y-128254665D02*
X160506628Y-128492760D01*
X160506628Y-128492760D02*
X160363771Y-128587998D01*
X160363771Y-128587998D02*
X160220914Y-128635617D01*
X160220914Y-128635617D02*
X160125676Y-128635617D01*
X160125676Y-128635617D02*
X160030438Y-128587998D01*
X160030438Y-128587998D02*
X159982819Y-128492760D01*
X159982819Y-128492760D02*
X159982819Y-128445141D01*
X159982819Y-128445141D02*
X160030438Y-128349903D01*
X160030438Y-128349903D02*
X160125676Y-128302284D01*
X160125676Y-128302284D02*
X160173295Y-128302284D01*
X160173295Y-128302284D02*
X160268533Y-128349903D01*
X160268533Y-128349903D02*
X160316152Y-128397522D01*
X160316152Y-128397522D02*
X160506628Y-128683236D01*
X160506628Y-128683236D02*
X160554247Y-128730855D01*
X160554247Y-128730855D02*
X160649485Y-128778474D01*
X160649485Y-128778474D02*
X160792342Y-128778474D01*
X160792342Y-128778474D02*
X160887580Y-128730855D01*
X160887580Y-128730855D02*
X160935200Y-128683236D01*
X160935200Y-128683236D02*
X160982819Y-128587998D01*
X160982819Y-128587998D02*
X160982819Y-128445141D01*
X160982819Y-128445141D02*
X160935200Y-128349903D01*
X160935200Y-128349903D02*
X160887580Y-128302284D01*
X160887580Y-128302284D02*
X160697104Y-128159427D01*
X160697104Y-128159427D02*
X160554247Y-128111808D01*
X160554247Y-128111808D02*
X160459009Y-128111808D01*
X160078057Y-126826093D02*
X160030438Y-126778474D01*
X160030438Y-126778474D02*
X159982819Y-126683236D01*
X159982819Y-126683236D02*
X159982819Y-126445141D01*
X159982819Y-126445141D02*
X160030438Y-126349903D01*
X160030438Y-126349903D02*
X160078057Y-126302284D01*
X160078057Y-126302284D02*
X160173295Y-126254665D01*
X160173295Y-126254665D02*
X160268533Y-126254665D01*
X160268533Y-126254665D02*
X160411390Y-126302284D01*
X160411390Y-126302284D02*
X160982819Y-126873712D01*
X160982819Y-126873712D02*
X160982819Y-126254665D01*
X151076819Y-101766666D02*
X150600628Y-102099999D01*
X151076819Y-102338094D02*
X150076819Y-102338094D01*
X150076819Y-102338094D02*
X150076819Y-101957142D01*
X150076819Y-101957142D02*
X150124438Y-101861904D01*
X150124438Y-101861904D02*
X150172057Y-101814285D01*
X150172057Y-101814285D02*
X150267295Y-101766666D01*
X150267295Y-101766666D02*
X150410152Y-101766666D01*
X150410152Y-101766666D02*
X150505390Y-101814285D01*
X150505390Y-101814285D02*
X150553009Y-101861904D01*
X150553009Y-101861904D02*
X150600628Y-101957142D01*
X150600628Y-101957142D02*
X150600628Y-102338094D01*
X150076819Y-101433332D02*
X150076819Y-100814285D01*
X150076819Y-100814285D02*
X150457771Y-101147618D01*
X150457771Y-101147618D02*
X150457771Y-101004761D01*
X150457771Y-101004761D02*
X150505390Y-100909523D01*
X150505390Y-100909523D02*
X150553009Y-100861904D01*
X150553009Y-100861904D02*
X150648247Y-100814285D01*
X150648247Y-100814285D02*
X150886342Y-100814285D01*
X150886342Y-100814285D02*
X150981580Y-100861904D01*
X150981580Y-100861904D02*
X151029200Y-100909523D01*
X151029200Y-100909523D02*
X151076819Y-101004761D01*
X151076819Y-101004761D02*
X151076819Y-101290475D01*
X151076819Y-101290475D02*
X151029200Y-101385713D01*
X151029200Y-101385713D02*
X150981580Y-101433332D01*
X149084819Y-108283333D02*
X149799104Y-108283333D01*
X149799104Y-108283333D02*
X149941961Y-108330952D01*
X149941961Y-108330952D02*
X150037200Y-108426190D01*
X150037200Y-108426190D02*
X150084819Y-108569047D01*
X150084819Y-108569047D02*
X150084819Y-108664285D01*
X149418152Y-107378571D02*
X150084819Y-107378571D01*
X149037200Y-107616666D02*
X149751485Y-107854761D01*
X149751485Y-107854761D02*
X149751485Y-107235714D01*
X160728819Y-67499714D02*
X159728819Y-67499714D01*
X159728819Y-67499714D02*
X159728819Y-67118762D01*
X159728819Y-67118762D02*
X159776438Y-67023524D01*
X159776438Y-67023524D02*
X159824057Y-66975905D01*
X159824057Y-66975905D02*
X159919295Y-66928286D01*
X159919295Y-66928286D02*
X160062152Y-66928286D01*
X160062152Y-66928286D02*
X160157390Y-66975905D01*
X160157390Y-66975905D02*
X160205009Y-67023524D01*
X160205009Y-67023524D02*
X160252628Y-67118762D01*
X160252628Y-67118762D02*
X160252628Y-67499714D01*
X160633580Y-65928286D02*
X160681200Y-65975905D01*
X160681200Y-65975905D02*
X160728819Y-66118762D01*
X160728819Y-66118762D02*
X160728819Y-66214000D01*
X160728819Y-66214000D02*
X160681200Y-66356857D01*
X160681200Y-66356857D02*
X160585961Y-66452095D01*
X160585961Y-66452095D02*
X160490723Y-66499714D01*
X160490723Y-66499714D02*
X160300247Y-66547333D01*
X160300247Y-66547333D02*
X160157390Y-66547333D01*
X160157390Y-66547333D02*
X159966914Y-66499714D01*
X159966914Y-66499714D02*
X159871676Y-66452095D01*
X159871676Y-66452095D02*
X159776438Y-66356857D01*
X159776438Y-66356857D02*
X159728819Y-66214000D01*
X159728819Y-66214000D02*
X159728819Y-66118762D01*
X159728819Y-66118762D02*
X159776438Y-65975905D01*
X159776438Y-65975905D02*
X159824057Y-65928286D01*
X160205009Y-64404476D02*
X160205009Y-64737809D01*
X160728819Y-64737809D02*
X159728819Y-64737809D01*
X159728819Y-64737809D02*
X159728819Y-64261619D01*
X160728819Y-63737809D02*
X160681200Y-63833047D01*
X160681200Y-63833047D02*
X160585961Y-63880666D01*
X160585961Y-63880666D02*
X159728819Y-63880666D01*
X160728819Y-63213999D02*
X160681200Y-63309237D01*
X160681200Y-63309237D02*
X160633580Y-63356856D01*
X160633580Y-63356856D02*
X160538342Y-63404475D01*
X160538342Y-63404475D02*
X160252628Y-63404475D01*
X160252628Y-63404475D02*
X160157390Y-63356856D01*
X160157390Y-63356856D02*
X160109771Y-63309237D01*
X160109771Y-63309237D02*
X160062152Y-63213999D01*
X160062152Y-63213999D02*
X160062152Y-63071142D01*
X160062152Y-63071142D02*
X160109771Y-62975904D01*
X160109771Y-62975904D02*
X160157390Y-62928285D01*
X160157390Y-62928285D02*
X160252628Y-62880666D01*
X160252628Y-62880666D02*
X160538342Y-62880666D01*
X160538342Y-62880666D02*
X160633580Y-62928285D01*
X160633580Y-62928285D02*
X160681200Y-62975904D01*
X160681200Y-62975904D02*
X160728819Y-63071142D01*
X160728819Y-63071142D02*
X160728819Y-63213999D01*
X160062152Y-62452094D02*
X161062152Y-62452094D01*
X160109771Y-62452094D02*
X160062152Y-62356856D01*
X160062152Y-62356856D02*
X160062152Y-62166380D01*
X160062152Y-62166380D02*
X160109771Y-62071142D01*
X160109771Y-62071142D02*
X160157390Y-62023523D01*
X160157390Y-62023523D02*
X160252628Y-61975904D01*
X160252628Y-61975904D02*
X160538342Y-61975904D01*
X160538342Y-61975904D02*
X160633580Y-62023523D01*
X160633580Y-62023523D02*
X160681200Y-62071142D01*
X160681200Y-62071142D02*
X160728819Y-62166380D01*
X160728819Y-62166380D02*
X160728819Y-62356856D01*
X160728819Y-62356856D02*
X160681200Y-62452094D01*
X160062152Y-61547332D02*
X161062152Y-61547332D01*
X160109771Y-61547332D02*
X160062152Y-61452094D01*
X160062152Y-61452094D02*
X160062152Y-61261618D01*
X160062152Y-61261618D02*
X160109771Y-61166380D01*
X160109771Y-61166380D02*
X160157390Y-61118761D01*
X160157390Y-61118761D02*
X160252628Y-61071142D01*
X160252628Y-61071142D02*
X160538342Y-61071142D01*
X160538342Y-61071142D02*
X160633580Y-61118761D01*
X160633580Y-61118761D02*
X160681200Y-61166380D01*
X160681200Y-61166380D02*
X160728819Y-61261618D01*
X160728819Y-61261618D02*
X160728819Y-61452094D01*
X160728819Y-61452094D02*
X160681200Y-61547332D01*
X160062152Y-60737808D02*
X160728819Y-60499713D01*
X160062152Y-60261618D02*
X160728819Y-60499713D01*
X160728819Y-60499713D02*
X160966914Y-60594951D01*
X160966914Y-60594951D02*
X161014533Y-60642570D01*
X161014533Y-60642570D02*
X161062152Y-60737808D01*
X159728819Y-59213998D02*
X159728819Y-58594951D01*
X159728819Y-58594951D02*
X160109771Y-58928284D01*
X160109771Y-58928284D02*
X160109771Y-58785427D01*
X160109771Y-58785427D02*
X160157390Y-58690189D01*
X160157390Y-58690189D02*
X160205009Y-58642570D01*
X160205009Y-58642570D02*
X160300247Y-58594951D01*
X160300247Y-58594951D02*
X160538342Y-58594951D01*
X160538342Y-58594951D02*
X160633580Y-58642570D01*
X160633580Y-58642570D02*
X160681200Y-58690189D01*
X160681200Y-58690189D02*
X160728819Y-58785427D01*
X160728819Y-58785427D02*
X160728819Y-59071141D01*
X160728819Y-59071141D02*
X160681200Y-59166379D01*
X160681200Y-59166379D02*
X160633580Y-59213998D01*
X160728819Y-56594950D02*
X160728819Y-56642570D01*
X160728819Y-56642570D02*
X160681200Y-56737808D01*
X160681200Y-56737808D02*
X160538342Y-56880665D01*
X160538342Y-56880665D02*
X160252628Y-57118760D01*
X160252628Y-57118760D02*
X160109771Y-57213998D01*
X160109771Y-57213998D02*
X159966914Y-57261617D01*
X159966914Y-57261617D02*
X159871676Y-57261617D01*
X159871676Y-57261617D02*
X159776438Y-57213998D01*
X159776438Y-57213998D02*
X159728819Y-57118760D01*
X159728819Y-57118760D02*
X159728819Y-57071141D01*
X159728819Y-57071141D02*
X159776438Y-56975903D01*
X159776438Y-56975903D02*
X159871676Y-56928284D01*
X159871676Y-56928284D02*
X159919295Y-56928284D01*
X159919295Y-56928284D02*
X160014533Y-56975903D01*
X160014533Y-56975903D02*
X160062152Y-57023522D01*
X160062152Y-57023522D02*
X160252628Y-57309236D01*
X160252628Y-57309236D02*
X160300247Y-57356855D01*
X160300247Y-57356855D02*
X160395485Y-57404474D01*
X160395485Y-57404474D02*
X160538342Y-57404474D01*
X160538342Y-57404474D02*
X160633580Y-57356855D01*
X160633580Y-57356855D02*
X160681200Y-57309236D01*
X160681200Y-57309236D02*
X160728819Y-57213998D01*
X160728819Y-57213998D02*
X160728819Y-57071141D01*
X160728819Y-57071141D02*
X160681200Y-56975903D01*
X160681200Y-56975903D02*
X160633580Y-56928284D01*
X160633580Y-56928284D02*
X160443104Y-56785427D01*
X160443104Y-56785427D02*
X160300247Y-56737808D01*
X160300247Y-56737808D02*
X160205009Y-56737808D01*
X160062152Y-54975903D02*
X160728819Y-54975903D01*
X159681200Y-55213998D02*
X160395485Y-55452093D01*
X160395485Y-55452093D02*
X160395485Y-54833046D01*
X105372819Y-50879333D02*
X106087104Y-50879333D01*
X106087104Y-50879333D02*
X106229961Y-50926952D01*
X106229961Y-50926952D02*
X106325200Y-51022190D01*
X106325200Y-51022190D02*
X106372819Y-51165047D01*
X106372819Y-51165047D02*
X106372819Y-51260285D01*
X106372819Y-49879333D02*
X106372819Y-50450761D01*
X106372819Y-50165047D02*
X105372819Y-50165047D01*
X105372819Y-50165047D02*
X105515676Y-50260285D01*
X105515676Y-50260285D02*
X105610914Y-50355523D01*
X105610914Y-50355523D02*
X105658533Y-50450761D01*
X151076819Y-91606666D02*
X150600628Y-91939999D01*
X151076819Y-92178094D02*
X150076819Y-92178094D01*
X150076819Y-92178094D02*
X150076819Y-91797142D01*
X150076819Y-91797142D02*
X150124438Y-91701904D01*
X150124438Y-91701904D02*
X150172057Y-91654285D01*
X150172057Y-91654285D02*
X150267295Y-91606666D01*
X150267295Y-91606666D02*
X150410152Y-91606666D01*
X150410152Y-91606666D02*
X150505390Y-91654285D01*
X150505390Y-91654285D02*
X150553009Y-91701904D01*
X150553009Y-91701904D02*
X150600628Y-91797142D01*
X150600628Y-91797142D02*
X150600628Y-92178094D01*
X151076819Y-90654285D02*
X151076819Y-91225713D01*
X151076819Y-90939999D02*
X150076819Y-90939999D01*
X150076819Y-90939999D02*
X150219676Y-91035237D01*
X150219676Y-91035237D02*
X150314914Y-91130475D01*
X150314914Y-91130475D02*
X150362533Y-91225713D01*
X92672819Y-137897332D02*
X92672819Y-137325904D01*
X93672819Y-137611618D02*
X92672819Y-137611618D01*
X93672819Y-136421142D02*
X93196628Y-136754475D01*
X93672819Y-136992570D02*
X92672819Y-136992570D01*
X92672819Y-136992570D02*
X92672819Y-136611618D01*
X92672819Y-136611618D02*
X92720438Y-136516380D01*
X92720438Y-136516380D02*
X92768057Y-136468761D01*
X92768057Y-136468761D02*
X92863295Y-136421142D01*
X92863295Y-136421142D02*
X93006152Y-136421142D01*
X93006152Y-136421142D02*
X93101390Y-136468761D01*
X93101390Y-136468761D02*
X93149009Y-136516380D01*
X93149009Y-136516380D02*
X93196628Y-136611618D01*
X93196628Y-136611618D02*
X93196628Y-136992570D01*
X93625200Y-136040189D02*
X93672819Y-135897332D01*
X93672819Y-135897332D02*
X93672819Y-135659237D01*
X93672819Y-135659237D02*
X93625200Y-135563999D01*
X93625200Y-135563999D02*
X93577580Y-135516380D01*
X93577580Y-135516380D02*
X93482342Y-135468761D01*
X93482342Y-135468761D02*
X93387104Y-135468761D01*
X93387104Y-135468761D02*
X93291866Y-135516380D01*
X93291866Y-135516380D02*
X93244247Y-135563999D01*
X93244247Y-135563999D02*
X93196628Y-135659237D01*
X93196628Y-135659237D02*
X93149009Y-135849713D01*
X93149009Y-135849713D02*
X93101390Y-135944951D01*
X93101390Y-135944951D02*
X93053771Y-135992570D01*
X93053771Y-135992570D02*
X92958533Y-136040189D01*
X92958533Y-136040189D02*
X92863295Y-136040189D01*
X92863295Y-136040189D02*
X92768057Y-135992570D01*
X92768057Y-135992570D02*
X92720438Y-135944951D01*
X92720438Y-135944951D02*
X92672819Y-135849713D01*
X92672819Y-135849713D02*
X92672819Y-135611618D01*
X92672819Y-135611618D02*
X92720438Y-135468761D01*
X93101390Y-134897332D02*
X93053771Y-134992570D01*
X93053771Y-134992570D02*
X93006152Y-135040189D01*
X93006152Y-135040189D02*
X92910914Y-135087808D01*
X92910914Y-135087808D02*
X92863295Y-135087808D01*
X92863295Y-135087808D02*
X92768057Y-135040189D01*
X92768057Y-135040189D02*
X92720438Y-134992570D01*
X92720438Y-134992570D02*
X92672819Y-134897332D01*
X92672819Y-134897332D02*
X92672819Y-134706856D01*
X92672819Y-134706856D02*
X92720438Y-134611618D01*
X92720438Y-134611618D02*
X92768057Y-134563999D01*
X92768057Y-134563999D02*
X92863295Y-134516380D01*
X92863295Y-134516380D02*
X92910914Y-134516380D01*
X92910914Y-134516380D02*
X93006152Y-134563999D01*
X93006152Y-134563999D02*
X93053771Y-134611618D01*
X93053771Y-134611618D02*
X93101390Y-134706856D01*
X93101390Y-134706856D02*
X93101390Y-134897332D01*
X93101390Y-134897332D02*
X93149009Y-134992570D01*
X93149009Y-134992570D02*
X93196628Y-135040189D01*
X93196628Y-135040189D02*
X93291866Y-135087808D01*
X93291866Y-135087808D02*
X93482342Y-135087808D01*
X93482342Y-135087808D02*
X93577580Y-135040189D01*
X93577580Y-135040189D02*
X93625200Y-134992570D01*
X93625200Y-134992570D02*
X93672819Y-134897332D01*
X93672819Y-134897332D02*
X93672819Y-134706856D01*
X93672819Y-134706856D02*
X93625200Y-134611618D01*
X93625200Y-134611618D02*
X93577580Y-134563999D01*
X93577580Y-134563999D02*
X93482342Y-134516380D01*
X93482342Y-134516380D02*
X93291866Y-134516380D01*
X93291866Y-134516380D02*
X93196628Y-134563999D01*
X93196628Y-134563999D02*
X93149009Y-134611618D01*
X93149009Y-134611618D02*
X93101390Y-134706856D01*
X92672819Y-133897332D02*
X92672819Y-133802094D01*
X92672819Y-133802094D02*
X92720438Y-133706856D01*
X92720438Y-133706856D02*
X92768057Y-133659237D01*
X92768057Y-133659237D02*
X92863295Y-133611618D01*
X92863295Y-133611618D02*
X93053771Y-133563999D01*
X93053771Y-133563999D02*
X93291866Y-133563999D01*
X93291866Y-133563999D02*
X93482342Y-133611618D01*
X93482342Y-133611618D02*
X93577580Y-133659237D01*
X93577580Y-133659237D02*
X93625200Y-133706856D01*
X93625200Y-133706856D02*
X93672819Y-133802094D01*
X93672819Y-133802094D02*
X93672819Y-133897332D01*
X93672819Y-133897332D02*
X93625200Y-133992570D01*
X93625200Y-133992570D02*
X93577580Y-134040189D01*
X93577580Y-134040189D02*
X93482342Y-134087808D01*
X93482342Y-134087808D02*
X93291866Y-134135427D01*
X93291866Y-134135427D02*
X93053771Y-134135427D01*
X93053771Y-134135427D02*
X92863295Y-134087808D01*
X92863295Y-134087808D02*
X92768057Y-134040189D01*
X92768057Y-134040189D02*
X92720438Y-133992570D01*
X92720438Y-133992570D02*
X92672819Y-133897332D01*
X93291866Y-132373522D02*
X93291866Y-131611618D01*
X92672819Y-129897332D02*
X92672819Y-130373522D01*
X92672819Y-130373522D02*
X93149009Y-130421141D01*
X93149009Y-130421141D02*
X93101390Y-130373522D01*
X93101390Y-130373522D02*
X93053771Y-130278284D01*
X93053771Y-130278284D02*
X93053771Y-130040189D01*
X93053771Y-130040189D02*
X93101390Y-129944951D01*
X93101390Y-129944951D02*
X93149009Y-129897332D01*
X93149009Y-129897332D02*
X93244247Y-129849713D01*
X93244247Y-129849713D02*
X93482342Y-129849713D01*
X93482342Y-129849713D02*
X93577580Y-129897332D01*
X93577580Y-129897332D02*
X93625200Y-129944951D01*
X93625200Y-129944951D02*
X93672819Y-130040189D01*
X93672819Y-130040189D02*
X93672819Y-130278284D01*
X93672819Y-130278284D02*
X93625200Y-130373522D01*
X93625200Y-130373522D02*
X93577580Y-130421141D01*
X93577580Y-129421141D02*
X93625200Y-129373522D01*
X93625200Y-129373522D02*
X93672819Y-129421141D01*
X93672819Y-129421141D02*
X93625200Y-129468760D01*
X93625200Y-129468760D02*
X93577580Y-129421141D01*
X93577580Y-129421141D02*
X93672819Y-129421141D01*
X92768057Y-128992570D02*
X92720438Y-128944951D01*
X92720438Y-128944951D02*
X92672819Y-128849713D01*
X92672819Y-128849713D02*
X92672819Y-128611618D01*
X92672819Y-128611618D02*
X92720438Y-128516380D01*
X92720438Y-128516380D02*
X92768057Y-128468761D01*
X92768057Y-128468761D02*
X92863295Y-128421142D01*
X92863295Y-128421142D02*
X92958533Y-128421142D01*
X92958533Y-128421142D02*
X93101390Y-128468761D01*
X93101390Y-128468761D02*
X93672819Y-129040189D01*
X93672819Y-129040189D02*
X93672819Y-128421142D01*
X92672819Y-127516380D02*
X92672819Y-127992570D01*
X92672819Y-127992570D02*
X93149009Y-128040189D01*
X93149009Y-128040189D02*
X93101390Y-127992570D01*
X93101390Y-127992570D02*
X93053771Y-127897332D01*
X93053771Y-127897332D02*
X93053771Y-127659237D01*
X93053771Y-127659237D02*
X93101390Y-127563999D01*
X93101390Y-127563999D02*
X93149009Y-127516380D01*
X93149009Y-127516380D02*
X93244247Y-127468761D01*
X93244247Y-127468761D02*
X93482342Y-127468761D01*
X93482342Y-127468761D02*
X93577580Y-127516380D01*
X93577580Y-127516380D02*
X93625200Y-127563999D01*
X93625200Y-127563999D02*
X93672819Y-127659237D01*
X93672819Y-127659237D02*
X93672819Y-127897332D01*
X93672819Y-127897332D02*
X93625200Y-127992570D01*
X93625200Y-127992570D02*
X93577580Y-128040189D01*
X93672819Y-127040189D02*
X93006152Y-127040189D01*
X92672819Y-127040189D02*
X92720438Y-127087808D01*
X92720438Y-127087808D02*
X92768057Y-127040189D01*
X92768057Y-127040189D02*
X92720438Y-126992570D01*
X92720438Y-126992570D02*
X92672819Y-127040189D01*
X92672819Y-127040189D02*
X92768057Y-127040189D01*
X93006152Y-126563999D02*
X93672819Y-126563999D01*
X93101390Y-126563999D02*
X93053771Y-126516380D01*
X93053771Y-126516380D02*
X93006152Y-126421142D01*
X93006152Y-126421142D02*
X93006152Y-126278285D01*
X93006152Y-126278285D02*
X93053771Y-126183047D01*
X93053771Y-126183047D02*
X93149009Y-126135428D01*
X93149009Y-126135428D02*
X93672819Y-126135428D01*
X93625200Y-125230666D02*
X93672819Y-125325904D01*
X93672819Y-125325904D02*
X93672819Y-125516380D01*
X93672819Y-125516380D02*
X93625200Y-125611618D01*
X93625200Y-125611618D02*
X93577580Y-125659237D01*
X93577580Y-125659237D02*
X93482342Y-125706856D01*
X93482342Y-125706856D02*
X93196628Y-125706856D01*
X93196628Y-125706856D02*
X93101390Y-125659237D01*
X93101390Y-125659237D02*
X93053771Y-125611618D01*
X93053771Y-125611618D02*
X93006152Y-125516380D01*
X93006152Y-125516380D02*
X93006152Y-125325904D01*
X93006152Y-125325904D02*
X93053771Y-125230666D01*
X93672819Y-124802094D02*
X92672819Y-124802094D01*
X93672819Y-124373523D02*
X93149009Y-124373523D01*
X93149009Y-124373523D02*
X93053771Y-124421142D01*
X93053771Y-124421142D02*
X93006152Y-124516380D01*
X93006152Y-124516380D02*
X93006152Y-124659237D01*
X93006152Y-124659237D02*
X93053771Y-124754475D01*
X93053771Y-124754475D02*
X93101390Y-124802094D01*
X156156819Y-101766666D02*
X155680628Y-102099999D01*
X156156819Y-102338094D02*
X155156819Y-102338094D01*
X155156819Y-102338094D02*
X155156819Y-101957142D01*
X155156819Y-101957142D02*
X155204438Y-101861904D01*
X155204438Y-101861904D02*
X155252057Y-101814285D01*
X155252057Y-101814285D02*
X155347295Y-101766666D01*
X155347295Y-101766666D02*
X155490152Y-101766666D01*
X155490152Y-101766666D02*
X155585390Y-101814285D01*
X155585390Y-101814285D02*
X155633009Y-101861904D01*
X155633009Y-101861904D02*
X155680628Y-101957142D01*
X155680628Y-101957142D02*
X155680628Y-102338094D01*
X155490152Y-100909523D02*
X156156819Y-100909523D01*
X155109200Y-101147618D02*
X155823485Y-101385713D01*
X155823485Y-101385713D02*
X155823485Y-100766666D01*
X156680819Y-34877333D02*
X157395104Y-34877333D01*
X157395104Y-34877333D02*
X157537961Y-34924952D01*
X157537961Y-34924952D02*
X157633200Y-35020190D01*
X157633200Y-35020190D02*
X157680819Y-35163047D01*
X157680819Y-35163047D02*
X157680819Y-35258285D01*
X156776057Y-34448761D02*
X156728438Y-34401142D01*
X156728438Y-34401142D02*
X156680819Y-34305904D01*
X156680819Y-34305904D02*
X156680819Y-34067809D01*
X156680819Y-34067809D02*
X156728438Y-33972571D01*
X156728438Y-33972571D02*
X156776057Y-33924952D01*
X156776057Y-33924952D02*
X156871295Y-33877333D01*
X156871295Y-33877333D02*
X156966533Y-33877333D01*
X156966533Y-33877333D02*
X157109390Y-33924952D01*
X157109390Y-33924952D02*
X157680819Y-34496380D01*
X157680819Y-34496380D02*
X157680819Y-33877333D01*
X156156819Y-91606666D02*
X155680628Y-91939999D01*
X156156819Y-92178094D02*
X155156819Y-92178094D01*
X155156819Y-92178094D02*
X155156819Y-91797142D01*
X155156819Y-91797142D02*
X155204438Y-91701904D01*
X155204438Y-91701904D02*
X155252057Y-91654285D01*
X155252057Y-91654285D02*
X155347295Y-91606666D01*
X155347295Y-91606666D02*
X155490152Y-91606666D01*
X155490152Y-91606666D02*
X155585390Y-91654285D01*
X155585390Y-91654285D02*
X155633009Y-91701904D01*
X155633009Y-91701904D02*
X155680628Y-91797142D01*
X155680628Y-91797142D02*
X155680628Y-92178094D01*
X155252057Y-91225713D02*
X155204438Y-91178094D01*
X155204438Y-91178094D02*
X155156819Y-91082856D01*
X155156819Y-91082856D02*
X155156819Y-90844761D01*
X155156819Y-90844761D02*
X155204438Y-90749523D01*
X155204438Y-90749523D02*
X155252057Y-90701904D01*
X155252057Y-90701904D02*
X155347295Y-90654285D01*
X155347295Y-90654285D02*
X155442533Y-90654285D01*
X155442533Y-90654285D02*
X155585390Y-90701904D01*
X155585390Y-90701904D02*
X156156819Y-91273332D01*
X156156819Y-91273332D02*
X156156819Y-90654285D01*
X92672819Y-77270856D02*
X92672819Y-76699428D01*
X93672819Y-76985142D02*
X92672819Y-76985142D01*
X93672819Y-75794666D02*
X93196628Y-76127999D01*
X93672819Y-76366094D02*
X92672819Y-76366094D01*
X92672819Y-76366094D02*
X92672819Y-75985142D01*
X92672819Y-75985142D02*
X92720438Y-75889904D01*
X92720438Y-75889904D02*
X92768057Y-75842285D01*
X92768057Y-75842285D02*
X92863295Y-75794666D01*
X92863295Y-75794666D02*
X93006152Y-75794666D01*
X93006152Y-75794666D02*
X93101390Y-75842285D01*
X93101390Y-75842285D02*
X93149009Y-75889904D01*
X93149009Y-75889904D02*
X93196628Y-75985142D01*
X93196628Y-75985142D02*
X93196628Y-76366094D01*
X93625200Y-75413713D02*
X93672819Y-75270856D01*
X93672819Y-75270856D02*
X93672819Y-75032761D01*
X93672819Y-75032761D02*
X93625200Y-74937523D01*
X93625200Y-74937523D02*
X93577580Y-74889904D01*
X93577580Y-74889904D02*
X93482342Y-74842285D01*
X93482342Y-74842285D02*
X93387104Y-74842285D01*
X93387104Y-74842285D02*
X93291866Y-74889904D01*
X93291866Y-74889904D02*
X93244247Y-74937523D01*
X93244247Y-74937523D02*
X93196628Y-75032761D01*
X93196628Y-75032761D02*
X93149009Y-75223237D01*
X93149009Y-75223237D02*
X93101390Y-75318475D01*
X93101390Y-75318475D02*
X93053771Y-75366094D01*
X93053771Y-75366094D02*
X92958533Y-75413713D01*
X92958533Y-75413713D02*
X92863295Y-75413713D01*
X92863295Y-75413713D02*
X92768057Y-75366094D01*
X92768057Y-75366094D02*
X92720438Y-75318475D01*
X92720438Y-75318475D02*
X92672819Y-75223237D01*
X92672819Y-75223237D02*
X92672819Y-74985142D01*
X92672819Y-74985142D02*
X92720438Y-74842285D01*
X93101390Y-74270856D02*
X93053771Y-74366094D01*
X93053771Y-74366094D02*
X93006152Y-74413713D01*
X93006152Y-74413713D02*
X92910914Y-74461332D01*
X92910914Y-74461332D02*
X92863295Y-74461332D01*
X92863295Y-74461332D02*
X92768057Y-74413713D01*
X92768057Y-74413713D02*
X92720438Y-74366094D01*
X92720438Y-74366094D02*
X92672819Y-74270856D01*
X92672819Y-74270856D02*
X92672819Y-74080380D01*
X92672819Y-74080380D02*
X92720438Y-73985142D01*
X92720438Y-73985142D02*
X92768057Y-73937523D01*
X92768057Y-73937523D02*
X92863295Y-73889904D01*
X92863295Y-73889904D02*
X92910914Y-73889904D01*
X92910914Y-73889904D02*
X93006152Y-73937523D01*
X93006152Y-73937523D02*
X93053771Y-73985142D01*
X93053771Y-73985142D02*
X93101390Y-74080380D01*
X93101390Y-74080380D02*
X93101390Y-74270856D01*
X93101390Y-74270856D02*
X93149009Y-74366094D01*
X93149009Y-74366094D02*
X93196628Y-74413713D01*
X93196628Y-74413713D02*
X93291866Y-74461332D01*
X93291866Y-74461332D02*
X93482342Y-74461332D01*
X93482342Y-74461332D02*
X93577580Y-74413713D01*
X93577580Y-74413713D02*
X93625200Y-74366094D01*
X93625200Y-74366094D02*
X93672819Y-74270856D01*
X93672819Y-74270856D02*
X93672819Y-74080380D01*
X93672819Y-74080380D02*
X93625200Y-73985142D01*
X93625200Y-73985142D02*
X93577580Y-73937523D01*
X93577580Y-73937523D02*
X93482342Y-73889904D01*
X93482342Y-73889904D02*
X93291866Y-73889904D01*
X93291866Y-73889904D02*
X93196628Y-73937523D01*
X93196628Y-73937523D02*
X93149009Y-73985142D01*
X93149009Y-73985142D02*
X93101390Y-74080380D01*
X92672819Y-73270856D02*
X92672819Y-73175618D01*
X92672819Y-73175618D02*
X92720438Y-73080380D01*
X92720438Y-73080380D02*
X92768057Y-73032761D01*
X92768057Y-73032761D02*
X92863295Y-72985142D01*
X92863295Y-72985142D02*
X93053771Y-72937523D01*
X93053771Y-72937523D02*
X93291866Y-72937523D01*
X93291866Y-72937523D02*
X93482342Y-72985142D01*
X93482342Y-72985142D02*
X93577580Y-73032761D01*
X93577580Y-73032761D02*
X93625200Y-73080380D01*
X93625200Y-73080380D02*
X93672819Y-73175618D01*
X93672819Y-73175618D02*
X93672819Y-73270856D01*
X93672819Y-73270856D02*
X93625200Y-73366094D01*
X93625200Y-73366094D02*
X93577580Y-73413713D01*
X93577580Y-73413713D02*
X93482342Y-73461332D01*
X93482342Y-73461332D02*
X93291866Y-73508951D01*
X93291866Y-73508951D02*
X93053771Y-73508951D01*
X93053771Y-73508951D02*
X92863295Y-73461332D01*
X92863295Y-73461332D02*
X92768057Y-73413713D01*
X92768057Y-73413713D02*
X92720438Y-73366094D01*
X92720438Y-73366094D02*
X92672819Y-73270856D01*
X93291866Y-71747046D02*
X93291866Y-70985142D01*
X93101390Y-69604189D02*
X93053771Y-69699427D01*
X93053771Y-69699427D02*
X93006152Y-69747046D01*
X93006152Y-69747046D02*
X92910914Y-69794665D01*
X92910914Y-69794665D02*
X92863295Y-69794665D01*
X92863295Y-69794665D02*
X92768057Y-69747046D01*
X92768057Y-69747046D02*
X92720438Y-69699427D01*
X92720438Y-69699427D02*
X92672819Y-69604189D01*
X92672819Y-69604189D02*
X92672819Y-69413713D01*
X92672819Y-69413713D02*
X92720438Y-69318475D01*
X92720438Y-69318475D02*
X92768057Y-69270856D01*
X92768057Y-69270856D02*
X92863295Y-69223237D01*
X92863295Y-69223237D02*
X92910914Y-69223237D01*
X92910914Y-69223237D02*
X93006152Y-69270856D01*
X93006152Y-69270856D02*
X93053771Y-69318475D01*
X93053771Y-69318475D02*
X93101390Y-69413713D01*
X93101390Y-69413713D02*
X93101390Y-69604189D01*
X93101390Y-69604189D02*
X93149009Y-69699427D01*
X93149009Y-69699427D02*
X93196628Y-69747046D01*
X93196628Y-69747046D02*
X93291866Y-69794665D01*
X93291866Y-69794665D02*
X93482342Y-69794665D01*
X93482342Y-69794665D02*
X93577580Y-69747046D01*
X93577580Y-69747046D02*
X93625200Y-69699427D01*
X93625200Y-69699427D02*
X93672819Y-69604189D01*
X93672819Y-69604189D02*
X93672819Y-69413713D01*
X93672819Y-69413713D02*
X93625200Y-69318475D01*
X93625200Y-69318475D02*
X93577580Y-69270856D01*
X93577580Y-69270856D02*
X93482342Y-69223237D01*
X93482342Y-69223237D02*
X93291866Y-69223237D01*
X93291866Y-69223237D02*
X93196628Y-69270856D01*
X93196628Y-69270856D02*
X93149009Y-69318475D01*
X93149009Y-69318475D02*
X93101390Y-69413713D01*
X93672819Y-68794665D02*
X93006152Y-68794665D01*
X92672819Y-68794665D02*
X92720438Y-68842284D01*
X92720438Y-68842284D02*
X92768057Y-68794665D01*
X92768057Y-68794665D02*
X92720438Y-68747046D01*
X92720438Y-68747046D02*
X92672819Y-68794665D01*
X92672819Y-68794665D02*
X92768057Y-68794665D01*
X93006152Y-68318475D02*
X93672819Y-68318475D01*
X93101390Y-68318475D02*
X93053771Y-68270856D01*
X93053771Y-68270856D02*
X93006152Y-68175618D01*
X93006152Y-68175618D02*
X93006152Y-68032761D01*
X93006152Y-68032761D02*
X93053771Y-67937523D01*
X93053771Y-67937523D02*
X93149009Y-67889904D01*
X93149009Y-67889904D02*
X93672819Y-67889904D01*
X93625200Y-66985142D02*
X93672819Y-67080380D01*
X93672819Y-67080380D02*
X93672819Y-67270856D01*
X93672819Y-67270856D02*
X93625200Y-67366094D01*
X93625200Y-67366094D02*
X93577580Y-67413713D01*
X93577580Y-67413713D02*
X93482342Y-67461332D01*
X93482342Y-67461332D02*
X93196628Y-67461332D01*
X93196628Y-67461332D02*
X93101390Y-67413713D01*
X93101390Y-67413713D02*
X93053771Y-67366094D01*
X93053771Y-67366094D02*
X93006152Y-67270856D01*
X93006152Y-67270856D02*
X93006152Y-67080380D01*
X93006152Y-67080380D02*
X93053771Y-66985142D01*
X93672819Y-66556570D02*
X92672819Y-66556570D01*
X93672819Y-66127999D02*
X93149009Y-66127999D01*
X93149009Y-66127999D02*
X93053771Y-66175618D01*
X93053771Y-66175618D02*
X93006152Y-66270856D01*
X93006152Y-66270856D02*
X93006152Y-66413713D01*
X93006152Y-66413713D02*
X93053771Y-66508951D01*
X93053771Y-66508951D02*
X93101390Y-66556570D01*
X151489580Y-32568494D02*
X151537200Y-32616113D01*
X151537200Y-32616113D02*
X151584819Y-32758970D01*
X151584819Y-32758970D02*
X151584819Y-32854208D01*
X151584819Y-32854208D02*
X151537200Y-32997065D01*
X151537200Y-32997065D02*
X151441961Y-33092303D01*
X151441961Y-33092303D02*
X151346723Y-33139922D01*
X151346723Y-33139922D02*
X151156247Y-33187541D01*
X151156247Y-33187541D02*
X151013390Y-33187541D01*
X151013390Y-33187541D02*
X150822914Y-33139922D01*
X150822914Y-33139922D02*
X150727676Y-33092303D01*
X150727676Y-33092303D02*
X150632438Y-32997065D01*
X150632438Y-32997065D02*
X150584819Y-32854208D01*
X150584819Y-32854208D02*
X150584819Y-32758970D01*
X150584819Y-32758970D02*
X150632438Y-32616113D01*
X150632438Y-32616113D02*
X150680057Y-32568494D01*
X151584819Y-31616113D02*
X151584819Y-32187541D01*
X151584819Y-31901827D02*
X150584819Y-31901827D01*
X150584819Y-31901827D02*
X150727676Y-31997065D01*
X150727676Y-31997065D02*
X150822914Y-32092303D01*
X150822914Y-32092303D02*
X150870533Y-32187541D01*
X142801133Y-35195876D02*
X142801133Y-35957781D01*
X146611133Y-28845876D02*
X146611133Y-29607781D01*
X146230180Y-29226828D02*
X146992085Y-29226828D01*
X146611133Y-35195876D02*
X146611133Y-35957781D01*
X142801133Y-28845876D02*
X142801133Y-29607781D01*
X142420180Y-29226828D02*
X143182085Y-29226828D01*
D14*
%TO.C,J3*%
X151070000Y-83760000D02*
X152400000Y-83760000D01*
X151070000Y-85090000D02*
X151070000Y-83760000D01*
X153670000Y-83760000D02*
X158810000Y-83760000D01*
X153670000Y-86420000D02*
X153670000Y-83760000D01*
X153670000Y-86420000D02*
X158810000Y-86420000D01*
X158810000Y-86420000D02*
X158810000Y-83760000D01*
%TO.C,U1*%
X107890000Y-102760000D02*
X107890000Y-104410000D01*
X107890000Y-106410000D02*
X107890000Y-108060000D01*
X107890000Y-108060000D02*
X125790000Y-108060000D01*
X125790000Y-102760000D02*
X107890000Y-102760000D01*
X125790000Y-108060000D02*
X125790000Y-102760000D01*
X107890000Y-104410000D02*
G75*
G02*
X107890000Y-106410000I0J-1000000D01*
G01*
%TO.C,PC Floppy 1 & 2*%
X153610000Y-153730000D02*
X153610000Y-110430000D01*
X156210000Y-151130000D02*
X156210000Y-153730000D01*
X156210000Y-153730000D02*
X153610000Y-153730000D01*
X158810000Y-110430000D02*
X153610000Y-110430000D01*
X158810000Y-151130000D02*
X156210000Y-151130000D01*
X158810000Y-151130000D02*
X158810000Y-110430000D01*
X158810000Y-152400000D02*
X158810000Y-153730000D01*
X158810000Y-153730000D02*
X157480000Y-153730000D01*
%TO.C,R3*%
X151480000Y-99680000D02*
X151480000Y-103520000D01*
X151480000Y-103520000D02*
X153320000Y-103520000D01*
X152400000Y-98730000D02*
X152400000Y-99680000D01*
X152400000Y-104470000D02*
X152400000Y-103520000D01*
X153320000Y-99680000D02*
X151480000Y-99680000D01*
X153320000Y-103520000D02*
X153320000Y-99680000D01*
%TO.C,J4*%
X151070000Y-106620000D02*
X152400000Y-106620000D01*
X151070000Y-107950000D02*
X151070000Y-106620000D01*
X153670000Y-106620000D02*
X158810000Y-106620000D01*
X153670000Y-109280000D02*
X153670000Y-106620000D01*
X153670000Y-109280000D02*
X158810000Y-109280000D01*
X158810000Y-109280000D02*
X158810000Y-106620000D01*
%TO.C,PC Floppy 3 & 4*%
X153610000Y-82610000D02*
X153610000Y-39310000D01*
X156210000Y-80010000D02*
X156210000Y-82610000D01*
X156210000Y-82610000D02*
X153610000Y-82610000D01*
X158810000Y-39310000D02*
X153610000Y-39310000D01*
X158810000Y-80010000D02*
X156210000Y-80010000D01*
X158810000Y-80010000D02*
X158810000Y-39310000D01*
X158810000Y-81280000D02*
X158810000Y-82610000D01*
X158810000Y-82610000D02*
X157480000Y-82610000D01*
%TO.C,J1*%
X107890000Y-52130000D02*
X107890000Y-50800000D01*
X109220000Y-52130000D02*
X107890000Y-52130000D01*
X110490000Y-49470000D02*
X113090000Y-49470000D01*
X110490000Y-52130000D02*
X110490000Y-49470000D01*
X110490000Y-52130000D02*
X113090000Y-52130000D01*
X113090000Y-52130000D02*
X113090000Y-49470000D01*
%TO.C,R1*%
X151480000Y-89520000D02*
X151480000Y-93360000D01*
X151480000Y-93360000D02*
X153320000Y-93360000D01*
X152400000Y-88570000D02*
X152400000Y-89520000D01*
X152400000Y-94310000D02*
X152400000Y-93360000D01*
X153320000Y-89520000D02*
X151480000Y-89520000D01*
X153320000Y-93360000D02*
X153320000Y-89520000D01*
%TO.C,TRS80 - 5.25inch*%
X95190000Y-110430000D02*
X96520000Y-110430000D01*
X95190000Y-111760000D02*
X95190000Y-110430000D01*
X95190000Y-113030000D02*
X95190000Y-153730000D01*
X95190000Y-113030000D02*
X97790000Y-113030000D01*
X95190000Y-153730000D02*
X100390000Y-153730000D01*
X97790000Y-110430000D02*
X100390000Y-110430000D01*
X97790000Y-113030000D02*
X97790000Y-110430000D01*
X100390000Y-110430000D02*
X100390000Y-153730000D01*
%TO.C,R4*%
X156560000Y-99680000D02*
X156560000Y-103520000D01*
X156560000Y-103520000D02*
X158400000Y-103520000D01*
X157480000Y-98730000D02*
X157480000Y-99680000D01*
X157480000Y-104470000D02*
X157480000Y-103520000D01*
X158400000Y-99680000D02*
X156560000Y-99680000D01*
X158400000Y-103520000D02*
X158400000Y-99680000D01*
%TO.C,J2*%
X156150000Y-27896828D02*
X157480000Y-27896828D01*
X156150000Y-29226828D02*
X156150000Y-27896828D01*
X156150000Y-30496828D02*
X156150000Y-33096828D01*
X156150000Y-30496828D02*
X158810000Y-30496828D01*
X156150000Y-33096828D02*
X158810000Y-33096828D01*
X158810000Y-30496828D02*
X158810000Y-33096828D01*
%TO.C,R2*%
X156560000Y-89520000D02*
X156560000Y-93360000D01*
X156560000Y-93360000D02*
X158400000Y-93360000D01*
X157480000Y-88570000D02*
X157480000Y-89520000D01*
X157480000Y-94310000D02*
X157480000Y-93360000D01*
X158400000Y-89520000D02*
X156560000Y-89520000D01*
X158400000Y-93360000D02*
X158400000Y-89520000D01*
%TO.C,TRS80 - 8inch*%
X95190000Y-39310000D02*
X96520000Y-39310000D01*
X95190000Y-40640000D02*
X95190000Y-39310000D01*
X95190000Y-41910000D02*
X95190000Y-102930000D01*
X95190000Y-41910000D02*
X97790000Y-41910000D01*
X95190000Y-102930000D02*
X100390000Y-102930000D01*
X97790000Y-39310000D02*
X100390000Y-39310000D01*
X97790000Y-41910000D02*
X97790000Y-39310000D01*
X100390000Y-39310000D02*
X100390000Y-102930000D01*
%TO.C,C1*%
X143510000Y-34306828D02*
X140335000Y-34306828D01*
X144780000Y-31766828D02*
X144780000Y-30496828D01*
X144780000Y-32069025D02*
X144780000Y-33036828D01*
X146050000Y-31766828D02*
X143510000Y-31766828D01*
X149225000Y-34306828D02*
X146050000Y-34306828D01*
X143510000Y-32528828D02*
G75*
G02*
X146050000Y-32528828I1270000J-1524000D01*
G01*
X150016344Y-31766828D02*
G75*
G02*
X139543656Y-31766828I-5236344J0D01*
G01*
X139543656Y-31766828D02*
G75*
G02*
X150016344Y-31766828I5236344J0D01*
G01*
%TD*%
M02*
