%TF.GenerationSoftware,KiCad,Pcbnew,8.0.4*%
%TF.CreationDate,2024-09-04T22:50:34-05:00*%
%TF.ProjectId,TRS80_Floppy_Adapter,54525338-305f-4466-9c6f-7070795f4164,rev?*%
%TF.SameCoordinates,Original*%
%TF.FileFunction,Copper,L1,Top*%
%TF.FilePolarity,Positive*%
%FSLAX46Y46*%
G04 Gerber Fmt 4.6, Leading zero omitted, Abs format (unit mm)*
G04 Created by KiCad (PCBNEW 8.0.4) date 2024-09-04 22:50:34*
%MOMM*%
%LPD*%
G01*
G04 APERTURE LIST*
%TA.AperFunction,ComponentPad*%
%ADD10R,1.700000X1.700000*%
%TD*%
%TA.AperFunction,ComponentPad*%
%ADD11O,1.700000X1.700000*%
%TD*%
%TA.AperFunction,ComponentPad*%
%ADD12R,1.600000X1.600000*%
%TD*%
%TA.AperFunction,ComponentPad*%
%ADD13O,1.600000X1.600000*%
%TD*%
%TA.AperFunction,ComponentPad*%
%ADD14C,1.400000*%
%TD*%
%TA.AperFunction,ComponentPad*%
%ADD15O,1.400000X1.400000*%
%TD*%
%TA.AperFunction,ComponentPad*%
%ADD16C,1.524000*%
%TD*%
%TA.AperFunction,ViaPad*%
%ADD17C,0.600000*%
%TD*%
%TA.AperFunction,Conductor*%
%ADD18C,1.270000*%
%TD*%
%TA.AperFunction,Conductor*%
%ADD19C,0.200000*%
%TD*%
G04 APERTURE END LIST*
D10*
%TO.P,J3,1,Pin_1*%
%TO.N,Net-(J2-Pin_1)*%
X152400000Y-85090000D03*
D11*
%TO.P,J3,2,Pin_2*%
%TO.N,Net-(J2-Pin_2)*%
X154940000Y-85090000D03*
%TO.P,J3,3,Pin_3*%
%TO.N,Net-(J2-Pin_3)*%
X157480000Y-85090000D03*
%TD*%
D12*
%TO.P,U1,1*%
%TO.N,Net-(TRS80-5inch1-Pin_16)*%
X109220000Y-109220000D03*
D13*
%TO.P,U1,2*%
%TO.N,Net-(PC_5inch2-Pin_14)*%
X111760000Y-109220000D03*
%TO.P,U1,3*%
%TO.N,Net-(PC_5inch2-Pin_10)*%
X114300000Y-109220000D03*
%TO.P,U1,4*%
%TO.N,Net-(TRS80-5inch1-Pin_16)*%
X116840000Y-109220000D03*
%TO.P,U1,5*%
%TO.N,Net-(PC_5inch2-Pin_12)*%
X119380000Y-109220000D03*
%TO.P,U1,6*%
%TO.N,Net-(PC_5inch2-Pin_16)*%
X121920000Y-109220000D03*
%TO.P,U1,7,GND*%
%TO.N,GND*%
X124460000Y-109220000D03*
%TO.P,U1,8*%
%TO.N,Net-(PC_5inch1-Pin_10)*%
X124460000Y-101600000D03*
%TO.P,U1,9*%
%TO.N,Net-(TRS80-5inch1-Pin_16)*%
X121920000Y-101600000D03*
%TO.P,U1,10*%
%TO.N,Net-(PC_5inch1-Pin_14)*%
X119380000Y-101600000D03*
%TO.P,U1,11*%
%TO.N,Net-(PC_5inch1-Pin_16)*%
X116840000Y-101600000D03*
%TO.P,U1,12*%
%TO.N,Net-(TRS80-5inch1-Pin_16)*%
X114300000Y-101600000D03*
%TO.P,U1,13*%
%TO.N,Net-(PC_5inch1-Pin_12)*%
X111760000Y-101600000D03*
%TO.P,U1,14,VCC*%
%TO.N,+5V*%
X109220000Y-101600000D03*
%TD*%
D10*
%TO.P,PC Floppy 1 & 2,1,Pin_1*%
%TO.N,GND*%
X157480000Y-152400000D03*
D11*
%TO.P,PC Floppy 1 & 2,2,Pin_2*%
%TO.N,Net-(J6-Pin_2)*%
X154940000Y-152400000D03*
%TO.P,PC Floppy 1 & 2,3,Pin_3*%
%TO.N,GND*%
X157480000Y-149860000D03*
%TO.P,PC Floppy 1 & 2,4,Pin_4*%
%TO.N,unconnected-(PC_5inch1-Pin_4-Pad4)*%
X154940000Y-149860000D03*
%TO.P,PC Floppy 1 & 2,5,Pin_5*%
%TO.N,GND*%
X157480000Y-147320000D03*
%TO.P,PC Floppy 1 & 2,6,Pin_6*%
%TO.N,unconnected-(PC_5inch1-Pin_6-Pad6)*%
X154940000Y-147320000D03*
%TO.P,PC Floppy 1 & 2,7,Pin_7*%
%TO.N,GND*%
X157480000Y-144780000D03*
%TO.P,PC Floppy 1 & 2,8,Pin_8*%
%TO.N,Net-(PC_5inch1-Pin_8)*%
X154940000Y-144780000D03*
%TO.P,PC Floppy 1 & 2,9,Pin_9*%
%TO.N,GND*%
X157480000Y-142240000D03*
%TO.P,PC Floppy 1 & 2,10,Pin_10*%
%TO.N,Net-(PC_5inch1-Pin_10)*%
X154940000Y-142240000D03*
%TO.P,PC Floppy 1 & 2,11,Pin_11*%
%TO.N,GND*%
X157480000Y-139700000D03*
%TO.P,PC Floppy 1 & 2,12,Pin_12*%
%TO.N,Net-(PC_5inch1-Pin_12)*%
X154940000Y-139700000D03*
%TO.P,PC Floppy 1 & 2,13,Pin_13*%
%TO.N,GND*%
X157480000Y-137160000D03*
%TO.P,PC Floppy 1 & 2,14,Pin_14*%
%TO.N,Net-(PC_5inch1-Pin_14)*%
X154940000Y-137160000D03*
%TO.P,PC Floppy 1 & 2,15,Pin_15*%
%TO.N,GND*%
X157480000Y-134620000D03*
%TO.P,PC Floppy 1 & 2,16,Pin_16*%
%TO.N,Net-(PC_5inch1-Pin_16)*%
X154940000Y-134620000D03*
%TO.P,PC Floppy 1 & 2,17,Pin_17*%
%TO.N,GND*%
X157480000Y-132080000D03*
%TO.P,PC Floppy 1 & 2,18,Pin_18*%
%TO.N,Net-(PC_5inch1-Pin_18)*%
X154940000Y-132080000D03*
%TO.P,PC Floppy 1 & 2,19,Pin_19*%
%TO.N,GND*%
X157480000Y-129540000D03*
%TO.P,PC Floppy 1 & 2,20,Pin_20*%
%TO.N,Net-(PC_5inch1-Pin_20)*%
X154940000Y-129540000D03*
%TO.P,PC Floppy 1 & 2,21,Pin_21*%
%TO.N,GND*%
X157480000Y-127000000D03*
%TO.P,PC Floppy 1 & 2,22,Pin_22*%
%TO.N,Net-(PC_5inch1-Pin_22)*%
X154940000Y-127000000D03*
%TO.P,PC Floppy 1 & 2,23,Pin_23*%
%TO.N,GND*%
X157480000Y-124460000D03*
%TO.P,PC Floppy 1 & 2,24,Pin_24*%
%TO.N,Net-(PC_5inch1-Pin_24)*%
X154940000Y-124460000D03*
%TO.P,PC Floppy 1 & 2,25,Pin_25*%
%TO.N,GND*%
X157480000Y-121920000D03*
%TO.P,PC Floppy 1 & 2,26,Pin_26*%
%TO.N,Net-(PC_5inch1-Pin_26)*%
X154940000Y-121920000D03*
%TO.P,PC Floppy 1 & 2,27,Pin_27*%
%TO.N,GND*%
X157480000Y-119380000D03*
%TO.P,PC Floppy 1 & 2,28,Pin_28*%
%TO.N,Net-(PC_5inch1-Pin_28)*%
X154940000Y-119380000D03*
%TO.P,PC Floppy 1 & 2,29,Pin_29*%
%TO.N,GND*%
X157480000Y-116840000D03*
%TO.P,PC Floppy 1 & 2,30,Pin_30*%
%TO.N,Net-(PC_5inch1-Pin_30)*%
X154940000Y-116840000D03*
%TO.P,PC Floppy 1 & 2,31,Pin_31*%
%TO.N,GND*%
X157480000Y-114300000D03*
%TO.P,PC Floppy 1 & 2,32,Pin_32*%
%TO.N,Net-(PC_5inch1-Pin_32)*%
X154940000Y-114300000D03*
%TO.P,PC Floppy 1 & 2,33,Pin_33*%
%TO.N,GND*%
X157480000Y-111760000D03*
%TO.P,PC Floppy 1 & 2,34,Pin_34*%
%TO.N,Net-(PC_5inch1-Pin_34)*%
X154940000Y-111760000D03*
%TD*%
D14*
%TO.P,R3,1,1*%
%TO.N,Net-(J6-Pin_1)*%
X152400000Y-105410000D03*
D15*
%TO.P,R3,2,2*%
%TO.N,+5V*%
X152400000Y-97790000D03*
%TD*%
D10*
%TO.P,J4,1,Pin_1*%
%TO.N,Net-(J6-Pin_1)*%
X152400000Y-107950000D03*
D11*
%TO.P,J4,2,Pin_2*%
%TO.N,Net-(J6-Pin_2)*%
X154940000Y-107950000D03*
%TO.P,J4,3,Pin_3*%
%TO.N,Net-(J6-Pin_3)*%
X157480000Y-107950000D03*
%TD*%
D10*
%TO.P,PC Floppy 3 & 4,1,Pin_1*%
%TO.N,GND*%
X157480000Y-81280000D03*
D11*
%TO.P,PC Floppy 3 & 4,2,Pin_2*%
%TO.N,Net-(J2-Pin_2)*%
X154940000Y-81280000D03*
%TO.P,PC Floppy 3 & 4,3,Pin_3*%
%TO.N,GND*%
X157480000Y-78740000D03*
%TO.P,PC Floppy 3 & 4,4,Pin_4*%
%TO.N,unconnected-(PC_5inch2-Pin_4-Pad4)*%
X154940000Y-78740000D03*
%TO.P,PC Floppy 3 & 4,5,Pin_5*%
%TO.N,GND*%
X157480000Y-76200000D03*
%TO.P,PC Floppy 3 & 4,6,Pin_6*%
%TO.N,unconnected-(PC_5inch2-Pin_6-Pad6)*%
X154940000Y-76200000D03*
%TO.P,PC Floppy 3 & 4,7,Pin_7*%
%TO.N,GND*%
X157480000Y-73660000D03*
%TO.P,PC Floppy 3 & 4,8,Pin_8*%
%TO.N,Net-(PC_5inch1-Pin_8)*%
X154940000Y-73660000D03*
%TO.P,PC Floppy 3 & 4,9,Pin_9*%
%TO.N,GND*%
X157480000Y-71120000D03*
%TO.P,PC Floppy 3 & 4,10,Pin_10*%
%TO.N,Net-(PC_5inch2-Pin_10)*%
X154940000Y-71120000D03*
%TO.P,PC Floppy 3 & 4,11,Pin_11*%
%TO.N,GND*%
X157480000Y-68580000D03*
%TO.P,PC Floppy 3 & 4,12,Pin_12*%
%TO.N,Net-(PC_5inch2-Pin_12)*%
X154940000Y-68580000D03*
%TO.P,PC Floppy 3 & 4,13,Pin_13*%
%TO.N,GND*%
X157480000Y-66040000D03*
%TO.P,PC Floppy 3 & 4,14,Pin_14*%
%TO.N,Net-(PC_5inch2-Pin_14)*%
X154940000Y-66040000D03*
%TO.P,PC Floppy 3 & 4,15,Pin_15*%
%TO.N,GND*%
X157480000Y-63500000D03*
%TO.P,PC Floppy 3 & 4,16,Pin_16*%
%TO.N,Net-(PC_5inch2-Pin_16)*%
X154940000Y-63500000D03*
%TO.P,PC Floppy 3 & 4,17,Pin_17*%
%TO.N,GND*%
X157480000Y-60960000D03*
%TO.P,PC Floppy 3 & 4,18,Pin_18*%
%TO.N,Net-(PC_5inch1-Pin_18)*%
X154940000Y-60960000D03*
%TO.P,PC Floppy 3 & 4,19,Pin_19*%
%TO.N,GND*%
X157480000Y-58420000D03*
%TO.P,PC Floppy 3 & 4,20,Pin_20*%
%TO.N,Net-(PC_5inch1-Pin_20)*%
X154940000Y-58420000D03*
%TO.P,PC Floppy 3 & 4,21,Pin_21*%
%TO.N,GND*%
X157480000Y-55880000D03*
%TO.P,PC Floppy 3 & 4,22,Pin_22*%
%TO.N,Net-(PC_5inch1-Pin_22)*%
X154940000Y-55880000D03*
%TO.P,PC Floppy 3 & 4,23,Pin_23*%
%TO.N,GND*%
X157480000Y-53340000D03*
%TO.P,PC Floppy 3 & 4,24,Pin_24*%
%TO.N,Net-(PC_5inch1-Pin_24)*%
X154940000Y-53340000D03*
%TO.P,PC Floppy 3 & 4,25,Pin_25*%
%TO.N,GND*%
X157480000Y-50800000D03*
%TO.P,PC Floppy 3 & 4,26,Pin_26*%
%TO.N,Net-(PC_5inch1-Pin_26)*%
X154940000Y-50800000D03*
%TO.P,PC Floppy 3 & 4,27,Pin_27*%
%TO.N,GND*%
X157480000Y-48260000D03*
%TO.P,PC Floppy 3 & 4,28,Pin_28*%
%TO.N,Net-(PC_5inch1-Pin_28)*%
X154940000Y-48260000D03*
%TO.P,PC Floppy 3 & 4,29,Pin_29*%
%TO.N,GND*%
X157480000Y-45720000D03*
%TO.P,PC Floppy 3 & 4,30,Pin_30*%
%TO.N,Net-(PC_5inch1-Pin_30)*%
X154940000Y-45720000D03*
%TO.P,PC Floppy 3 & 4,31,Pin_31*%
%TO.N,GND*%
X157480000Y-43180000D03*
%TO.P,PC Floppy 3 & 4,32,Pin_32*%
%TO.N,Net-(PC_5inch1-Pin_32)*%
X154940000Y-43180000D03*
%TO.P,PC Floppy 3 & 4,33,Pin_33*%
%TO.N,GND*%
X157480000Y-40640000D03*
%TO.P,PC Floppy 3 & 4,34,Pin_34*%
%TO.N,Net-(PC_5inch1-Pin_34)*%
X154940000Y-40640000D03*
%TD*%
D10*
%TO.P,J1,1,Pin_1*%
%TO.N,Net-(J1-Pin_1)*%
X109220000Y-50800000D03*
D11*
%TO.P,J1,2,Pin_2*%
%TO.N,GND*%
X111760000Y-50800000D03*
%TD*%
D14*
%TO.P,R1,1,1*%
%TO.N,Net-(J2-Pin_1)*%
X152400000Y-87630000D03*
D15*
%TO.P,R1,2,2*%
%TO.N,+5V*%
X152400000Y-95250000D03*
%TD*%
D10*
%TO.P,TRS80 - 5.25inch,1,Pin_1*%
%TO.N,GND*%
X96520000Y-111760000D03*
D11*
%TO.P,TRS80 - 5.25inch,2,Pin_2*%
%TO.N,unconnected-(TRS80-5inch1-Pin_2-Pad2)*%
X99060000Y-111760000D03*
%TO.P,TRS80 - 5.25inch,3,Pin_3*%
%TO.N,GND*%
X96520000Y-114300000D03*
%TO.P,TRS80 - 5.25inch,4,Pin_4*%
%TO.N,unconnected-(TRS80-5inch1-Pin_4-Pad4)*%
X99060000Y-114300000D03*
%TO.P,TRS80 - 5.25inch,5,Pin_5*%
%TO.N,GND*%
X96520000Y-116840000D03*
%TO.P,TRS80 - 5.25inch,6,Pin_6*%
%TO.N,unconnected-(TRS80-5inch1-Pin_6-Pad6)*%
X99060000Y-116840000D03*
%TO.P,TRS80 - 5.25inch,7,Pin_7*%
%TO.N,GND*%
X96520000Y-119380000D03*
%TO.P,TRS80 - 5.25inch,8,Pin_8*%
%TO.N,Net-(PC_5inch1-Pin_8)*%
X99060000Y-119380000D03*
%TO.P,TRS80 - 5.25inch,9,Pin_9*%
%TO.N,GND*%
X96520000Y-121920000D03*
%TO.P,TRS80 - 5.25inch,10,Pin_10*%
%TO.N,Net-(PC_5inch2-Pin_14)*%
X99060000Y-121920000D03*
%TO.P,TRS80 - 5.25inch,11,Pin_11*%
%TO.N,GND*%
X96520000Y-124460000D03*
%TO.P,TRS80 - 5.25inch,12,Pin_12*%
%TO.N,Net-(PC_5inch2-Pin_12)*%
X99060000Y-124460000D03*
%TO.P,TRS80 - 5.25inch,13,Pin_13*%
%TO.N,GND*%
X96520000Y-127000000D03*
%TO.P,TRS80 - 5.25inch,14,Pin_14*%
%TO.N,Net-(PC_5inch1-Pin_14)*%
X99060000Y-127000000D03*
%TO.P,TRS80 - 5.25inch,15,Pin_15*%
%TO.N,GND*%
X96520000Y-129540000D03*
%TO.P,TRS80 - 5.25inch,16,Pin_16*%
%TO.N,Net-(TRS80-5inch1-Pin_16)*%
X99060000Y-129540000D03*
%TO.P,TRS80 - 5.25inch,17,Pin_17*%
%TO.N,GND*%
X96520000Y-132080000D03*
%TO.P,TRS80 - 5.25inch,18,Pin_18*%
%TO.N,Net-(PC_5inch1-Pin_18)*%
X99060000Y-132080000D03*
%TO.P,TRS80 - 5.25inch,19,Pin_19*%
%TO.N,GND*%
X96520000Y-134620000D03*
%TO.P,TRS80 - 5.25inch,20,Pin_20*%
%TO.N,Net-(PC_5inch1-Pin_20)*%
X99060000Y-134620000D03*
%TO.P,TRS80 - 5.25inch,21,Pin_21*%
%TO.N,GND*%
X96520000Y-137160000D03*
%TO.P,TRS80 - 5.25inch,22,Pin_22*%
%TO.N,Net-(PC_5inch1-Pin_22)*%
X99060000Y-137160000D03*
%TO.P,TRS80 - 5.25inch,23,Pin_23*%
%TO.N,GND*%
X96520000Y-139700000D03*
%TO.P,TRS80 - 5.25inch,24,Pin_24*%
%TO.N,Net-(PC_5inch1-Pin_24)*%
X99060000Y-139700000D03*
%TO.P,TRS80 - 5.25inch,25,Pin_25*%
%TO.N,GND*%
X96520000Y-142240000D03*
%TO.P,TRS80 - 5.25inch,26,Pin_26*%
%TO.N,Net-(PC_5inch1-Pin_26)*%
X99060000Y-142240000D03*
%TO.P,TRS80 - 5.25inch,27,Pin_27*%
%TO.N,GND*%
X96520000Y-144780000D03*
%TO.P,TRS80 - 5.25inch,28,Pin_28*%
%TO.N,Net-(PC_5inch1-Pin_28)*%
X99060000Y-144780000D03*
%TO.P,TRS80 - 5.25inch,29,Pin_29*%
%TO.N,GND*%
X96520000Y-147320000D03*
%TO.P,TRS80 - 5.25inch,30,Pin_30*%
%TO.N,Net-(PC_5inch1-Pin_30)*%
X99060000Y-147320000D03*
%TO.P,TRS80 - 5.25inch,31,Pin_31*%
%TO.N,GND*%
X96520000Y-149860000D03*
%TO.P,TRS80 - 5.25inch,32,Pin_32*%
%TO.N,Net-(PC_5inch1-Pin_12)*%
X99060000Y-149860000D03*
%TO.P,TRS80 - 5.25inch,33,Pin_33*%
%TO.N,GND*%
X96520000Y-152400000D03*
%TO.P,TRS80 - 5.25inch,34,Pin_34*%
%TO.N,unconnected-(TRS80-5inch1-Pin_34-Pad34)*%
X99060000Y-152400000D03*
%TD*%
D14*
%TO.P,R4,1,1*%
%TO.N,Net-(J6-Pin_3)*%
X157480000Y-105410000D03*
D15*
%TO.P,R4,2,2*%
%TO.N,GND*%
X157480000Y-97790000D03*
%TD*%
D10*
%TO.P,J2,1,Pin_1*%
%TO.N,+5V*%
X157480000Y-29226828D03*
D11*
%TO.P,J2,2,Pin_2*%
%TO.N,GND*%
X157480000Y-31766828D03*
%TD*%
D14*
%TO.P,R2,1,1*%
%TO.N,Net-(J2-Pin_3)*%
X157480000Y-87630000D03*
D15*
%TO.P,R2,2,2*%
%TO.N,GND*%
X157480000Y-95250000D03*
%TD*%
D10*
%TO.P,TRS80 - 8inch,1,Pin_1*%
%TO.N,GND*%
X96520000Y-40640000D03*
D11*
%TO.P,TRS80 - 8inch,2,Pin_2*%
%TO.N,unconnected-(TRS80_8inch1-Pin_2-Pad2)*%
X99060000Y-40640000D03*
%TO.P,TRS80 - 8inch,3,Pin_3*%
%TO.N,GND*%
X96520000Y-43180000D03*
%TO.P,TRS80 - 8inch,4,Pin_4*%
%TO.N,unconnected-(TRS80_8inch1-Pin_4-Pad4)*%
X99060000Y-43180000D03*
%TO.P,TRS80 - 8inch,5,Pin_5*%
%TO.N,GND*%
X96520000Y-45720000D03*
%TO.P,TRS80 - 8inch,6,Pin_6*%
%TO.N,unconnected-(TRS80_8inch1-Pin_6-Pad6)*%
X99060000Y-45720000D03*
%TO.P,TRS80 - 8inch,7,Pin_7*%
%TO.N,GND*%
X96520000Y-48260000D03*
%TO.P,TRS80 - 8inch,8,Pin_8*%
%TO.N,unconnected-(TRS80_8inch1-Pin_8-Pad8)*%
X99060000Y-48260000D03*
%TO.P,TRS80 - 8inch,9,Pin_9*%
%TO.N,GND*%
X96520000Y-50800000D03*
%TO.P,TRS80 - 8inch,10,Pin_10*%
%TO.N,Net-(J1-Pin_1)*%
X99060000Y-50800000D03*
%TO.P,TRS80 - 8inch,11,Pin_11*%
%TO.N,GND*%
X96520000Y-53340000D03*
%TO.P,TRS80 - 8inch,12,Pin_12*%
%TO.N,unconnected-(TRS80_8inch1-Pin_12-Pad12)*%
X99060000Y-53340000D03*
%TO.P,TRS80 - 8inch,13,Pin_13*%
%TO.N,GND*%
X96520000Y-55880000D03*
%TO.P,TRS80 - 8inch,14,Pin_14*%
%TO.N,Net-(PC_5inch1-Pin_32)*%
X99060000Y-55880000D03*
%TO.P,TRS80 - 8inch,15,Pin_15*%
%TO.N,GND*%
X96520000Y-58420000D03*
%TO.P,TRS80 - 8inch,16,Pin_16*%
%TO.N,unconnected-(TRS80_8inch1-Pin_16-Pad16)*%
X99060000Y-58420000D03*
%TO.P,TRS80 - 8inch,17,Pin_17*%
%TO.N,GND*%
X96520000Y-60960000D03*
%TO.P,TRS80 - 8inch,18,Pin_18*%
%TO.N,Net-(TRS80-5inch1-Pin_16)*%
X99060000Y-60960000D03*
%TO.P,TRS80 - 8inch,19,Pin_19*%
%TO.N,GND*%
X96520000Y-63500000D03*
%TO.P,TRS80 - 8inch,20,Pin_20*%
%TO.N,Net-(PC_5inch1-Pin_8)*%
X99060000Y-63500000D03*
%TO.P,TRS80 - 8inch,21,Pin_21*%
%TO.N,GND*%
X96520000Y-66040000D03*
%TO.P,TRS80 - 8inch,22,Pin_22*%
%TO.N,Net-(PC_5inch1-Pin_34)*%
X99060000Y-66040000D03*
%TO.P,TRS80 - 8inch,23,Pin_23*%
%TO.N,GND*%
X96520000Y-68580000D03*
%TO.P,TRS80 - 8inch,24,Pin_24*%
%TO.N,unconnected-(TRS80_8inch1-Pin_24-Pad24)*%
X99060000Y-68580000D03*
%TO.P,TRS80 - 8inch,25,Pin_25*%
%TO.N,GND*%
X96520000Y-71120000D03*
%TO.P,TRS80 - 8inch,26,Pin_26*%
%TO.N,Net-(PC_5inch2-Pin_14)*%
X99060000Y-71120000D03*
%TO.P,TRS80 - 8inch,27,Pin_27*%
%TO.N,GND*%
X96520000Y-73660000D03*
%TO.P,TRS80 - 8inch,28,Pin_28*%
%TO.N,Net-(PC_5inch2-Pin_12)*%
X99060000Y-73660000D03*
%TO.P,TRS80 - 8inch,29,Pin_29*%
%TO.N,GND*%
X96520000Y-76200000D03*
%TO.P,TRS80 - 8inch,30,Pin_30*%
%TO.N,Net-(PC_5inch1-Pin_14)*%
X99060000Y-76200000D03*
%TO.P,TRS80 - 8inch,31,Pin_31*%
%TO.N,GND*%
X96520000Y-78740000D03*
%TO.P,TRS80 - 8inch,32,Pin_32*%
%TO.N,Net-(PC_5inch1-Pin_12)*%
X99060000Y-78740000D03*
%TO.P,TRS80 - 8inch,33,Pin_33*%
%TO.N,GND*%
X96520000Y-81280000D03*
%TO.P,TRS80 - 8inch,34,Pin_34*%
%TO.N,Net-(PC_5inch1-Pin_18)*%
X99060000Y-81280000D03*
%TO.P,TRS80 - 8inch,35,Pin_35*%
%TO.N,GND*%
X96520000Y-83820000D03*
%TO.P,TRS80 - 8inch,36,Pin_36*%
%TO.N,Net-(PC_5inch1-Pin_20)*%
X99060000Y-83820000D03*
%TO.P,TRS80 - 8inch,37,Pin_37*%
%TO.N,GND*%
X96520000Y-86360000D03*
%TO.P,TRS80 - 8inch,38,Pin_38*%
%TO.N,Net-(PC_5inch1-Pin_22)*%
X99060000Y-86360000D03*
%TO.P,TRS80 - 8inch,39,Pin_39*%
%TO.N,GND*%
X96520000Y-88900000D03*
%TO.P,TRS80 - 8inch,40,Pin_40*%
%TO.N,Net-(PC_5inch1-Pin_24)*%
X99060000Y-88900000D03*
%TO.P,TRS80 - 8inch,41,Pin_41*%
%TO.N,GND*%
X96520000Y-91440000D03*
%TO.P,TRS80 - 8inch,42,Pin_42*%
%TO.N,Net-(PC_5inch1-Pin_26)*%
X99060000Y-91440000D03*
%TO.P,TRS80 - 8inch,43,Pin_43*%
%TO.N,GND*%
X96520000Y-93980000D03*
%TO.P,TRS80 - 8inch,44,Pin_44*%
%TO.N,Net-(PC_5inch1-Pin_28)*%
X99060000Y-93980000D03*
%TO.P,TRS80 - 8inch,45,Pin_45*%
%TO.N,GND*%
X96520000Y-96520000D03*
%TO.P,TRS80 - 8inch,46,Pin_46*%
%TO.N,Net-(PC_5inch1-Pin_30)*%
X99060000Y-96520000D03*
%TO.P,TRS80 - 8inch,47,Pin_47*%
%TO.N,GND*%
X96520000Y-99060000D03*
%TO.P,TRS80 - 8inch,48,Pin_48*%
%TO.N,unconnected-(TRS80_8inch1-Pin_48-Pad48)*%
X99060000Y-99060000D03*
%TO.P,TRS80 - 8inch,49,Pin_49*%
%TO.N,GND*%
X96520000Y-101600000D03*
%TO.P,TRS80 - 8inch,50,Pin_50*%
%TO.N,unconnected-(TRS80_8inch1-Pin_50-Pad50)*%
X99060000Y-101600000D03*
%TD*%
D16*
%TO.P,C1,1,1*%
%TO.N,+5V*%
X144780000Y-29226828D03*
%TO.P,C1,2,2*%
%TO.N,GND*%
X144780000Y-34306828D03*
%TD*%
D17*
%TO.N,+5V*%
X149860000Y-29210000D03*
%TO.N,Net-(PC_5inch1-Pin_28)*%
X135890000Y-146050000D03*
X135890000Y-119380000D03*
X135890000Y-93980000D03*
X135890000Y-48260000D03*
%TO.N,Net-(PC_5inch1-Pin_20)*%
X140970000Y-58420000D03*
X140970000Y-83820000D03*
X140970000Y-129540000D03*
X140970000Y-135890000D03*
%TO.N,Net-(PC_5inch1-Pin_18)*%
X142240000Y-132080000D03*
X142240000Y-60960000D03*
X142240000Y-81280000D03*
%TO.N,Net-(PC_5inch1-Pin_22)*%
X139700000Y-138430000D03*
X139700000Y-55880000D03*
X139700000Y-86360000D03*
X139700000Y-127000000D03*
%TO.N,Net-(PC_5inch1-Pin_12)*%
X110490000Y-151130000D03*
X110490000Y-139700000D03*
X111760000Y-80010000D03*
%TO.N,Net-(PC_5inch1-Pin_30)*%
X134620000Y-116840000D03*
X134620000Y-148590000D03*
X134620000Y-96520000D03*
X134620000Y-45720000D03*
%TO.N,Net-(PC_5inch1-Pin_32)*%
X133350000Y-43180000D03*
X133350000Y-55880000D03*
X133350000Y-114300000D03*
%TO.N,Net-(PC_5inch1-Pin_26)*%
X137160000Y-91440000D03*
X137160000Y-121920000D03*
X137160000Y-50800000D03*
X137160000Y-143510000D03*
%TO.N,Net-(PC_5inch1-Pin_34)*%
X132080000Y-66040000D03*
X132080000Y-40640000D03*
X132080000Y-111760000D03*
%TO.N,Net-(PC_5inch1-Pin_24)*%
X138430000Y-140970000D03*
X138430000Y-53340000D03*
X138430000Y-88900000D03*
X138430000Y-124460000D03*
%TO.N,Net-(PC_5inch1-Pin_16)*%
X115570000Y-134620000D03*
%TO.N,Net-(PC_5inch1-Pin_8)*%
X143510000Y-73660000D03*
X106680000Y-78740000D03*
X143510000Y-144780000D03*
X106680000Y-63500000D03*
X106680000Y-120650000D03*
%TO.N,Net-(PC_5inch1-Pin_10)*%
X123190000Y-142240000D03*
%TO.N,Net-(PC_5inch1-Pin_14)*%
X118110000Y-137160000D03*
X119380000Y-77470000D03*
X118110000Y-128270000D03*
%TO.N,Net-(PC_5inch2-Pin_12)*%
X119380000Y-125730000D03*
X105410000Y-73660000D03*
X105410000Y-125730000D03*
%TO.N,Net-(PC_5inch2-Pin_14)*%
X104140000Y-123190000D03*
X104140000Y-71120000D03*
X111760000Y-123190000D03*
%TO.N,Net-(PC_5inch2-Pin_10)*%
X115570000Y-76200000D03*
%TO.N,Net-(PC_5inch2-Pin_16)*%
X123190000Y-63500000D03*
%TO.N,Net-(TRS80-5inch1-Pin_16)*%
X116840000Y-130810000D03*
X110490000Y-60960000D03*
%TD*%
D18*
%TO.N,+5V*%
X152400000Y-97790000D02*
X152400000Y-95250000D01*
X148590000Y-29210000D02*
X148590000Y-97790000D01*
X148590000Y-97790000D02*
X152400000Y-97790000D01*
X148573172Y-29226828D02*
X148590000Y-29210000D01*
X144780000Y-29226828D02*
X148573172Y-29226828D01*
D19*
%TO.N,Net-(J6-Pin_2)*%
X149860000Y-152400000D02*
X149860000Y-102870000D01*
X154940000Y-152400000D02*
X149860000Y-152400000D01*
X154940000Y-107950000D02*
X154940000Y-102870000D01*
X149860000Y-102870000D02*
X154940000Y-102870000D01*
%TO.N,Net-(PC_5inch1-Pin_28)*%
X135890000Y-119380000D02*
X135890000Y-146050000D01*
X135890000Y-48260000D02*
X135890000Y-119380000D01*
%TO.N,Net-(PC_5inch1-Pin_20)*%
X140970000Y-129540000D02*
X140970000Y-135890000D01*
X140970000Y-58420000D02*
X140970000Y-83820000D01*
X140970000Y-83820000D02*
X140970000Y-129540000D01*
%TO.N,Net-(PC_5inch1-Pin_18)*%
X142240000Y-81280000D02*
X142240000Y-60960000D01*
X142240000Y-132080000D02*
X142240000Y-81280000D01*
%TO.N,Net-(PC_5inch1-Pin_22)*%
X139700000Y-86360000D02*
X139700000Y-55880000D01*
X139700000Y-127000000D02*
X139700000Y-138430000D01*
X139700000Y-127000000D02*
X139700000Y-86360000D01*
%TO.N,Net-(PC_5inch1-Pin_12)*%
X111760000Y-104140000D02*
X110490000Y-105410000D01*
X110490000Y-139700000D02*
X110490000Y-151130000D01*
X111760000Y-101600000D02*
X111760000Y-104140000D01*
X111760000Y-80010000D02*
X111760000Y-101600000D01*
X110490000Y-105410000D02*
X110490000Y-139700000D01*
%TO.N,Net-(PC_5inch1-Pin_30)*%
X134620000Y-116840000D02*
X134620000Y-148590000D01*
X134620000Y-116840000D02*
X134620000Y-45720000D01*
%TO.N,Net-(PC_5inch1-Pin_32)*%
X133350000Y-43180000D02*
X133350000Y-114300000D01*
%TO.N,Net-(PC_5inch1-Pin_26)*%
X137160000Y-121920000D02*
X137160000Y-143510000D01*
X137160000Y-121920000D02*
X137160000Y-50800000D01*
%TO.N,Net-(PC_5inch1-Pin_34)*%
X132080000Y-40640000D02*
X132080000Y-66040000D01*
X132080000Y-111760000D02*
X132080000Y-66040000D01*
%TO.N,Net-(PC_5inch1-Pin_24)*%
X138430000Y-124460000D02*
X138430000Y-140970000D01*
X138430000Y-88900000D02*
X138430000Y-90170000D01*
X138430000Y-90170000D02*
X138430000Y-124460000D01*
X138430000Y-53340000D02*
X138430000Y-88900000D01*
%TO.N,Net-(PC_5inch1-Pin_16)*%
X116840000Y-101600000D02*
X116840000Y-104140000D01*
X116840000Y-104140000D02*
X115570000Y-105410000D01*
X115570000Y-105410000D02*
X115570000Y-134620000D01*
%TO.N,Net-(PC_5inch1-Pin_8)*%
X106680000Y-78740000D02*
X106680000Y-120650000D01*
X106680000Y-63500000D02*
X106680000Y-78740000D01*
X143510000Y-73660000D02*
X143510000Y-144780000D01*
%TO.N,Net-(PC_5inch1-Pin_10)*%
X124460000Y-104140000D02*
X123190000Y-105410000D01*
X123190000Y-105410000D02*
X123190000Y-142240000D01*
X124460000Y-101600000D02*
X124460000Y-104140000D01*
%TO.N,Net-(PC_5inch1-Pin_14)*%
X119380000Y-101600000D02*
X119380000Y-77470000D01*
X119380000Y-104140000D02*
X118110000Y-105410000D01*
X118110000Y-128270000D02*
X118110000Y-137160000D01*
X118110000Y-105410000D02*
X118110000Y-128270000D01*
X119380000Y-101600000D02*
X119380000Y-104140000D01*
%TO.N,Net-(PC_5inch2-Pin_12)*%
X119380000Y-109220000D02*
X119380000Y-125730000D01*
X105410000Y-73660000D02*
X105410000Y-125730000D01*
%TO.N,Net-(PC_5inch2-Pin_14)*%
X104140000Y-71120000D02*
X104140000Y-123190000D01*
X111760000Y-123190000D02*
X111760000Y-109220000D01*
%TO.N,Net-(PC_5inch2-Pin_10)*%
X115570000Y-104140000D02*
X115570000Y-76200000D01*
X114300000Y-109220000D02*
X114300000Y-105410000D01*
X114300000Y-105410000D02*
X115570000Y-104140000D01*
%TO.N,Net-(PC_5inch2-Pin_16)*%
X121920000Y-109220000D02*
X121920000Y-105410000D01*
X121920000Y-105410000D02*
X123190000Y-104140000D01*
X123190000Y-104140000D02*
X123190000Y-63500000D01*
%TO.N,Net-(TRS80-5inch1-Pin_16)*%
X110490000Y-62230000D02*
X110490000Y-60960000D01*
X109220000Y-105410000D02*
X109220000Y-109220000D01*
X110490000Y-104140000D02*
X109220000Y-105410000D01*
X116840000Y-130810000D02*
X116840000Y-109220000D01*
X110490000Y-62230000D02*
X110490000Y-104140000D01*
%TD*%
M02*
