M48
; DRILL file {KiCad 8.0.4} date 2024-09-04T22:50:29-0500
; FORMAT={-:-/ absolute / metric / decimal}
; #@! TF.CreationDate,2024-09-04T22:50:29-05:00
; #@! TF.GenerationSoftware,Kicad,Pcbnew,8.0.4
; #@! TF.FileFunction,Plated,1,2,PTH
FMAT,2
METRIC
; #@! TA.AperFunction,Plated,PTH,ViaDrill
T1C0.300
; #@! TA.AperFunction,Plated,PTH,ComponentDrill
T2C0.700
; #@! TA.AperFunction,Plated,PTH,ComponentDrill
T3C0.762
; #@! TA.AperFunction,Plated,PTH,ComponentDrill
T4C0.800
; #@! TA.AperFunction,Plated,PTH,ComponentDrill
T5C1.000
%
G90
G05
T1
X104.14Y-71.12
X104.14Y-123.19
X105.41Y-73.66
X105.41Y-125.73
X106.68Y-63.5
X106.68Y-78.74
X106.68Y-120.65
X110.49Y-60.96
X110.49Y-139.7
X110.49Y-151.13
X111.76Y-80.01
X111.76Y-123.19
X115.57Y-76.2
X115.57Y-134.62
X116.84Y-130.81
X118.11Y-128.27
X118.11Y-137.16
X119.38Y-77.47
X119.38Y-125.73
X123.19Y-63.5
X123.19Y-142.24
X132.08Y-40.64
X132.08Y-66.04
X132.08Y-111.76
X133.35Y-43.18
X133.35Y-55.88
X133.35Y-114.3
X134.62Y-45.72
X134.62Y-96.52
X134.62Y-116.84
X134.62Y-148.59
X135.89Y-48.26
X135.89Y-93.98
X135.89Y-119.38
X135.89Y-146.05
X137.16Y-50.8
X137.16Y-91.44
X137.16Y-121.92
X137.16Y-143.51
X138.43Y-53.34
X138.43Y-88.9
X138.43Y-124.46
X138.43Y-140.97
X139.7Y-55.88
X139.7Y-86.36
X139.7Y-127.0
X139.7Y-138.43
X140.97Y-58.42
X140.97Y-83.82
X140.97Y-129.54
X140.97Y-135.89
X142.24Y-60.96
X142.24Y-81.28
X142.24Y-132.08
X143.51Y-73.66
X143.51Y-144.78
X149.86Y-29.21
T2
X152.4Y-87.63
X152.4Y-95.25
X152.4Y-97.79
X152.4Y-105.41
X157.48Y-87.63
X157.48Y-95.25
X157.48Y-97.79
X157.48Y-105.41
T3
X144.78Y-29.227
X144.78Y-34.307
T4
X109.22Y-101.6
X109.22Y-109.22
X111.76Y-101.6
X111.76Y-109.22
X114.3Y-101.6
X114.3Y-109.22
X116.84Y-101.6
X116.84Y-109.22
X119.38Y-101.6
X119.38Y-109.22
X121.92Y-101.6
X121.92Y-109.22
X124.46Y-101.6
X124.46Y-109.22
T5
X96.52Y-40.64
X96.52Y-43.18
X96.52Y-45.72
X96.52Y-48.26
X96.52Y-50.8
X96.52Y-53.34
X96.52Y-55.88
X96.52Y-58.42
X96.52Y-60.96
X96.52Y-63.5
X96.52Y-66.04
X96.52Y-68.58
X96.52Y-71.12
X96.52Y-73.66
X96.52Y-76.2
X96.52Y-78.74
X96.52Y-81.28
X96.52Y-83.82
X96.52Y-86.36
X96.52Y-88.9
X96.52Y-91.44
X96.52Y-93.98
X96.52Y-96.52
X96.52Y-99.06
X96.52Y-101.6
X96.52Y-111.76
X96.52Y-114.3
X96.52Y-116.84
X96.52Y-119.38
X96.52Y-121.92
X96.52Y-124.46
X96.52Y-127.0
X96.52Y-129.54
X96.52Y-132.08
X96.52Y-134.62
X96.52Y-137.16
X96.52Y-139.7
X96.52Y-142.24
X96.52Y-144.78
X96.52Y-147.32
X96.52Y-149.86
X96.52Y-152.4
X99.06Y-40.64
X99.06Y-43.18
X99.06Y-45.72
X99.06Y-48.26
X99.06Y-50.8
X99.06Y-53.34
X99.06Y-55.88
X99.06Y-58.42
X99.06Y-60.96
X99.06Y-63.5
X99.06Y-66.04
X99.06Y-68.58
X99.06Y-71.12
X99.06Y-73.66
X99.06Y-76.2
X99.06Y-78.74
X99.06Y-81.28
X99.06Y-83.82
X99.06Y-86.36
X99.06Y-88.9
X99.06Y-91.44
X99.06Y-93.98
X99.06Y-96.52
X99.06Y-99.06
X99.06Y-101.6
X99.06Y-111.76
X99.06Y-114.3
X99.06Y-116.84
X99.06Y-119.38
X99.06Y-121.92
X99.06Y-124.46
X99.06Y-127.0
X99.06Y-129.54
X99.06Y-132.08
X99.06Y-134.62
X99.06Y-137.16
X99.06Y-139.7
X99.06Y-142.24
X99.06Y-144.78
X99.06Y-147.32
X99.06Y-149.86
X99.06Y-152.4
X109.22Y-50.8
X111.76Y-50.8
X152.4Y-85.09
X152.4Y-107.95
X154.94Y-40.64
X154.94Y-43.18
X154.94Y-45.72
X154.94Y-48.26
X154.94Y-50.8
X154.94Y-53.34
X154.94Y-55.88
X154.94Y-58.42
X154.94Y-60.96
X154.94Y-63.5
X154.94Y-66.04
X154.94Y-68.58
X154.94Y-71.12
X154.94Y-73.66
X154.94Y-76.2
X154.94Y-78.74
X154.94Y-81.28
X154.94Y-85.09
X154.94Y-107.95
X154.94Y-111.76
X154.94Y-114.3
X154.94Y-116.84
X154.94Y-119.38
X154.94Y-121.92
X154.94Y-124.46
X154.94Y-127.0
X154.94Y-129.54
X154.94Y-132.08
X154.94Y-134.62
X154.94Y-137.16
X154.94Y-139.7
X154.94Y-142.24
X154.94Y-144.78
X154.94Y-147.32
X154.94Y-149.86
X154.94Y-152.4
X157.48Y-29.227
X157.48Y-31.767
X157.48Y-40.64
X157.48Y-43.18
X157.48Y-45.72
X157.48Y-48.26
X157.48Y-50.8
X157.48Y-53.34
X157.48Y-55.88
X157.48Y-58.42
X157.48Y-60.96
X157.48Y-63.5
X157.48Y-66.04
X157.48Y-68.58
X157.48Y-71.12
X157.48Y-73.66
X157.48Y-76.2
X157.48Y-78.74
X157.48Y-81.28
X157.48Y-85.09
X157.48Y-107.95
X157.48Y-111.76
X157.48Y-114.3
X157.48Y-116.84
X157.48Y-119.38
X157.48Y-121.92
X157.48Y-124.46
X157.48Y-127.0
X157.48Y-129.54
X157.48Y-132.08
X157.48Y-134.62
X157.48Y-137.16
X157.48Y-139.7
X157.48Y-142.24
X157.48Y-144.78
X157.48Y-147.32
X157.48Y-149.86
X157.48Y-152.4
M30
